<svg width="447" height="387" viewBox="0 0 447 387" fill="none" xmlns="http://www.w3.org/2000/svg">
<path d="M155.341 37.8843V237.586L125.927 292.537H330.476C346.719 292.537 359.872 279.366 359.872 263.122V37.8843H155.341Z" fill="#EEDFED"/>
<path d="M340.427 37.8843V244.592C340.427 252.393 337.328 259.875 331.811 265.391C326.295 270.907 318.813 274.006 311.012 274.006H135.841L125.927 292.537H330.476C346.719 292.537 359.872 279.366 359.872 263.122V37.8843H340.427Z" fill="#E0C5DE"/>
<path d="M96.5122 237.585H155.341V263.104C155.341 270.905 152.242 278.387 146.726 283.903C141.21 289.419 133.728 292.518 125.927 292.518C118.129 292.518 110.65 289.422 105.134 283.909C99.6182 278.397 96.5171 270.92 96.5122 263.122V237.585Z" fill="#B580B1"/>
<path d="M135.494 290.945C141.286 288.95 146.312 285.197 149.87 280.209C153.428 275.222 155.34 269.249 155.341 263.122V237.585H115.628V263.122C115.63 269.251 117.546 275.226 121.107 280.214C124.669 285.201 129.698 288.953 135.494 290.945Z" fill="#946291"/>
<path d="M322.098 85.4084H191.122C190.152 85.4084 189.221 85.0229 188.535 84.3368C187.849 83.6507 187.463 82.7201 187.463 81.7498C187.463 80.7795 187.849 79.849 188.535 79.1629C189.221 78.4768 190.152 78.0913 191.122 78.0913H322.098C323.068 78.0913 323.998 78.4768 324.685 79.1629C325.371 79.849 325.756 80.7795 325.756 81.7498C325.756 82.7201 325.371 83.6507 324.685 84.3368C323.998 85.0229 323.068 85.4084 322.098 85.4084ZM298.701 120.585H191.122C190.152 120.585 189.221 120.2 188.535 119.514C187.849 118.828 187.463 117.897 187.463 116.927C187.463 115.956 187.849 115.026 188.535 114.34C189.221 113.654 190.152 113.268 191.122 113.268H298.701C299.672 113.268 300.602 113.654 301.288 114.34C301.974 115.026 302.36 115.956 302.36 116.927C302.36 117.897 301.974 118.828 301.288 119.514C300.602 120.2 299.672 120.585 298.701 120.585ZM282.878 155.744H191.122C190.152 155.744 189.221 155.358 188.535 154.672C187.849 153.986 187.463 153.056 187.463 152.085C187.463 151.115 187.849 150.184 188.535 149.498C189.221 148.812 190.152 148.427 191.122 148.427H282.878C283.848 148.427 284.779 148.812 285.465 149.498C286.151 150.184 286.537 151.115 286.537 152.085C286.537 153.056 286.151 153.986 285.465 154.672C284.779 155.358 283.848 155.744 282.878 155.744ZM298.701 190.921H191.122C190.152 190.921 189.221 190.535 188.535 189.849C187.849 189.163 187.463 188.232 187.463 187.262C187.463 186.292 187.849 185.361 188.535 184.675C189.221 183.989 190.152 183.604 191.122 183.604H298.701C299.672 183.604 300.602 183.989 301.288 184.675C301.974 185.361 302.36 186.292 302.36 187.262C302.36 188.232 301.974 189.163 301.288 189.849C300.602 190.535 299.672 190.921 298.701 190.921ZM282.878 226.079H191.122C190.152 226.079 189.221 225.694 188.535 225.008C187.849 224.321 187.463 223.391 187.463 222.421C187.463 221.45 187.849 220.52 188.535 219.834C189.221 219.147 190.152 218.762 191.122 218.762H282.878C283.848 218.762 284.779 219.147 285.465 219.834C286.151 220.52 286.537 221.45 286.537 222.421C286.537 223.391 286.151 224.321 285.465 225.008C284.779 225.694 283.848 226.079 282.878 226.079Z" fill="#7D527B"/>
<path d="M359.872 263.122V195.896C359.377 196.106 358.852 196.235 358.317 196.281C357.22 196.281 354.476 194.982 352.665 194.122C349.098 192.439 345.055 190.537 340.537 190.537C338.998 190.533 337.467 190.767 336 191.232C329.543 193.335 326.433 199.061 323.927 203.653C323.067 205.226 321.64 207.86 320.89 208.427C320.14 208.994 317.104 209.561 315.311 209.909C310.189 210.86 303.823 212.067 299.89 217.482C295.957 222.896 296.78 229.262 297.439 234.403C297.677 236.342 298.061 239.305 297.75 240.256C297.439 241.207 295.427 243.238 294.238 244.5C290.598 248.323 286.098 253.079 286.098 259.939C286.098 266.799 290.598 271.555 294.238 275.396C295.427 276.659 297.439 278.762 297.75 279.622C298.061 280.482 297.677 283.537 297.439 285.494C297.201 287.451 296.854 290.067 296.89 292.537H330.476C346.72 292.537 359.872 279.366 359.872 263.122Z" fill="#E0C5DE"/>
<path d="M422.488 259.939C422.488 266.396 413.122 271.299 411.22 277.134C409.317 282.97 413.89 292.646 410.232 297.677C406.573 302.707 396.091 301.244 391.006 304.939C385.921 308.634 384.183 319.024 378.146 321C372.11 322.976 364.774 315.567 358.317 315.567C351.86 315.567 344.305 322.884 338.47 321C332.634 319.116 330.659 308.616 325.628 304.939C320.598 301.262 310.098 302.744 306.384 297.677C302.671 292.61 307.354 283.189 305.396 277.134C303.439 271.079 294.146 266.396 294.146 259.939C294.146 253.482 303.512 248.579 305.396 242.744C307.281 236.909 302.726 227.25 306.384 222.22C310.043 217.189 320.543 218.634 325.628 214.939C330.713 211.244 332.433 200.854 338.47 198.896C344.506 196.939 351.86 204.329 358.317 204.329C364.774 204.329 372.311 196.994 378.146 198.896C383.982 200.799 385.976 211.28 391.006 214.939C396.037 218.598 406.537 217.134 410.232 222.22C413.927 227.305 409.262 236.707 411.22 242.744C413.177 248.78 422.488 253.482 422.488 259.939Z" fill="#FABD3A"/>
<path d="M356.817 305.927C346.393 305.931 336.34 302.062 328.608 295.071C320.876 288.081 316.017 278.466 314.974 268.095C313.932 257.723 316.78 247.334 322.965 238.944C329.151 230.555 338.233 224.762 348.449 222.691C358.666 220.621 369.287 222.42 378.251 227.739C387.215 233.058 393.884 241.518 396.962 251.477C400.04 261.436 399.308 272.183 394.909 281.633C390.509 291.083 382.755 298.561 373.152 302.616C367.987 304.811 362.43 305.937 356.817 305.927Z" fill="#F4A93F"/>
<path d="M383.433 273.073C383.243 272.655 382.973 272.278 382.638 271.965C382.303 271.651 381.909 271.406 381.479 271.245C381.049 271.084 380.592 271.009 380.133 271.024C379.674 271.04 379.223 271.145 378.805 271.335L353.031 282.915C352.673 283.078 352.345 283.301 352.061 283.573C351.787 283.297 351.465 283.074 351.11 282.915L325.335 271.335C324.918 271.143 324.466 271.035 324.007 271.018C323.547 271.002 323.089 271.076 322.658 271.238C322.228 271.4 321.834 271.645 321.499 271.96C321.164 272.275 320.895 272.653 320.707 273.073L308.744 299.707C313.409 302.396 321.384 301.866 325.628 304.939C330.494 308.488 332.323 318.366 337.902 320.78L352.061 289.281L364.628 317.213C369.348 319.262 374.14 322.299 378.146 321C384.183 319.024 385.976 308.616 391.006 304.939C392.543 303.823 394.573 303.183 396.75 302.689L383.433 273.073Z" fill="#F4A93F"/>
<path d="M331.5 335.341L325.409 324.53C325.041 323.886 324.477 323.376 323.799 323.073C323.122 322.771 322.366 322.691 321.64 322.847L309.494 325.445C306.713 326.049 304.409 323.213 305.579 320.597L326.963 273.073C327.151 272.656 327.42 272.279 327.753 271.966C328.087 271.652 328.479 271.408 328.907 271.246C329.336 271.085 329.792 271.01 330.249 271.025C330.707 271.04 331.157 271.146 331.573 271.335L357.348 282.915C358.191 283.294 358.849 283.992 359.178 284.857C359.507 285.721 359.48 286.68 359.104 287.524L337.72 335.049C337.454 335.636 337.032 336.138 336.499 336.501C335.966 336.863 335.343 337.071 334.699 337.101C334.056 337.131 333.416 336.983 332.852 336.672C332.287 336.362 331.819 335.901 331.5 335.341Z" fill="#DE3226"/>
<path d="M334.409 281.799C334.809 280.939 335.035 280.009 335.076 279.061C335.116 278.114 334.968 277.168 334.642 276.277C334.316 275.387 333.817 274.569 333.174 273.872C332.531 273.175 331.757 272.611 330.896 272.213L328.848 271.262C328.006 271.594 327.329 272.245 326.963 273.073L305.579 320.598C304.409 323.213 306.713 326.049 309.494 325.445L314.762 324.311L334.409 281.799Z" fill="#B11A31"/>
<path d="M385.116 335.341L391.226 324.53C391.591 323.884 392.155 323.372 392.833 323.069C393.511 322.766 394.268 322.689 394.994 322.847L407.122 325.445C407.753 325.579 408.409 325.536 409.017 325.32C409.625 325.105 410.162 324.725 410.567 324.223C410.972 323.721 411.231 323.116 411.314 322.476C411.397 321.836 411.301 321.186 411.037 320.597L389.671 273.073C389.483 272.656 389.215 272.279 388.881 271.966C388.547 271.652 388.155 271.408 387.727 271.246C387.299 271.085 386.843 271.01 386.385 271.025C385.928 271.04 385.478 271.146 385.061 271.335L359.287 282.915C358.443 283.294 357.785 283.992 357.456 284.857C357.127 285.721 357.154 286.68 357.53 287.524L378.896 335.049C379.162 335.636 379.584 336.138 380.117 336.501C380.65 336.863 381.273 337.071 381.916 337.101C382.56 337.131 383.2 336.983 383.764 336.672C384.329 336.362 384.797 335.901 385.116 335.341Z" fill="#DE3226"/>
<path d="M365.982 285.439L358.152 288.915L378.896 335.049C379.162 335.636 379.584 336.139 380.117 336.501C380.65 336.863 381.273 337.071 381.916 337.101C382.56 337.131 383.2 336.983 383.764 336.672C384.329 336.362 384.797 335.901 385.116 335.341L386.854 332.268L365.982 285.439Z" fill="#B11A31"/>
<path d="M357.348 282.915L331.573 271.335C331.157 271.146 330.707 271.04 330.249 271.025C329.792 271.01 329.336 271.085 328.907 271.246C328.479 271.408 328.087 271.652 327.753 271.966C327.42 272.279 327.151 272.656 326.963 273.073L321.128 286.043C325.696 293.447 332.462 299.241 340.482 302.616C343.842 304.051 347.38 305.029 351 305.524L359.104 287.524C359.48 286.68 359.507 285.721 359.178 284.857C358.849 283.992 358.191 283.294 357.348 282.915Z" fill="#B11A31"/>
<path d="M394.171 283.097L389.671 273.073C389.483 272.656 389.215 272.279 388.881 271.966C388.547 271.652 388.155 271.408 387.727 271.246C387.299 271.085 386.843 271.01 386.385 271.025C385.928 271.04 385.478 271.146 385.061 271.335L359.287 282.915C358.443 283.294 357.785 283.992 357.456 284.857C357.127 285.721 357.154 286.68 357.53 287.524L365.396 305.049C373.389 303.366 380.722 299.401 386.506 293.634C389.595 290.543 392.181 286.988 394.171 283.097Z" fill="#B11A31"/>
<path d="M358.317 298.207C380.018 298.207 397.61 280.616 397.61 258.915C397.61 237.214 380.018 219.622 358.317 219.622C336.616 219.622 319.024 237.214 319.024 258.915C319.024 280.616 336.616 298.207 358.317 298.207Z" fill="#F8881B"/>
<path d="M358.317 293.634C377.492 293.634 393.037 278.09 393.037 258.915C393.037 239.74 377.492 224.195 358.317 224.195C339.142 224.195 323.598 239.74 323.598 258.915C323.598 278.09 339.142 293.634 358.317 293.634Z" fill="#F08000"/>
<path d="M358.317 289.72C375.33 289.72 389.122 275.928 389.122 258.915C389.122 241.902 375.33 228.11 358.317 228.11C341.304 228.11 327.512 241.902 327.512 258.915C327.512 275.928 341.304 289.72 358.317 289.72Z" fill="#FABD3A"/>
<path d="M385.738 213.512C386.605 213.007 387.359 212.328 387.951 211.518C384.933 206.927 382.793 200.396 378.146 198.896C376.555 198.384 374.817 198.549 373.024 199.079C372.48 200.129 372.208 201.3 372.234 202.482C372.259 203.665 372.581 204.822 373.171 205.848L376.116 210.915C376.577 211.718 377.191 212.422 377.924 212.987C378.657 213.552 379.495 213.967 380.388 214.208C381.282 214.449 382.214 214.512 383.132 214.393C384.05 214.273 384.936 213.974 385.738 213.512ZM358.463 206.634C358.941 205.91 359.282 205.104 359.47 204.256C359.085 204.293 358.701 204.329 358.317 204.329C352.646 204.329 346.134 198.677 340.683 198.585C340.495 199.909 340.688 201.258 341.239 202.476C341.789 203.694 342.675 204.73 343.793 205.463L348.713 208.683C349.488 209.189 350.355 209.537 351.264 209.708C352.173 209.879 353.107 209.869 354.013 209.679C354.918 209.489 355.777 209.122 356.541 208.599C357.305 208.077 357.958 207.409 358.463 206.634ZM411.22 242.744C409.262 236.707 413.89 227.25 410.232 222.22C407.927 219.037 402.97 218.433 398.36 217.537C397.104 219.618 396.558 222.051 396.805 224.47L397.701 233.927C397.993 236.946 399.47 239.725 401.809 241.656C404.148 243.587 407.157 244.511 410.177 244.226C410.699 244.169 411.218 244.083 411.732 243.97C411.535 243.573 411.363 243.163 411.22 242.744Z" fill="#FAD564"/>
<path d="M343.918 308.519L343.902 308.511C341.288 307.303 338.19 308.443 336.982 311.057L333.011 319.652C331.803 322.266 332.943 325.364 335.557 326.571L335.573 326.579C338.187 327.787 341.285 326.647 342.493 324.033L346.464 315.438C347.672 312.824 346.532 309.726 343.918 308.519Z" fill="#F44533"/>
<path d="M393.996 295.339L393.98 295.346C391.349 296.517 390.166 299.599 391.338 302.229L395.189 310.879C396.36 313.51 399.442 314.693 402.072 313.521L402.089 313.514C404.719 312.343 405.902 309.261 404.731 306.631L400.88 297.981C399.709 295.351 396.627 294.168 393.996 295.339Z" fill="#F44533"/>
<path opacity="0.2" d="M5.5 378.2C21.5 389 31.7 370.3 46.4 366.6C63.7 362.2 84.1 357 75.7 347.3C67.3 337.6 50.2 334.5 39.6 347.3C31.4 357.2 -12 366.3 5.5 378.2Z" fill="black"/>
<path d="M26.3 361.2C26.2 364.1 24.6 365.3 23.5 367.6C22.4 369.6 21.6 375.1 17.3 376.8C13.4 378.3 9.09999 377.7 7.79999 376.8C6.49999 375.9 6.19999 373.5 7.19999 371.6C8.19999 369.7 10.5 367.6 11.6 363.5C12.7 359.4 14.2 357.4 14.2 357.4L26.3 361.2Z" fill="#262626"/>
<path d="M25 360.7C25 360.7 24 361.5 22.6 364.6C21.1 367.7 20.3 372.2 17.2 373.5C13.4 375.1 8.99999 374.7 7.79999 373.8C6.59999 372.9 8.09999 370.7 10.2 368.3C12.3 365.9 12.1 359.1 12.1 359.1L25 360.7Z" fill="white"/>
<path d="M50.2 343.5C50.2 344.9 50.8 345.7 52.9 347.3C55 348.9 56 351.6 58.6 353.7C62.4 356.7 66.4 357 70.1 355.8C72 355.2 72.2 354.5 72.5 353.8C72.8 353.1 72.9 350.7 72.4 350.1C71 348.6 66.7 346.8 66 345.4C65.3 344 64 340.3 64 340.3L50.2 339.7V343.5Z" fill="#262626"/>
<path d="M50.4 341.6C51.1 342.2 53.8 344.1 55.1 345.6C56.3 347 60.8 352.3 64.2 352.9C67.7 353.4 71 352.6 71.8 351.6C72.6 350.6 71.8 350 70.8 349.3C69.8 348.6 66.5 346.8 65.8 345.7C65.1 344.5 64.3 340.7 64.3 340.7L50.4 341.6Z" fill="white"/>
<path d="M64.4 257.5C67.2 261.2 68.7 264.9 68.9 273.2C69.1 281.5 69.2 299.2 68.3 302.6C67.3 306.7 64.4 322 64.6 326.2C64.8 330.4 65.1 332.9 64.4 334.2C63.7 335.5 63.6 335.8 64.7 337C65.8 338.3 66 340.3 65.8 341.7C65.6 343.1 66.8 343.2 64.8 343.1C62.8 343 61.2 343.5 58.3 344.3C55.4 345.1 50.4 344.1 50.1 344.1C49.8 344.1 50.2 342.4 49.7 341.4C49.2 340.3 48.8 339.1 48.8 336.5C48.8 333.9 47.7 319.2 47.7 313.5C47.7 307.8 49.1 301.7 49.4 298.2C49.7 293.9 48.7 286.2 48.3 284.6C47.9 283 44.3 262.2 44.3 262.2L64.4 257.5Z" fill="#7D527B"/>
<path d="M53.8 268.7C53.8 268.7 55.5 279.2 54.8 281.3C54.1 283.5 50.1 287.9 48.8 291.3C47.5 294.7 46.8 300.9 44.5 306C42.2 311.1 36.3 323.4 35.3 327.7C34.3 332 33.5 337.1 31.9 338.7C30.2 340.4 30.4 342.1 29.7 345.6C29 349.1 27.2 353.1 27.3 356.3C27.4 359.4 26.5 359.6 26.6 360.6C26.7 361.6 27.9 362.8 26.2 363.3C24.5 363.8 20.1 363.3 16.7 362.7C13.3 362.1 11.3 362.6 11.3 362.6C11.3 362.6 10.4 358.6 11.1 356.9C12.1 354.5 14.3 353.3 14.1 351.8C13.9 350.3 12.3 346.7 13.8 344.1C15.3 341.5 16 338.9 16 334.4C16.1 329.9 18.6 323.7 19.8 319.8C21 315.9 25 298.7 25 293.6C25 288.5 25.5 279.8 26.5 276C27.7 271.3 27 263.8 27.8 261.7C28.7 259.6 53.8 268.7 53.8 268.7Z" fill="#946291"/>
<path d="M35.8 189.2C36.1 192 36.3 194.4 35.3 196.3C33.6 199.5 31 201.3 29.9 201.8C28.8 202.3 33.1 212.4 39.9 213.4C46.7 214.4 63.6 217.4 64.7 218.1C65.7 218.8 69.9 223.2 69.9 223.2C69.9 223.2 65 230.1 63.6 232.5C61.3 236.5 57.3 244 57.3 244C57.3 244 59.2 248.4 61.2 247.8C63.2 247.2 63.2 242.7 63.7 241.7C64.2 240.7 78.2 225.8 79.1 224.2C80 222.6 80.6 220.4 78.4 218.2C76.2 216 70.9 209.2 69.4 207.6C68.4 206.6 66.1 204.1 63.5 202.2C60.9 200.3 51.2 197.2 51.2 197.2L49.6 190.1L35.8 189.2Z" fill="#F6BBB6"/>
<path d="M30.8 201.3C30.8 201.3 38.5 210.6 46.9 208.3C55.3 206 52 197.9 52 197.9C52 197.9 58 196.9 62.7 200.4C67.2 203.8 68 205 68.4 206.2C68.1 207 65.2 211 65.2 211C65.2 211 65.9 215.4 65.3 219.3C64.7 223.2 61.7 232.7 62.1 238.3C62.5 243.9 63.7 250.8 64.6 253.5C65.5 256.1 66.5 260.3 66.5 260.3C66.5 260.3 63.5 267 54 268.7C44.5 270.4 35.2 270.6 31.2 267.7C26.7 264.4 27 262.9 27.8 261.4C28.6 259.9 31.6 254.2 31.3 250.4C31 246.6 23.3 223.6 23.3 223.6L14.8 214.8C14.8 214.8 16.3 208.4 20.5 206.3C24.7 204.2 30.8 201.3 30.8 201.3Z" fill="#E5E5E5"/>
<path d="M15 214.7C15 214.7 16.4 215 18.3 215.9C20.2 216.8 25.2 220.1 26.1 220.9C27.1 221.7 26.6 222.1 25.3 223.2C24.1 224.3 11.7 238.2 11.7 238.2C11.7 238.2 17 242.1 18.7 243.9C20.4 245.7 24.7 248.2 26.1 248C27.5 247.8 31.2 245.2 33.4 246.8C35.6 248.4 38.3 252.6 35.4 254C32.5 255.4 27.1 256.6 24.8 255.8C22.5 255 5.29999 246.3 2.99999 244.4C0.299994 242.3 -1.10001 238.5 1.19999 235.2C3.49999 231.9 15 214.7 15 214.7Z" fill="#F6BBB6"/>
<path d="M33 186C33 186 31.4 186.7 33.2 189.6C35 192.4 36.1 193 36.9 192.9C37.7 192.8 37.9 192.5 37.9 192.5C37.9 192.5 38.8 196 41.7 197.7C44.5 199.4 50.4 201.5 53.1 200.5C55.8 199.5 55.8 186.3 55.1 183.6C54.4 180.9 52.3 171.6 43.3 170.9C34.3 170.2 28.6 177.2 33 186Z" fill="#F6BBB6"/>
<path d="M42.9 170.6C33.9 169.9 28.6 177.2 33 185.9C33 185.9 34.3 185.3 36 186.5C37.6 187.7 38.2 189.1 38.2 189.1L39.3 188.3C39.3 188.3 39.1 181.6 42.9 179.7C45.3 178.5 48.4 180.3 50.5 179.3C51.6 178.8 52.5 177.6 52.8 176.6C50.6 172.9 46.8 171 42.9 170.6Z" fill="black"/>
</svg>
