<svg width="126" height="31" viewBox="0 0 126 31" fill="none" xmlns="http://www.w3.org/2000/svg">
<path d="M0 15C0 13.8954 0.895431 13 2 13H123.871C125.025 13 125.939 13.9734 125.867 15.1248L125.117 27.1248C125.051 28.1788 124.177 29 123.121 29H2C0.895427 29 0 28.1046 0 27V15Z" fill="url(#paint0_linear_874_48475)"/>
<circle cx="32.5" cy="17.5" r="8.5" fill="white"/>
<path d="M32.5 25.4062C36.8665 25.4062 40.4062 21.8665 40.4062 17.5C40.4062 13.1335 36.8665 9.59375 32.5 9.59375C28.1335 9.59375 24.5938 13.1335 24.5938 17.5C24.5938 21.8665 28.1335 25.4062 32.5 25.4062Z" stroke="#0832FF" stroke-linecap="round" stroke-linejoin="round"/>
<path d="M34.3611 19.3616L29.1143 20.8854L30.638 15.6385L35.8849 14.1147L34.3611 19.3616Z" stroke="#0832FF" stroke-linecap="round" stroke-linejoin="round"/>
<path d="M32.5 18.2188C32.897 18.2188 33.2188 17.897 33.2188 17.5C33.2188 17.103 32.897 16.7812 32.5 16.7812C32.103 16.7812 31.7812 17.103 31.7812 17.5C31.7812 17.897 32.103 18.2188 32.5 18.2188Z" fill="#0832FF"/>
<path d="M8.46 20.71L8.278 16.706L17.82 6.8H21.616L13.686 15.224L11.814 17.278L8.46 20.71ZM5.444 25V6.8H8.824V25H5.444ZM18.132 25L11.164 16.706L13.4 14.236L22.084 25H18.132ZM63.7794 10.96C64.8888 10.96 65.8681 11.1767 66.7174 11.61C67.5841 12.0433 68.2601 12.7107 68.7454 13.612C69.2308 14.496 69.4734 15.64 69.4734 17.044V25H66.2234V17.46C66.2234 16.2293 65.9548 15.3107 65.4174 14.704C64.8801 14.0973 64.1088 13.794 63.1034 13.794C62.3928 13.794 61.7601 13.95 61.2054 14.262C60.6681 14.574 60.2434 15.0333 59.9314 15.64C59.6368 16.2467 59.4894 17.018 59.4894 17.954V25H56.2394V17.46C56.2394 16.2293 55.9708 15.3107 55.4334 14.704C54.8961 14.0973 54.1248 13.794 53.1194 13.794C52.4088 13.794 51.7761 13.95 51.2214 14.262C50.6841 14.574 50.2594 15.0333 49.9474 15.64C49.6528 16.2467 49.5054 17.018 49.5054 17.954V25H46.2554V11.116H49.3494V14.808L48.8034 13.716C49.2714 12.8147 49.9474 12.13 50.8314 11.662C51.7328 11.194 52.7554 10.96 53.8994 10.96C55.1994 10.96 56.3261 11.2807 57.2794 11.922C58.2501 12.5633 58.8914 13.534 59.2034 14.834L57.9294 14.392C58.3801 13.352 59.1254 12.52 60.1654 11.896C61.2054 11.272 62.4101 10.96 63.7794 10.96ZM81.4725 25.182C80.3459 25.182 79.3145 24.922 78.3785 24.402C77.4599 23.882 76.7232 23.102 76.1685 22.062C75.6312 21.0047 75.3625 19.67 75.3625 18.058C75.3625 16.4287 75.6225 15.094 76.1425 14.054C76.6799 13.014 77.4079 12.2427 78.3265 11.74C79.2452 11.22 80.2939 10.96 81.4725 10.96C82.8419 10.96 84.0465 11.2547 85.0865 11.844C86.1439 12.4333 86.9759 13.2567 87.5825 14.314C88.2065 15.3713 88.5185 16.6193 88.5185 18.058C88.5185 19.4967 88.2065 20.7533 87.5825 21.828C86.9759 22.8853 86.1439 23.7087 85.0865 24.298C84.0465 24.8873 82.8419 25.182 81.4725 25.182ZM73.7765 30.044V11.116H76.8705V14.392L76.7665 18.084L77.0265 21.776V30.044H73.7765ZM81.1085 22.4C81.8885 22.4 82.5819 22.2267 83.1885 21.88C83.8125 21.5333 84.3065 21.0307 84.6705 20.372C85.0345 19.7133 85.2165 18.942 85.2165 18.058C85.2165 17.1567 85.0345 16.3853 84.6705 15.744C84.3065 15.0853 83.8125 14.5827 83.1885 14.236C82.5819 13.8893 81.8885 13.716 81.1085 13.716C80.3285 13.716 79.6265 13.8893 79.0025 14.236C78.3785 14.5827 77.8845 15.0853 77.5205 15.744C77.1565 16.3853 76.9745 17.1567 76.9745 18.058C76.9745 18.942 77.1565 19.7133 77.5205 20.372C77.8845 21.0307 78.3785 21.5333 79.0025 21.88C79.6265 22.2267 80.3285 22.4 81.1085 22.4ZM100.127 25V22.192L99.945 21.594V16.68C99.945 15.7267 99.659 14.99 99.087 14.47C98.515 13.9327 97.6484 13.664 96.487 13.664C95.707 13.664 94.9357 13.7853 94.173 14.028C93.4277 14.2707 92.795 14.6087 92.275 15.042L91.001 12.676C91.7464 12.104 92.6304 11.6793 93.653 11.402C94.693 11.1073 95.7677 10.96 96.877 10.96C98.8877 10.96 100.439 11.4453 101.531 12.416C102.64 13.3693 103.195 14.8513 103.195 16.862V25H100.127ZM95.759 25.182C94.719 25.182 93.809 25.0087 93.029 24.662C92.249 24.298 91.6424 23.804 91.209 23.18C90.793 22.5387 90.585 21.8193 90.585 21.022C90.585 20.242 90.767 19.54 91.131 18.916C91.5124 18.292 92.1277 17.798 92.977 17.434C93.8264 17.07 94.953 16.888 96.357 16.888H100.387V19.046H96.591C95.4817 19.046 94.7364 19.228 94.355 19.592C93.9737 19.9387 93.783 20.372 93.783 20.892C93.783 21.4813 94.017 21.9493 94.485 22.296C94.953 22.6427 95.603 22.816 96.435 22.816C97.2324 22.816 97.943 22.634 98.567 22.27C99.2084 21.906 99.6677 21.3687 99.945 20.658L100.491 22.608C100.179 23.4227 99.6157 24.0553 98.801 24.506C98.0037 24.9567 96.9897 25.182 95.759 25.182ZM111.806 25.182C110.645 25.182 109.527 25.0347 108.452 24.74C107.395 24.428 106.554 24.0553 105.93 23.622L107.178 21.152C107.802 21.5507 108.547 21.88 109.414 22.14C110.281 22.4 111.147 22.53 112.014 22.53C113.037 22.53 113.773 22.3913 114.224 22.114C114.692 21.8367 114.926 21.464 114.926 20.996C114.926 20.6147 114.77 20.3287 114.458 20.138C114.146 19.93 113.739 19.774 113.236 19.67C112.733 19.566 112.17 19.4707 111.546 19.384C110.939 19.2973 110.324 19.1847 109.7 19.046C109.093 18.89 108.539 18.6733 108.036 18.396C107.533 18.1013 107.126 17.7113 106.814 17.226C106.502 16.7407 106.346 16.0993 106.346 15.302C106.346 14.418 106.597 13.6553 107.1 13.014C107.603 12.3553 108.305 11.8527 109.206 11.506C110.125 11.142 111.208 10.96 112.456 10.96C113.392 10.96 114.337 11.064 115.29 11.272C116.243 11.48 117.032 11.7747 117.656 12.156L116.408 14.626C115.749 14.2273 115.082 13.9587 114.406 13.82C113.747 13.664 113.089 13.586 112.43 13.586C111.442 13.586 110.705 13.7333 110.22 14.028C109.752 14.3227 109.518 14.6953 109.518 15.146C109.518 15.562 109.674 15.874 109.986 16.082C110.298 16.29 110.705 16.4547 111.208 16.576C111.711 16.6973 112.265 16.8013 112.872 16.888C113.496 16.9573 114.111 17.07 114.718 17.226C115.325 17.382 115.879 17.5987 116.382 17.876C116.902 18.136 117.318 18.5087 117.63 18.994C117.942 19.4793 118.098 20.112 118.098 20.892C118.098 21.7587 117.838 22.5127 117.318 23.154C116.815 23.7953 116.096 24.298 115.16 24.662C114.224 25.0087 113.106 25.182 111.806 25.182Z" fill="black"/>
<defs>
<linearGradient id="paint0_linear_874_48475" x1="0" y1="21" x2="126" y2="21" gradientUnits="userSpaceOnUse">
<stop stop-color="#E0F7FA"/>
<stop offset="1" stop-color="#B2EBF2"/>
</linearGradient>
</defs>
</svg>
