<svg width="304" height="398" viewBox="0 0 304 398" fill="none" xmlns="http://www.w3.org/2000/svg">
<g clip-path="url(#clip0_2982_32367)">
<circle cx="154" cy="150" r="150" fill="#F3F3F3"/>
<path d="M75.4541 240.899C82.3552 256.238 89.2936 271.673 93.4579 287.972C96.2569 298.963 97.7871 310.243 98.9595 321.529C101.137 342.562 100.543 363.275 102.051 384.351C102.15 385.726 104.455 388.481 105.12 389.688C106.268 391.765 108.414 392.471 107.851 394.776C107.397 396.642 100.564 396.207 99.3078 396.241C95.2244 396.359 90.6962 397.734 87.2815 394.449C85.9877 393.205 86.2365 391.003 86.0934 389.312C84.9023 375.276 77.6747 356.868 73.753 338.578C72.7889 334.075 72.3908 325.401 72.6396 320.805C72.8075 317.719 73.5197 314.672 73.4917 311.583C73.4451 306.296 71.2308 301.271 69.0942 296.419C64.6998 286.445 60.4328 276.319 58.2838 265.63C56.1348 254.941 56.2157 243.549 60.3489 233.473" fill="black"/>
<path d="M75.198 241.047C80.1429 252.346 85.2309 263.595 89.2273 275.276C93.2889 287.156 95.8391 299.376 97.4377 311.819C99.0704 324.517 99.8541 337.255 100.262 350.047C100.461 356.394 100.61 362.742 100.846 369.089C100.964 372.303 101.11 375.517 101.282 378.73C101.372 380.341 101.474 381.955 101.593 383.563C101.621 384.474 101.868 385.365 102.314 386.16C102.821 387.068 103.44 387.908 104.031 388.763C104.525 389.478 104.933 390.256 105.48 390.94C106.102 391.718 107.035 392.399 107.411 393.354C107.722 394.119 107.604 394.909 106.845 395.263C105.405 395.935 103.539 395.885 101.984 395.885C100.429 395.885 98.9367 395.86 97.4003 395.994C95.0056 396.202 92.4648 396.582 90.1354 395.779C88.9474 395.369 87.5416 394.573 86.9943 393.388C86.4842 392.274 86.5775 390.962 86.5122 389.768C86.2417 384.829 85.091 379.89 83.906 375.107C81.0448 363.532 77.2351 352.214 74.5916 340.586C73.5342 335.921 73.1206 331.228 72.9931 326.467C72.9044 324.274 72.9386 322.078 73.0957 319.889C73.3538 316.875 74.0038 313.887 73.8639 310.848C73.5871 304.921 70.844 299.472 68.5147 294.135C66.0609 288.515 63.6973 282.846 61.7691 277.03C57.9997 265.691 55.9036 253.478 58.3107 241.641C58.8601 238.884 59.6617 236.182 60.7054 233.571C60.8858 233.129 60.1674 232.949 59.9901 233.375C55.4931 244.462 55.7668 256.772 58.4351 268.272C59.8595 274.374 61.937 280.299 64.2695 286.105C65.4015 288.929 66.5989 291.728 67.818 294.502C69.062 297.382 70.4118 300.237 71.4443 303.21C72.4768 306.183 73.1859 309.315 73.077 312.497C72.9744 315.482 72.3275 318.406 72.2093 321.41C72.0385 326.07 72.2466 330.735 72.8313 335.361C73.5249 340.928 75.1545 346.417 76.638 351.813C78.2552 357.694 80.0092 363.535 81.614 369.416C83.0632 374.718 84.413 380.071 85.2309 385.51C85.4144 386.735 85.5668 387.964 85.6694 389.199C85.7658 390.331 85.7067 391.484 85.9244 392.62C86.3723 394.899 88.5524 396.252 90.6858 396.75C93.0401 397.303 95.4752 396.921 97.8388 396.734C99.3783 396.616 100.908 396.697 102.448 396.666C103.987 396.635 105.735 396.622 107.15 395.966C108.565 395.31 108.565 393.593 107.772 392.402C107.188 391.525 106.335 390.847 105.738 389.992C105.197 389.208 104.709 388.387 104.165 387.6C103.62 386.813 102.945 385.899 102.578 384.947C102.416 384.393 102.336 383.817 102.342 383.24C102.283 382.378 102.23 381.52 102.177 380.658C101.785 374.127 101.555 367.596 101.362 361.084C100.974 347.994 100.694 334.889 99.3565 321.855C98.0565 309.156 96.2838 296.458 92.8038 284.155C89.4014 272.129 84.6058 260.541 79.4992 249.152C78.2386 246.345 76.9625 243.546 75.6708 240.755C75.509 240.407 75.0114 240.712 75.1607 241.066L75.198 241.047Z" fill="black"/>
<path d="M70.556 172.238C71.2681 173.516 72.0301 174.841 73.2461 175.659C74.1978 176.281 75.3454 176.567 76.3561 177.13C77.2577 177.6 77.9535 178.386 78.3092 179.338C78.6202 180.293 78.3869 181.456 77.6001 182.081C77.9676 182.495 78.2256 182.995 78.3503 183.534C78.475 184.074 78.4626 184.636 78.3141 185.169C78.1656 185.702 77.8858 186.19 77.5003 186.587C77.1148 186.984 76.6359 187.279 76.1073 187.443C76.7946 187.791 77.0403 188.687 76.8475 189.446C76.5958 190.18 76.1219 190.817 75.4915 191.268C72.4935 193.7 67.7663 193.865 64.8056 191.387C63.0515 189.919 62.0066 187.729 61.5432 185.493C61.0798 183.257 61.0767 180.946 61.0953 178.651" fill="black"/>
<path d="M70.3566 172.357C70.8286 173.417 71.4728 174.393 72.263 175.243C73.0965 176.089 74.1477 176.509 75.2144 176.975C76.222 177.417 77.2048 177.995 77.7366 179C77.9953 179.446 78.0926 179.968 78.0122 180.478C77.9318 180.987 77.6786 181.454 77.295 181.799C77.219 181.877 77.1765 181.982 77.1765 182.091C77.1765 182.2 77.219 182.305 77.295 182.384C77.6042 182.749 77.819 183.184 77.9205 183.652C78.022 184.12 78.0072 184.605 77.8773 185.066C77.7474 185.526 77.5065 185.948 77.1755 186.294C76.8446 186.639 76.4339 186.899 75.9795 187.049C75.8986 187.073 75.8266 187.12 75.772 187.185C75.7175 187.249 75.6827 187.328 75.6718 187.412C75.661 187.496 75.6746 187.581 75.7109 187.657C75.7473 187.733 75.8049 187.797 75.8768 187.842C76.6792 188.296 76.5424 189.35 76.1008 190.019C75.5824 190.713 74.9108 191.278 74.1383 191.67C72.6733 192.478 71.0047 192.841 69.3365 192.715C67.6649 192.599 66.0814 191.921 64.8425 190.793C63.4524 189.515 62.5971 187.77 62.1213 185.963C61.4993 183.587 61.518 181.087 61.4993 178.648C61.4901 178.541 61.4408 178.44 61.361 178.367C61.2812 178.293 61.1769 178.253 61.0686 178.253C60.9603 178.253 60.8559 178.293 60.7761 178.367C60.6964 178.44 60.647 178.541 60.6378 178.648C60.5414 183.102 60.6378 188.333 64.2517 191.552C67.1471 194.136 71.6939 194.251 74.9158 192.202C75.8488 191.614 76.7818 190.837 77.1706 189.779C77.5345 188.806 77.2452 187.584 76.2998 187.055L76.194 187.848C76.7961 187.666 77.3423 187.334 77.782 186.885C78.2217 186.435 78.5406 185.881 78.709 185.275C78.8775 184.669 78.8901 184.031 78.7457 183.419C78.6012 182.806 78.3044 182.241 77.8828 181.774V182.359C78.2796 181.995 78.5688 181.529 78.7185 181.011C78.8683 180.494 78.8729 179.946 78.7318 179.426C78.4581 178.316 77.5967 177.417 76.6294 176.857C75.485 176.195 74.1228 175.958 73.0716 175.125C72.0204 174.291 71.4482 173.175 70.7609 172.108C70.7295 172.055 70.6782 172.016 70.6181 172C70.558 171.984 70.4942 171.993 70.4405 172.024C70.3869 172.056 70.348 172.107 70.3322 172.167C70.3165 172.227 70.3252 172.291 70.3566 172.345V172.357Z" fill="black"/>
<path d="M36.6659 253.876C30.6294 268.695 36.3238 290.549 32.8064 306.174C31.0026 314.176 25.5321 320.912 21.0972 330.867C9.52492 356.839 10.0381 365.842 1.43581 387.836C0.736061 389.628 0.434392 391.755 1.32074 393.462C2.63005 395.997 6.07282 396.292 8.9278 396.261L16.6748 396.159C18.6839 396.131 21.1905 395.757 21.7908 393.839C22.4843 391.621 19.9434 389.78 19.3028 387.547C18.4942 384.748 19.7693 383.482 21.6197 381.243C42.4381 356.077 53.0494 334.842 59.7483 311.06C66.4473 287.278 66.7707 266.988 66.2793 242.285" fill="black"/>
<path d="M36.4359 253.813C34.4921 258.562 33.7924 263.709 33.5311 268.803C33.245 274.401 33.4814 280.027 33.6213 285.634C33.7519 291.015 33.839 296.432 33.189 301.785C32.906 304.324 32.3524 306.826 31.5376 309.249C30.6429 311.686 29.5638 314.051 28.3094 316.324C25.4793 321.636 22.4688 326.804 20.0493 332.328C17.7852 337.49 15.6953 342.725 13.8293 348.046C10.937 356.247 8.78796 364.644 6.23465 372.932C4.79368 377.605 3.19514 382.227 1.43903 386.796C0.506025 389.182 -0.321235 392.083 1.43903 394.319C2.7981 396.064 5.17103 396.496 7.26406 396.599C10.3367 396.764 13.4592 396.571 16.5381 396.521C18.4041 396.493 21.0227 396.291 21.9806 394.369C23.0846 392.152 20.9667 390.165 20.0306 388.345C19.4366 387.201 19.2033 385.807 19.6885 384.582C20.1737 383.357 21.1533 382.368 21.9775 381.373C29.7991 371.903 37.0641 361.938 43.2343 351.305C48.5782 342.105 53.0422 332.421 56.5669 322.382C60.4807 311.292 63.2729 299.838 64.9017 288.191C66.5593 276.146 66.9014 263.986 66.8174 251.841C66.7967 248.65 66.7521 245.46 66.6837 242.272C66.6837 242.168 66.6428 242.07 66.5699 241.997C66.4969 241.924 66.3981 241.883 66.295 241.883C66.1919 241.883 66.093 241.924 66.0201 241.997C65.9472 242.07 65.9062 242.168 65.9062 242.272C66.1395 254.472 66.2172 266.704 65.1785 278.873C64.1495 290.918 61.8754 302.823 58.3925 314.399C55.4389 324.285 51.5936 333.882 46.9041 343.073C41.6358 353.336 35.3007 363.027 28.3281 372.21C26.319 374.856 24.2581 377.462 22.1454 380.029C20.749 381.73 18.7057 383.565 18.6933 385.938C18.7196 387.088 19.0559 388.21 19.6667 389.185C20.2887 390.211 21.144 391.191 21.4581 392.363C22.2511 395.349 18.4072 395.747 16.3888 395.784C13.3597 395.828 10.2901 396.018 7.26406 395.856C4.87558 395.725 2.04548 395.078 1.3364 392.435C0.593105 389.679 2.2694 386.775 3.2024 384.259C4.05246 381.978 4.85795 379.676 5.61887 377.351C8.24682 369.371 10.2839 361.217 12.8621 353.221C16.3048 342.516 20.5158 331.952 25.9645 322.121C28.4338 317.658 31.1209 313.208 32.623 308.303C34.0816 303.517 34.3615 298.401 34.3957 293.425C34.4983 282.583 33.0366 271.534 34.9804 260.77C35.3907 258.431 36.0335 256.139 36.8992 253.928C37.0143 253.639 36.5509 253.517 36.4359 253.8V253.813Z" fill="black"/>
<path d="M67.2773 197.031C71.1742 197.411 74.6449 199.703 77.4843 202.399C80.3238 205.095 82.706 208.249 85.5703 210.936C85.954 211.243 86.2642 211.632 86.4785 212.074C86.5935 212.432 86.6389 212.809 86.6122 213.185C86.521 218.302 84.525 223.201 81.0142 226.925C80.4917 227.475 78.1841 230.529 77.4253 230.532C76.9059 230.532 75.4504 229.758 74.9963 229.503C70.3313 226.865 68.4933 221.961 64.1953 218.773" fill="#FFCE52"/>
<path d="M67.275 197.282C71.9058 197.845 75.672 200.965 78.782 204.242C80.505 206.065 82.1066 208.002 83.842 209.816C84.2691 210.263 84.7066 210.704 85.1544 211.137C85.5494 211.517 86.0066 211.89 86.1247 212.453C86.2025 213.029 86.2025 213.612 86.1247 214.188C86.0874 214.742 86.0283 215.295 85.9413 215.846C85.5964 218.062 84.8871 220.206 83.842 222.19C83.324 223.17 82.7281 224.106 82.06 224.989C81.5406 225.677 80.9373 226.286 80.3837 226.945C79.939 227.477 79.4973 228.015 79.0402 228.538C78.6246 229.062 78.1474 229.534 77.6189 229.944C77.5762 229.974 77.5315 230.002 77.4852 230.027L77.4199 230.062C77.3203 230.096 77.4447 230.062 77.3981 230.062L77.2457 230.027C76.8675 229.914 76.5018 229.763 76.1541 229.577C75.3558 229.191 74.5948 228.733 73.8807 228.208C70.6121 225.773 68.7709 221.948 65.692 219.317C65.2919 218.975 64.8772 218.65 64.448 218.343C63.994 218.032 63.4 218.776 63.8447 219.124C67.2657 221.783 69.3307 225.72 72.6584 228.454C73.4176 229.083 74.2375 229.635 75.106 230.102C75.4854 230.304 75.8711 230.494 76.266 230.665C76.6183 230.849 77.0025 230.964 77.3981 231.004C77.9797 231.004 78.4897 230.466 78.8691 230.09C79.4382 229.527 79.9545 228.911 80.4645 228.295C81.6339 226.868 82.8779 225.546 83.8575 223.975C85.7323 220.968 86.8141 217.534 87.0018 213.995C87.0646 213.405 87.0479 212.809 86.952 212.223C86.789 211.668 86.4641 211.174 86.019 210.805C84.125 208.995 82.3927 207.048 80.6294 205.116C77.4416 201.633 73.7407 198.066 68.9638 197.03C68.4028 196.909 67.8345 196.825 67.2626 196.778C66.936 196.75 66.9516 197.245 67.2626 197.282H67.275Z" fill="#FFCE52"/>
<path d="M57.438 194.33C54.2253 194.666 50.9785 195.023 47.94 196.127C44.9015 197.231 42.0528 199.163 40.476 201.98C39.5057 203.716 39.0641 205.688 38.6318 207.628C37.4158 213.102 36.1935 218.616 36.0536 224.22C35.9199 229.538 36.7658 234.866 36.2931 240.165C36.1963 240.773 36.2121 241.394 36.3397 241.997C36.7565 243.452 38.4016 244.121 39.8602 244.535C51.2816 247.749 63.3922 247.565 74.7109 244.006C75.5319 243.745 76.3841 243.443 76.9594 242.805C78.2221 241.4 77.5814 239.213 77.0683 237.394C76.0694 233.802 75.9025 230.029 76.58 226.363C77.2238 222.895 78.6264 219.502 78.4056 215.982C78.2936 214.141 77.74 212.362 77.1896 210.604L75.4169 204.969C74.8291 203.103 74.2009 201.15 72.8356 199.744C71.5698 198.441 69.8158 197.754 68.1177 197.104L61.2104 194.454C60.4484 194.162 59.391 193.963 58.9867 194.672" fill="#FFCE52"/>
<path d="M57.4364 194.083C52.3049 194.394 46.7691 195.209 42.723 198.664C40.8104 200.3 39.613 202.421 38.9133 204.822C38.5276 206.147 38.2508 207.506 37.9554 208.865C37.6444 210.324 37.3147 211.782 37.0224 213.247C36.4353 216.101 36.0199 218.987 35.7784 221.89C35.6047 224.848 35.6224 227.813 35.8313 230.769C35.9868 233.723 36.1578 236.678 35.9401 239.648C35.8499 240.892 35.6664 242.111 36.4999 243.147C37.1468 243.949 38.1327 244.391 39.0905 244.727C41.6781 245.552 44.3327 246.15 47.0241 246.515C49.7721 246.936 52.5452 247.173 55.3247 247.224C60.8825 247.326 66.4281 246.668 71.8077 245.268C73.1114 244.959 74.3951 244.572 75.6517 244.108C76.7122 243.685 77.5985 242.997 77.9375 241.868C78.2765 240.74 78.0526 239.589 77.7883 238.51C77.4773 237.222 77.0947 235.966 76.8832 234.653C76.4246 231.801 76.4836 228.889 77.0574 226.057C77.6079 223.358 78.5409 220.736 78.7866 217.971C79.0416 215.091 78.1832 212.401 77.3342 209.689L75.9907 205.385C75.6387 204.146 75.2023 202.932 74.6845 201.753C74.1871 200.641 73.4425 199.657 72.5075 198.876C71.5383 198.149 70.4701 197.565 69.3353 197.14C68.0073 196.596 66.6576 196.102 65.3172 195.585C63.9768 195.069 62.6021 194.491 61.2213 194.012C60.3567 193.701 59.2589 193.614 58.7022 194.488C58.4378 194.898 59.0941 195.278 59.3553 194.87C59.6165 194.463 60.1794 194.584 60.5558 194.671C61.1485 194.839 61.7293 195.047 62.2942 195.293L66.2533 196.808C68.5111 197.669 71.1577 198.391 72.8091 200.269C73.563 201.191 74.1378 202.246 74.5041 203.379C74.9582 204.623 75.3251 205.904 75.7232 207.167C76.1524 208.542 76.5847 209.91 77.0108 211.285C77.4373 212.556 77.7557 213.86 77.9624 215.185C78.317 217.859 77.6514 220.487 76.9797 223.059C76.3048 225.69 75.7885 228.315 75.8134 231.046C75.8274 232.376 75.9459 233.703 76.168 235.014C76.3794 236.274 76.7464 237.486 77.0512 238.724C77.3 239.741 77.5395 240.923 77.1103 241.928C76.6313 243.038 75.4278 243.402 74.3673 243.731C64.1423 246.877 53.2701 247.278 42.8412 244.895C41.6195 244.637 40.413 244.312 39.2274 243.921C38.3317 243.61 37.3303 243.134 36.8887 242.242C36.6119 241.691 36.6523 241.063 36.7021 240.466C36.7611 239.766 36.814 239.066 36.842 238.367C36.8949 236.948 36.8731 235.533 36.8202 234.118C36.7145 231.304 36.4844 228.495 36.4688 225.681C36.471 222.863 36.6966 220.05 37.1437 217.268C37.5791 214.469 38.17 211.698 38.7826 208.934C39.3331 206.446 39.781 203.808 41.1929 201.628C43.9048 197.439 49.0114 195.875 53.6764 195.141C54.9609 194.942 56.2515 194.78 57.5391 194.587C57.8127 194.547 57.7505 194.083 57.4706 194.102L57.4364 194.083Z" fill="#FFA352"/>
<path d="M69.366 245.114L27.5392 224.233C26.3267 223.627 24.853 224.12 24.2477 225.332L5.14438 263.597C4.53906 264.81 5.03127 266.283 6.24376 266.889L48.0706 287.77C49.2831 288.376 50.7567 287.883 51.362 286.671L70.4654 248.406C71.0707 247.193 70.5785 245.719 69.366 245.114Z" fill="white"/>
<path d="M48.2409 287.47L44.1264 285.418L34.2335 280.479L22.2351 274.483L11.8166 269.286C10.0532 268.406 8.28987 267.532 6.52961 266.646C6.25687 266.523 6.01226 266.346 5.81102 266.125C5.60978 265.904 5.45624 265.644 5.35995 265.361C5.26367 265.078 5.22671 264.778 5.25137 264.48C5.27604 264.182 5.3618 263.892 5.50331 263.629L6.45808 261.716L10.8805 252.869L16.7895 241.007L22.0765 230.452C22.8944 228.81 23.6875 227.152 24.5334 225.525C24.781 225.021 25.2166 224.635 25.7465 224.449C26.2764 224.262 26.8582 224.292 27.3666 224.53L27.6776 224.679L29.836 225.759L38.6466 230.156L50.4428 236.047L61.6233 241.626L68.487 245.047C69.2801 245.445 70.0607 245.796 70.3188 246.764C70.5552 247.644 70.1167 248.347 69.7466 249.09L66.0457 256.501L60.2797 268.052L54.6382 279.35L51.3012 286.037L51.0866 286.466C50.8401 286.97 50.4053 287.358 49.8759 287.544C49.3465 287.731 48.7649 287.702 48.2565 287.464C47.8553 287.274 47.5039 287.872 47.9051 288.061C48.5688 288.388 49.3337 288.443 50.0371 288.214C50.7405 287.985 51.3268 287.491 51.6713 286.836C51.7304 286.724 51.7863 286.609 51.8423 286.494L53.0272 284.124L57.7886 274.583L63.8314 262.485L68.8851 252.331L70.3468 249.401C70.748 248.595 71.1741 247.846 71.0279 246.885C70.9552 246.437 70.7761 246.012 70.5055 245.648C70.2349 245.283 69.8808 244.988 69.4729 244.789L68.9504 244.528L66.4002 243.256L56.9552 238.538L44.8728 232.507L33.9598 227.052L27.9855 224.07C27.8362 223.995 27.6745 223.918 27.5283 223.852C26.8761 223.581 26.1459 223.565 25.4824 223.807C24.8189 224.049 24.2704 224.531 23.9456 225.158C23.7186 225.588 23.5102 226.026 23.2925 226.462L19.1873 234.687L13.2503 246.577L7.73629 257.621C6.80329 259.518 5.83608 261.409 4.89686 263.309C4.71584 263.645 4.60389 264.013 4.56763 264.393C4.53136 264.773 4.57151 265.156 4.68572 265.52C4.79992 265.884 4.98586 266.222 5.23257 266.513C5.47928 266.804 5.78177 267.043 6.1222 267.215L7.72074 268.011L15.9529 272.123L27.7429 278.007L39.2966 283.782L46.8352 287.545L47.8895 288.074C48.2876 288.267 48.639 287.669 48.2409 287.47Z" fill="black"/>
<path d="M38.3398 243.324L43.8172 232.353L53.0802 236.977L47.6029 247.949L38.3398 243.324Z" fill="black"/>
<path d="M250.27 132.359H203.52C202.165 132.359 201.066 133.458 201.066 134.813V177.582C201.066 178.937 202.165 180.036 203.52 180.036H250.27C251.625 180.036 252.723 178.937 252.723 177.582V134.813C252.723 133.458 251.625 132.359 250.27 132.359Z" fill="black"/>
<path d="M250.272 179.692H209.562C207.593 179.692 205.625 179.692 203.653 179.692C203.354 179.701 203.057 179.649 202.779 179.538C202.501 179.427 202.25 179.26 202.039 179.048C201.829 178.835 201.664 178.582 201.556 178.303C201.448 178.025 201.399 177.727 201.411 177.428V140.344C201.411 138.509 201.383 136.674 201.411 134.84C201.412 134.278 201.635 133.739 202.03 133.34C202.425 132.941 202.961 132.713 203.522 132.706H249.473C250.359 132.706 251.211 132.678 251.867 133.437C252.461 134.118 252.381 134.955 252.381 135.785V177.076V177.558C252.38 178.12 252.158 178.658 251.764 179.057C251.369 179.457 250.833 179.685 250.272 179.692C250.18 179.692 250.093 179.728 250.028 179.793C249.963 179.858 249.927 179.946 249.927 180.037C249.927 180.129 249.963 180.217 250.028 180.281C250.093 180.346 250.18 180.382 250.272 180.382C251.011 180.371 251.716 180.073 252.239 179.55C252.761 179.028 253.06 178.322 253.071 177.583V135.748C253.071 134.843 253.111 133.975 252.536 133.188C252.27 132.823 251.92 132.527 251.517 132.323C251.114 132.119 250.668 132.014 250.216 132.016H203.833C203.656 132.016 203.482 132.016 203.305 132.016C202.604 132.078 201.951 132.399 201.474 132.917C200.997 133.434 200.729 134.111 200.723 134.815V136.27V171.102V177.459C200.714 177.84 200.782 178.22 200.922 178.575C201.062 178.93 201.271 179.253 201.538 179.525C201.805 179.798 202.124 180.014 202.476 180.161C202.828 180.309 203.206 180.384 203.588 180.382H205.373H250.272C250.364 180.382 250.451 180.346 250.516 180.281C250.581 180.217 250.617 180.129 250.617 180.037C250.617 179.946 250.581 179.858 250.516 179.793C250.451 179.728 250.364 179.692 250.272 179.692Z" fill="black"/>
<path d="M214.543 132.359H224.896V144.622H214.543V132.359Z" fill="black"/>
<path d="M228.821 132.359H182.071C180.716 132.359 179.617 133.458 179.617 134.813V177.582C179.617 178.937 180.716 180.036 182.071 180.036H228.821C230.176 180.036 231.274 178.937 231.274 177.582V134.813C231.274 133.458 230.176 132.359 228.821 132.359Z" fill="white"/>
<path d="M228.819 179.692H188.106C186.14 179.692 184.172 179.692 182.197 179.692C181.898 179.701 181.601 179.649 181.323 179.538C181.045 179.427 180.793 179.26 180.583 179.048C180.373 178.836 180.208 178.582 180.1 178.303C179.992 178.025 179.943 177.727 179.955 177.428C179.955 176.716 179.955 176.004 179.955 175.288V140.344C179.955 138.509 179.924 136.674 179.955 134.84C179.955 134.278 180.177 133.74 180.572 133.341C180.966 132.941 181.502 132.713 182.063 132.706H228.017C228.903 132.706 229.755 132.678 230.414 133.437C231.008 134.118 230.928 134.955 230.928 135.785V177.076V177.559C230.927 178.12 230.705 178.658 230.311 179.057C229.916 179.457 229.38 179.685 228.819 179.692C228.727 179.692 228.64 179.728 228.575 179.793C228.51 179.858 228.474 179.946 228.474 180.037C228.474 180.129 228.51 180.217 228.575 180.281C228.64 180.346 228.727 180.382 228.819 180.382C229.558 180.372 230.264 180.074 230.787 179.551C231.309 179.028 231.607 178.322 231.618 177.583C231.618 177.456 231.618 177.328 231.618 177.201V135.748C231.618 134.843 231.658 133.975 231.086 133.188C230.819 132.823 230.47 132.526 230.066 132.322C229.662 132.118 229.215 132.013 228.763 132.016H182.377C182.203 132.016 182.026 132.016 181.852 132.016C181.15 132.078 180.497 132.399 180.02 132.916C179.543 133.434 179.275 134.111 179.27 134.815V136.27V171.102V177.459C179.261 177.841 179.328 178.22 179.468 178.575C179.608 178.93 179.817 179.254 180.084 179.526C180.351 179.799 180.671 180.015 181.023 180.162C181.375 180.309 181.753 180.384 182.135 180.382H183.92H228.819C228.911 180.382 228.998 180.346 229.063 180.281C229.128 180.217 229.164 180.129 229.164 180.037C229.164 179.946 229.128 179.858 229.063 179.793C228.998 179.728 228.911 179.692 228.819 179.692Z" fill="black"/>
<path d="M200.266 132.359H210.619V144.622H200.266V132.359Z" fill="black"/>
<path d="M262.731 351.137H225.028C223.673 351.137 222.574 352.235 222.574 353.591V388.009C222.574 389.364 223.673 390.463 225.028 390.463H262.731C264.086 390.463 265.184 389.364 265.184 388.009V353.591C265.184 352.235 264.086 351.137 262.731 351.137Z" fill="black"/>
<path d="M262.73 390.111H229.692C228.159 390.111 226.629 390.111 225.095 390.111C224.805 390.114 224.517 390.058 224.249 389.947C223.98 389.836 223.737 389.672 223.534 389.465C223.33 389.257 223.171 389.011 223.065 388.741C222.96 388.47 222.91 388.181 222.918 387.891V357.798C222.918 356.399 222.894 354.999 222.918 353.593C222.925 353.036 223.15 352.503 223.544 352.109C223.939 351.714 224.472 351.491 225.03 351.485H262.17C263.028 351.485 263.852 351.566 264.425 352.337C264.879 352.959 264.838 353.637 264.838 354.346V387.999C264.832 388.557 264.608 389.09 264.214 389.484C263.82 389.879 263.287 390.104 262.73 390.111C262.638 390.111 262.55 390.147 262.485 390.212C262.421 390.277 262.384 390.365 262.384 390.456C262.384 390.548 262.421 390.636 262.485 390.7C262.55 390.765 262.638 390.802 262.73 390.802C264.406 390.764 265.529 389.421 265.529 387.803V354.315C265.529 353.547 265.544 352.807 265.112 352.116C264.856 351.711 264.502 351.377 264.083 351.144C263.664 350.911 263.193 350.788 262.714 350.785H225.282C225.161 350.785 225.039 350.785 224.918 350.785C224.296 350.814 223.701 351.048 223.225 351.45C222.749 351.852 222.419 352.4 222.287 353.009C222.218 353.524 222.199 354.045 222.228 354.564V382.722V387.919C222.222 388.294 222.291 388.666 222.429 389.015C222.568 389.364 222.774 389.681 223.036 389.95C223.298 390.219 223.61 390.433 223.955 390.581C224.3 390.729 224.671 390.807 225.046 390.811H226.324H262.73C262.822 390.811 262.911 390.774 262.977 390.708C263.043 390.643 263.079 390.554 263.079 390.461C263.079 390.368 263.043 390.279 262.977 390.214C262.911 390.148 262.822 390.111 262.73 390.111Z" fill="black"/>
<path d="M233.688 351.137H242.228V361.25H233.688V351.137Z" fill="black"/>
<path d="M245.035 351.137H207.333C205.977 351.137 204.879 352.235 204.879 353.591V388.009C204.879 389.364 205.977 390.463 207.333 390.463H245.035C246.39 390.463 247.489 389.364 247.489 388.009V353.591C247.489 352.235 246.39 351.137 245.035 351.137Z" fill="white"/>
<path d="M245.035 390.111H211.998C210.464 390.111 208.934 390.111 207.401 390.111C207.111 390.114 206.823 390.058 206.554 389.947C206.286 389.836 206.043 389.672 205.839 389.465C205.636 389.257 205.477 389.011 205.371 388.741C205.265 388.47 205.215 388.181 205.224 387.891V357.798C205.224 356.399 205.199 354.999 205.224 353.593C205.23 353.036 205.455 352.503 205.85 352.109C206.245 351.714 206.778 351.491 207.336 351.485H244.475C245.334 351.485 246.158 351.566 246.73 352.337C247.184 352.959 247.144 353.637 247.144 354.346V387.999C247.137 388.557 246.913 389.09 246.519 389.484C246.125 389.879 245.593 390.104 245.035 390.111C244.944 390.111 244.856 390.147 244.791 390.212C244.726 390.277 244.69 390.365 244.69 390.456C244.69 390.548 244.726 390.636 244.791 390.7C244.856 390.765 244.944 390.802 245.035 390.802C246.711 390.764 247.834 389.421 247.834 387.803V354.315C247.834 353.547 247.85 352.807 247.417 352.116C247.162 351.711 246.808 351.377 246.389 351.144C245.97 350.911 245.499 350.788 245.02 350.785H207.591C207.469 350.785 207.348 350.785 207.227 350.785C206.605 350.814 206.01 351.048 205.535 351.45C205.06 351.852 204.731 352.4 204.599 353.009C204.528 353.524 204.507 354.045 204.537 354.564V382.722V387.919C204.531 388.294 204.599 388.666 204.738 389.015C204.877 389.364 205.083 389.681 205.345 389.95C205.606 390.219 205.919 390.433 206.264 390.581C206.608 390.729 206.979 390.807 207.354 390.811H208.633H245.035C245.128 390.811 245.217 390.774 245.283 390.708C245.348 390.643 245.385 390.554 245.385 390.461C245.385 390.368 245.348 390.279 245.283 390.214C245.217 390.148 245.128 390.111 245.035 390.111Z" fill="black"/>
<path d="M221.91 351.137H230.45V361.25H221.91V351.137Z" fill="black"/>
<path d="M214.07 351.137H176.368C175.013 351.137 173.914 352.235 173.914 353.591V388.009C173.914 389.364 175.013 390.463 176.368 390.463H214.07C215.426 390.463 216.524 389.364 216.524 388.009V353.591C216.524 352.235 215.426 351.137 214.07 351.137Z" fill="black"/>
<path d="M214.067 390.111H181.033C179.5 390.111 177.97 390.111 176.436 390.111C176.146 390.114 175.858 390.058 175.589 389.947C175.321 389.836 175.078 389.672 174.875 389.465C174.671 389.257 174.512 389.011 174.406 388.741C174.3 388.47 174.25 388.181 174.259 387.891C174.259 387.315 174.259 386.74 174.259 386.165V357.798C174.259 356.399 174.234 354.999 174.259 353.593C174.266 353.036 174.49 352.504 174.884 352.11C175.278 351.716 175.811 351.491 176.368 351.485H213.498C214.36 351.485 215.184 351.566 215.756 352.337C216.21 352.959 216.17 353.637 216.17 354.346V387.999C216.162 388.557 215.938 389.09 215.543 389.485C215.149 389.879 214.616 390.104 214.058 390.111C213.966 390.111 213.879 390.147 213.814 390.212C213.749 390.277 213.713 390.365 213.713 390.456C213.713 390.548 213.749 390.636 213.814 390.7C213.879 390.765 213.966 390.802 214.058 390.802C215.737 390.764 216.857 389.421 216.857 387.803V354.315C216.857 353.547 216.857 352.807 216.44 352.116C216.184 351.711 215.831 351.377 215.412 351.144C214.993 350.911 214.522 350.788 214.042 350.785H176.623C176.502 350.785 176.38 350.785 176.259 350.785C175.637 350.814 175.041 351.048 174.566 351.45C174.09 351.852 173.76 352.4 173.628 353.009C173.558 353.524 173.538 354.045 173.569 354.564V382.722V387.919C173.563 388.294 173.632 388.666 173.77 389.015C173.909 389.364 174.115 389.681 174.377 389.95C174.639 390.219 174.951 390.433 175.296 390.581C175.641 390.729 176.011 390.807 176.387 390.811H177.665H214.067C214.16 390.811 214.249 390.774 214.315 390.708C214.38 390.643 214.417 390.554 214.417 390.461C214.417 390.368 214.38 390.279 214.315 390.214C214.249 390.148 214.16 390.111 214.067 390.111Z" fill="black"/>
<path d="M185.031 351.137H193.571V361.25H185.031V351.137Z" fill="black"/>
<path d="M196.375 351.137H158.673C157.317 351.137 156.219 352.235 156.219 353.591V388.009C156.219 389.364 157.317 390.463 158.673 390.463H196.375C197.73 390.463 198.829 389.364 198.829 388.009V353.591C198.829 352.235 197.73 351.137 196.375 351.137Z" fill="white"/>
<path d="M196.374 390.111H163.337C161.803 390.111 160.273 390.111 158.74 390.111C158.45 390.114 158.161 390.058 157.893 389.947C157.625 389.836 157.382 389.672 157.178 389.465C156.975 389.257 156.816 389.011 156.71 388.741C156.604 388.47 156.554 388.181 156.563 387.891V357.798C156.563 356.399 156.538 354.999 156.563 353.593C156.569 353.036 156.794 352.503 157.189 352.109C157.584 351.714 158.117 351.491 158.675 351.485H195.811C196.673 351.485 197.497 351.566 198.069 352.337C198.523 352.959 198.483 353.637 198.483 354.346V387.999C198.476 388.557 198.252 389.09 197.858 389.484C197.464 389.879 196.932 390.104 196.374 390.111C196.283 390.111 196.195 390.147 196.13 390.212C196.065 390.277 196.029 390.365 196.029 390.456C196.029 390.548 196.065 390.636 196.13 390.7C196.195 390.765 196.283 390.802 196.374 390.802C198.05 390.764 199.173 389.421 199.173 387.803V354.315C199.173 353.547 199.173 352.807 198.756 352.116C198.501 351.711 198.147 351.377 197.728 351.144C197.309 350.911 196.838 350.788 196.359 350.785H158.927C158.805 350.785 158.684 350.785 158.563 350.785C157.94 350.814 157.345 351.048 156.869 351.45C156.394 351.852 156.064 352.4 155.932 353.009C155.863 353.524 155.843 354.045 155.873 354.564V382.722V387.919C155.867 388.294 155.935 388.666 156.074 389.015C156.212 389.364 156.419 389.681 156.68 389.95C156.942 390.219 157.255 390.433 157.599 390.581C157.944 390.729 158.315 390.807 158.69 390.811H159.968H196.374C196.467 390.811 196.556 390.774 196.621 390.708C196.687 390.643 196.724 390.554 196.724 390.461C196.724 390.368 196.687 390.279 196.621 390.214C196.556 390.148 196.467 390.111 196.374 390.111Z" fill="black"/>
<path d="M173.254 351.137H181.794V361.25H173.254V351.137Z" fill="black"/>
<path d="M250.625 270.148H229.704C228.349 270.148 227.25 271.247 227.25 272.602V317.974C227.25 319.329 228.349 320.428 229.704 320.428H250.625C251.98 320.428 253.079 319.329 253.079 317.974V272.602C253.079 271.247 251.98 270.148 250.625 270.148Z" fill="black"/>
<path d="M250.628 320.082H235.644C233.681 320.082 231.716 320.107 229.754 320.082C229.466 320.083 229.181 320.026 228.915 319.915C228.65 319.803 228.41 319.64 228.209 319.434C228.008 319.228 227.85 318.984 227.745 318.716C227.64 318.448 227.59 318.161 227.598 317.874C227.598 317.469 227.598 317.068 227.598 316.664V275.363C227.598 274.43 227.583 273.522 227.598 272.604C227.605 272.047 227.829 271.514 228.223 271.12C228.617 270.725 229.149 270.5 229.707 270.493H250.591C251.005 270.491 251.411 270.609 251.76 270.833C252.11 271.056 252.387 271.375 252.559 271.752C252.719 272.205 252.779 272.686 252.736 273.164V317.79C252.736 319.034 251.915 320.054 250.628 320.082C250.542 320.09 250.461 320.13 250.403 320.194C250.345 320.258 250.312 320.342 250.312 320.429C250.312 320.515 250.345 320.599 250.403 320.663C250.461 320.727 250.542 320.767 250.628 320.775C251.384 320.761 252.103 320.448 252.628 319.904C253.153 319.36 253.44 318.63 253.427 317.874C253.427 317.457 253.427 317.037 253.427 316.63V274.869C253.427 273.712 253.648 272.154 253.01 271.137C252.755 270.733 252.402 270.399 251.984 270.167C251.566 269.935 251.097 269.812 250.619 269.809H230.093C229.931 269.809 229.782 269.809 229.61 269.809C229.042 269.836 228.495 270.034 228.04 270.376C227.586 270.718 227.244 271.189 227.06 271.727C226.935 272.2 226.887 272.689 226.92 273.177V314.394V317.92C226.917 318.669 227.209 319.389 227.733 319.923C228.257 320.458 228.971 320.764 229.719 320.775H231.511H250.628C250.714 320.767 250.794 320.727 250.853 320.663C250.911 320.599 250.943 320.515 250.943 320.429C250.943 320.342 250.911 320.258 250.853 320.194C250.794 320.13 250.714 320.09 250.628 320.082Z" fill="black"/>
<path d="M233.988 270.148H239.166V276.278H233.988V270.148Z" fill="black"/>
<path d="M239.898 270.148H218.977C217.622 270.148 216.523 271.247 216.523 272.602V317.974C216.523 319.329 217.622 320.428 218.977 320.428H239.898C241.253 320.428 242.352 319.329 242.352 317.974V272.602C242.352 271.247 241.253 270.148 239.898 270.148Z" fill="white"/>
<path d="M239.901 320.082H224.917C222.955 320.082 220.989 320.107 219.027 320.082C218.739 320.083 218.454 320.026 218.189 319.915C217.923 319.803 217.683 319.64 217.482 319.434C217.281 319.228 217.123 318.984 217.019 318.716C216.914 318.448 216.864 318.161 216.872 317.874C216.872 317.469 216.872 317.068 216.872 316.664V275.363C216.872 274.43 216.856 273.522 216.872 272.604C216.878 272.047 217.102 271.514 217.496 271.12C217.89 270.725 218.423 270.5 218.98 270.493H239.861C240.276 270.491 240.683 270.608 241.033 270.832C241.382 271.055 241.66 271.375 241.833 271.752C241.992 272.205 242.053 272.686 242.01 273.164V317.79C242.01 319.034 241.189 320.054 239.901 320.082C239.815 320.09 239.735 320.13 239.677 320.194C239.618 320.258 239.586 320.342 239.586 320.429C239.586 320.515 239.618 320.599 239.677 320.663C239.735 320.727 239.815 320.767 239.901 320.775C240.657 320.761 241.377 320.448 241.901 319.904C242.426 319.36 242.714 318.63 242.7 317.874C242.7 317.457 242.7 317.037 242.7 316.63V274.869C242.7 273.712 242.921 272.154 242.284 271.137C242.028 270.733 241.675 270.399 241.257 270.167C240.839 269.935 240.37 269.812 239.892 269.809H219.366C219.204 269.809 219.055 269.809 218.884 269.809C218.315 269.836 217.768 270.033 217.313 270.375C216.859 270.718 216.517 271.189 216.334 271.727C216.208 272.2 216.161 272.689 216.194 273.177V314.394V317.92C216.19 318.669 216.482 319.389 217.007 319.923C217.531 320.458 218.244 320.764 218.993 320.775H220.781H239.901C239.988 320.767 240.068 320.727 240.126 320.663C240.184 320.599 240.217 320.515 240.217 320.429C240.217 320.342 240.184 320.258 240.126 320.194C240.068 320.13 239.988 320.09 239.901 320.082Z" fill="black"/>
<path d="M226.852 270.148H232.03V276.278H226.852V270.148Z" fill="black"/>
<path d="M221.269 270.148H200.348C198.993 270.148 197.895 271.247 197.895 272.602V317.974C197.895 319.329 198.993 320.428 200.348 320.428H221.269C222.624 320.428 223.723 319.329 223.723 317.974V272.602C223.723 271.247 222.624 270.148 221.269 270.148Z" fill="black"/>
<path d="M221.275 320.082H206.285C204.322 320.082 202.357 320.107 200.394 320.082C200.106 320.083 199.821 320.026 199.556 319.915C199.291 319.803 199.05 319.64 198.849 319.434C198.648 319.228 198.491 318.984 198.386 318.716C198.281 318.448 198.231 318.161 198.239 317.874V275.363C198.239 274.43 198.239 273.522 198.239 272.604C198.246 272.047 198.471 271.515 198.864 271.12C199.258 270.726 199.79 270.501 200.348 270.493H221.231C221.646 270.491 222.052 270.609 222.401 270.833C222.75 271.056 223.028 271.375 223.2 271.752C223.359 272.205 223.42 272.686 223.377 273.164V317.79C223.377 319.034 222.559 320.054 221.268 320.082C221.182 320.09 221.102 320.13 221.044 320.194C220.985 320.258 220.953 320.342 220.953 320.429C220.953 320.515 220.985 320.599 221.044 320.663C221.102 320.727 221.182 320.767 221.268 320.775C221.643 320.769 222.012 320.689 222.356 320.539C222.699 320.39 223.01 320.174 223.27 319.905C223.53 319.635 223.734 319.317 223.871 318.969C224.008 318.62 224.074 318.248 224.067 317.874C224.067 317.457 224.067 317.037 224.067 316.63V274.869C224.067 273.712 224.288 272.154 223.651 271.137C223.395 270.733 223.042 270.399 222.625 270.167C222.207 269.935 221.737 269.812 221.259 269.809H200.733C200.575 269.809 200.422 269.809 200.251 269.809C199.683 269.836 199.136 270.034 198.681 270.376C198.226 270.718 197.885 271.189 197.701 271.727C197.575 272.2 197.528 272.689 197.561 273.177V314.394V317.92C197.558 318.669 197.851 319.388 198.375 319.922C198.898 320.457 199.612 320.763 200.36 320.775H202.148H221.275C221.361 320.767 221.441 320.727 221.5 320.663C221.558 320.599 221.59 320.515 221.59 320.429C221.59 320.342 221.558 320.258 221.5 320.194C221.441 320.13 221.361 320.09 221.275 320.082Z" fill="black"/>
<path d="M204.629 270.148H209.807V276.278H204.629V270.148Z" fill="black"/>
<path d="M210.543 270.148H189.622C188.267 270.148 187.168 271.247 187.168 272.602V317.974C187.168 319.329 188.267 320.428 189.622 320.428H210.543C211.898 320.428 212.997 319.329 212.997 317.974V272.602C212.997 271.247 211.898 270.148 210.543 270.148Z" fill="white"/>
<path d="M210.542 320.082H195.558C193.596 320.082 191.63 320.107 189.668 320.082C189.38 320.083 189.095 320.026 188.829 319.915C188.564 319.803 188.324 319.64 188.123 319.434C187.922 319.228 187.764 318.984 187.659 318.716C187.554 318.448 187.504 318.161 187.512 317.874C187.512 317.469 187.512 317.068 187.512 316.664V275.363C187.512 274.43 187.497 273.522 187.512 272.604C187.519 272.047 187.743 271.514 188.137 271.12C188.531 270.725 189.063 270.5 189.621 270.493H210.505C210.919 270.491 211.325 270.609 211.674 270.833C212.024 271.056 212.301 271.375 212.473 271.752C212.633 272.205 212.693 272.686 212.651 273.164V317.79C212.651 319.034 211.829 320.054 210.542 320.082C210.456 320.09 210.375 320.13 210.317 320.194C210.259 320.258 210.226 320.342 210.226 320.429C210.226 320.515 210.259 320.599 210.317 320.663C210.375 320.727 210.456 320.767 210.542 320.775C211.298 320.761 212.017 320.448 212.542 319.904C213.067 319.36 213.354 318.63 213.341 317.874C213.341 317.457 213.341 317.037 213.341 316.63V274.869C213.341 273.712 213.562 272.154 212.924 271.137C212.669 270.733 212.316 270.399 211.898 270.167C211.48 269.935 211.011 269.812 210.533 269.809H190.007C189.845 269.809 189.696 269.809 189.525 269.809C188.956 269.836 188.409 270.034 187.954 270.376C187.5 270.718 187.158 271.189 186.974 271.727C186.849 272.2 186.801 272.689 186.834 273.177V314.394V317.92C186.831 318.669 187.123 319.389 187.647 319.923C188.171 320.458 188.885 320.764 189.633 320.775H191.425H210.542C210.628 320.767 210.708 320.727 210.767 320.663C210.825 320.599 210.857 320.515 210.857 320.429C210.857 320.342 210.825 320.258 210.767 320.194C210.708 320.13 210.628 320.09 210.542 320.082Z" fill="black"/>
<path d="M197.492 270.148H202.67V276.278H197.492V270.148Z" fill="black"/>
<path d="M191.91 270.148H170.989C169.634 270.148 168.535 271.247 168.535 272.602V317.974C168.535 319.329 169.634 320.428 170.989 320.428H191.91C193.265 320.428 194.364 319.329 194.364 317.974V272.602C194.364 271.247 193.265 270.148 191.91 270.148Z" fill="black"/>
<path d="M191.909 320.082H176.925C174.963 320.082 172.997 320.107 171.035 320.082C170.747 320.083 170.462 320.026 170.197 319.915C169.931 319.803 169.691 319.64 169.49 319.434C169.289 319.228 169.131 318.984 169.026 318.716C168.922 318.448 168.872 318.161 168.88 317.874V275.363C168.88 274.43 168.88 273.522 168.88 272.604C168.887 272.047 169.111 271.515 169.505 271.12C169.899 270.726 170.431 270.501 170.988 270.493H191.872C192.287 270.49 192.693 270.608 193.042 270.832C193.392 271.055 193.669 271.375 193.84 271.752C194 272.205 194.06 272.686 194.018 273.164V317.79C194.018 319.034 193.2 320.054 191.909 320.082C191.823 320.09 191.743 320.13 191.684 320.194C191.626 320.258 191.594 320.342 191.594 320.429C191.594 320.515 191.626 320.599 191.684 320.663C191.743 320.727 191.823 320.767 191.909 320.775C192.284 320.769 192.653 320.689 192.996 320.539C193.34 320.39 193.65 320.174 193.91 319.905C194.17 319.635 194.374 319.317 194.511 318.969C194.648 318.62 194.715 318.248 194.708 317.874C194.708 317.457 194.708 317.037 194.708 316.63V274.869C194.708 273.712 194.929 272.154 194.291 271.137C194.036 270.733 193.683 270.399 193.265 270.167C192.847 269.935 192.378 269.812 191.9 269.809H171.374C171.215 269.809 171.063 269.809 170.892 269.809C170.323 269.836 169.776 270.034 169.322 270.376C168.867 270.718 168.525 271.189 168.342 271.727C168.216 272.2 168.169 272.689 168.202 273.177V314.394V317.92C168.199 318.671 168.494 319.393 169.021 319.928C169.548 320.462 170.265 320.767 171.016 320.775H172.804H191.922C192.008 320.766 192.087 320.724 192.145 320.659C192.202 320.594 192.233 320.51 192.231 320.423C192.23 320.336 192.196 320.253 192.136 320.19C192.077 320.127 191.996 320.088 191.909 320.082Z" fill="black"/>
<path d="M175.273 270.148H180.452V276.278H175.273V270.148Z" fill="black"/>
<path d="M181.183 270.148H160.262C158.907 270.148 157.809 271.247 157.809 272.602V317.974C157.809 319.329 158.907 320.428 160.262 320.428H181.183C182.539 320.428 183.637 319.329 183.637 317.974V272.602C183.637 271.247 182.539 270.148 181.183 270.148Z" fill="white"/>
<path d="M181.182 320.082H166.198C164.235 320.082 162.27 320.107 160.307 320.082C160.02 320.083 159.735 320.026 159.469 319.915C159.204 319.803 158.963 319.64 158.762 319.434C158.561 319.228 158.404 318.984 158.299 318.716C158.194 318.448 158.144 318.161 158.152 317.874V275.363C158.152 274.43 158.152 273.522 158.152 272.604C158.159 272.047 158.384 271.515 158.778 271.12C159.171 270.726 159.703 270.501 160.261 270.493H181.154C181.568 270.491 181.974 270.609 182.324 270.833C182.673 271.056 182.95 271.375 183.122 271.752C183.282 272.205 183.342 272.686 183.3 273.164V317.79C183.3 319.034 182.482 320.054 181.191 320.082C181.105 320.09 181.025 320.13 180.966 320.194C180.908 320.258 180.876 320.342 180.876 320.429C180.876 320.515 180.908 320.599 180.966 320.663C181.025 320.727 181.105 320.767 181.191 320.775C181.565 320.769 181.935 320.689 182.278 320.539C182.622 320.39 182.932 320.174 183.192 319.905C183.452 319.635 183.656 319.317 183.793 318.969C183.93 318.62 183.997 318.248 183.99 317.874C183.99 317.457 183.99 317.037 183.99 316.63V274.869C183.99 273.712 184.211 272.154 183.573 271.137C183.318 270.733 182.965 270.399 182.547 270.167C182.129 269.935 181.66 269.812 181.182 269.809H160.628C160.469 269.809 160.317 269.809 160.146 269.809C159.577 269.836 159.03 270.034 158.575 270.376C158.121 270.718 157.779 271.189 157.595 271.727C157.47 272.2 157.423 272.689 157.456 273.177V314.394V317.92C157.453 318.669 157.745 319.388 158.269 319.922C158.793 320.457 159.506 320.763 160.255 320.775H162.043H181.16C181.247 320.77 181.329 320.733 181.389 320.671C181.45 320.608 181.485 320.525 181.488 320.438C181.491 320.351 181.461 320.267 181.404 320.201C181.347 320.135 181.268 320.092 181.182 320.082Z" fill="black"/>
<path d="M168.133 270.148H173.311V276.278H168.133V270.148Z" fill="black"/>
<path d="M230.959 199.699H181.364C180.009 199.699 178.91 200.798 178.91 202.153V247.547C178.91 248.902 180.009 250 181.364 250H230.959C232.314 250 233.413 248.902 233.413 247.547V202.153C233.413 200.798 232.314 199.699 230.959 199.699Z" fill="black"/>
<path d="M230.954 249.657H181.505C181.204 249.669 180.904 249.619 180.624 249.51C180.344 249.4 180.089 249.234 179.876 249.021C179.664 248.808 179.497 248.554 179.388 248.274C179.278 247.993 179.228 247.693 179.241 247.393V208.064C179.241 206.105 179.209 204.145 179.241 202.186C179.24 201.624 179.461 201.083 179.855 200.683C180.25 200.282 180.787 200.054 181.349 200.046H230.067C230.944 200.046 231.8 199.99 232.481 200.699C233.162 201.408 233.062 202.295 233.062 203.172V246.979V247.514C233.064 248.077 232.843 248.618 232.448 249.019C232.054 249.42 231.516 249.65 230.954 249.657C230.862 249.657 230.774 249.693 230.709 249.758C230.645 249.823 230.608 249.911 230.608 250.002C230.608 250.094 230.645 250.182 230.709 250.246C230.774 250.311 230.862 250.347 230.954 250.347C231.693 250.337 232.399 250.039 232.921 249.516C233.444 248.993 233.742 248.287 233.753 247.548C233.753 247.402 233.753 247.256 233.753 247.107V203.097C233.753 202.164 233.79 201.253 233.165 200.444C232.892 200.099 232.543 199.821 232.146 199.632C231.748 199.444 231.313 199.349 230.873 199.356H181.679C181.501 199.356 181.321 199.356 181.144 199.356C180.442 199.418 179.789 199.739 179.312 200.257C178.834 200.774 178.566 201.451 178.559 202.155V203.756V240.688V247.421C178.55 247.804 178.618 248.186 178.76 248.542C178.901 248.899 179.112 249.223 179.382 249.496C179.651 249.769 179.973 249.985 180.327 250.132C180.682 250.278 181.062 250.351 181.446 250.347H230.954C231.045 250.347 231.133 250.311 231.198 250.246C231.262 250.182 231.299 250.094 231.299 250.002C231.299 249.911 231.262 249.823 231.198 249.758C231.133 249.693 231.045 249.657 230.954 249.657Z" fill="black"/>
<path d="M174.871 199.699H185.797V212.637H174.871V199.699Z" fill="black"/>
<path d="M190.072 199.699H140.477C139.122 199.699 138.023 200.798 138.023 202.153V247.547C138.023 248.902 139.122 250 140.477 250H190.072C191.428 250 192.526 248.902 192.526 247.547V202.153C192.526 200.798 191.428 199.699 190.072 199.699Z" fill="white"/>
<path d="M190.067 249.657H140.618C140.317 249.669 140.017 249.619 139.737 249.51C139.457 249.4 139.202 249.234 138.99 249.021C138.777 248.808 138.611 248.554 138.501 248.274C138.392 247.993 138.342 247.693 138.354 247.393V208.064C138.354 206.105 138.323 204.145 138.354 202.186C138.353 201.624 138.574 201.083 138.969 200.683C139.363 200.282 139.9 200.054 140.462 200.046H189.181C190.058 200.046 190.913 199.99 191.594 200.699C192.275 201.408 192.175 202.295 192.175 203.172V246.979V247.514C192.177 248.077 191.957 248.618 191.562 249.019C191.167 249.42 190.63 249.65 190.067 249.657C189.975 249.657 189.888 249.693 189.823 249.758C189.758 249.823 189.722 249.911 189.722 250.002C189.722 250.094 189.758 250.182 189.823 250.246C189.888 250.311 189.975 250.347 190.067 250.347C190.806 250.337 191.512 250.039 192.035 249.516C192.557 248.993 192.855 248.287 192.866 247.548C192.866 247.402 192.866 247.256 192.866 247.107V203.097C192.866 202.164 192.903 201.253 192.278 200.444C192.005 200.099 191.657 199.821 191.259 199.632C190.862 199.444 190.426 199.349 189.986 199.356H140.792C140.615 199.356 140.434 199.356 140.257 199.356C139.556 199.418 138.903 199.739 138.425 200.257C137.947 200.774 137.679 201.451 137.673 202.155V203.756V240.688V247.421C137.663 247.804 137.732 248.186 137.873 248.542C138.014 248.899 138.226 249.223 138.495 249.496C138.764 249.769 139.086 249.985 139.44 250.132C139.795 250.278 140.175 250.351 140.559 250.347H190.067C190.158 250.347 190.246 250.311 190.311 250.246C190.376 250.182 190.412 250.094 190.412 250.002C190.412 249.911 190.376 249.823 190.311 249.758C190.246 249.693 190.158 249.657 190.067 249.657Z" fill="black"/>
<path d="M159.812 199.699H170.738V212.637H159.812V199.699Z" fill="black"/>
<path d="M36.7634 224.87L32.0984 229.242C31.753 229.508 31.4951 229.871 31.3582 230.284C31.2214 230.906 31.6163 231.485 31.9802 232.001C35.5225 237.204 36.5706 243.639 38.054 249.756C39.5375 255.873 41.8109 262.264 46.8709 266.006C48.1584 266.957 49.6232 267.735 50.6029 268.994C51.5825 270.254 51.9309 272.241 50.8175 273.395C50.6368 273.596 50.4028 273.742 50.1426 273.815C49.1225 274.061 48.457 272.789 48.1864 271.775C49.1225 273.466 49.7095 275.329 49.9125 277.251C49.9778 277.873 49.9716 278.579 49.5175 279.002C48.9577 279.522 47.9874 279.285 47.4804 278.716C46.9735 278.147 46.8056 277.357 46.6594 276.608C46.9526 277.235 47.1145 277.915 47.1352 278.607C47.1072 279.298 46.7154 280.022 46.053 280.218C45.3221 280.436 44.5353 279.929 44.187 279.257C43.8386 278.586 43.792 277.796 43.764 277.034C43.892 278.032 43.9253 279.04 43.8635 280.044C43.8701 280.321 43.8001 280.594 43.6614 280.834C43.2042 281.481 42.1064 281.071 41.7145 280.386C41.3226 279.702 41.2604 278.85 40.8219 278.191C41.1951 279.164 41.3444 280.632 40.3368 280.909C39.8827 281.033 39.4038 280.806 39.0212 280.539C36.1911 278.589 35.6002 274.39 34.7077 271.342C33.4637 267.128 30.6927 263.916 28.0461 260.492C21.9473 252.602 16.3587 242.786 16.3711 232.533C16.3711 229.214 16.9434 225.837 18.4019 222.836C20.7998 217.891 24.765 213.733 28.6649 209.932C29.3097 209.31 29.9587 208.688 30.6118 208.066" fill="white"/>
<path d="M40.2723 280.673C39.613 280.772 38.9754 280.119 38.5432 279.693C38.1612 279.312 37.8271 278.886 37.548 278.424C36.9821 277.462 36.5371 276.435 36.2231 275.364C35.5047 273.078 35.0879 270.733 34.0461 268.553C32.8861 266.108 31.2471 263.941 29.5708 261.826C27.8572 259.649 26.1809 257.472 24.657 255.152C21.575 250.471 18.9875 245.393 17.6564 239.913C16.3253 234.433 16.204 228.26 18.692 223.082C21.1427 217.978 25.1733 213.836 29.2038 209.951C29.7636 209.413 30.3234 208.881 30.8801 208.34C31.2471 207.983 30.6935 207.438 30.3172 207.78C28.1123 209.793 26.0103 211.916 24.0195 214.14C22.0594 216.265 20.3347 218.596 18.8755 221.091C17.4154 223.66 16.4918 226.499 16.1605 229.435C15.8432 232.347 15.9648 235.29 16.5212 238.165C17.5724 243.804 20.0573 249.128 23.0522 253.979C24.5544 256.402 26.2089 258.728 27.9443 260.989C29.633 263.191 31.4057 265.362 32.7554 267.797C33.4398 269.024 33.9834 270.324 34.3757 271.672C34.6867 272.755 34.9418 273.849 35.2559 274.935C35.8623 277.028 36.7456 279.447 38.6582 280.704C38.8995 280.893 39.178 281.029 39.4754 281.103C39.7729 281.177 40.0826 281.187 40.3843 281.133C40.6953 281.052 40.5553 280.623 40.2568 280.666L40.2723 280.673Z" fill="black"/>
<path d="M36.5937 224.692C35.6607 225.466 34.7277 226.268 33.8258 227.089C33.4122 227.463 33.0079 227.848 32.6005 228.228C32.1791 228.589 31.7802 228.975 31.4062 229.385C30.7003 230.227 30.9273 231.132 31.484 231.985C32.0456 232.822 32.5646 233.688 33.039 234.578C34.961 238.31 35.9686 242.409 36.9047 246.462C38.5686 253.649 40.419 261.735 46.7168 266.366C48.3899 267.594 50.6136 268.664 51.0708 270.897C51.2356 271.73 51.0708 273.049 50.1533 273.407C49.2359 273.764 48.7352 272.287 48.5672 271.668L47.855 271.979C48.7381 273.622 49.3086 275.415 49.5375 277.266C49.6028 277.758 50.3741 277.782 50.3275 277.266C50.1295 275.271 49.5161 273.34 48.5268 271.597C48.4799 271.512 48.403 271.447 48.3111 271.416C48.2193 271.385 48.1191 271.39 48.0303 271.429C47.9415 271.467 47.8704 271.538 47.8311 271.627C47.7918 271.716 47.787 271.816 47.8177 271.908C48.0323 272.682 48.3993 273.559 49.1021 274.016C49.805 274.473 50.7069 274.172 51.2356 273.531C52.377 272.141 51.9074 270.057 50.8748 268.754C49.6028 267.143 47.6404 266.266 46.1165 264.944C44.7004 263.688 43.4876 262.219 42.5214 260.59C40.4905 257.244 39.3025 253.468 38.3882 249.687C37.3837 245.507 36.6341 241.206 35.0729 237.185C34.6509 236.087 34.1649 235.016 33.6174 233.975C33.3251 233.431 33.0172 232.899 32.6844 232.38C32.3734 231.913 31.9816 231.447 31.8012 230.924C31.5773 230.265 32.0624 229.851 32.4978 229.441L33.9409 228.088C34.9776 227.111 35.9779 226.104 36.942 225.065C36.982 225.018 37.0029 224.959 37.0006 224.898C36.9983 224.836 36.973 224.778 36.9297 224.735C36.8864 224.692 36.8284 224.667 36.7672 224.664C36.7061 224.662 36.6463 224.683 36.5999 224.723L36.5937 224.692Z" fill="black"/>
<path d="M66.0369 191.449C65.1595 193.88 64.4701 196.376 63.975 198.913C63.9534 199.124 63.8761 199.326 63.7511 199.498C63.6365 199.598 63.5027 199.674 63.3578 199.721C63.2129 199.768 63.0599 199.785 62.9082 199.771C61.0868 199.793 59.2898 199.351 57.6866 198.487C56.0934 197.621 54.6581 196.491 53.4414 195.147C55.0354 192.862 56.3235 190.379 57.2729 187.76C57.3102 187.658 57.3196 187.502 57.2107 187.48" fill="white"/>
<path d="M65.8189 191.322C65.178 192.696 64.6577 194.124 64.2639 195.589C64.0493 196.329 63.8503 197.072 63.673 197.822C63.589 198.179 63.5082 198.537 63.4335 198.898C63.3806 199.147 63.2158 199.548 63.3806 199.781C63.4146 199.837 63.4606 199.884 63.5154 199.92C63.5702 199.956 63.6323 199.979 63.6971 199.987C63.762 199.995 63.8278 199.989 63.8899 199.968C63.9519 199.948 64.0085 199.914 64.0555 199.868C64.1609 199.759 64.2228 199.615 64.2297 199.464C64.2297 199.35 64.1845 199.241 64.104 199.16C64.0235 199.08 63.9143 199.035 63.8005 199.035C63.617 199.035 63.5424 199.14 63.4024 199.234C63.2104 199.331 62.9948 199.372 62.7804 199.352C62.2598 199.359 61.7396 199.321 61.2254 199.24C60.2269 199.076 59.2564 198.772 58.3424 198.338C56.5998 197.471 55.0362 196.283 53.7334 194.836L53.7987 195.337C54.7164 193.999 55.5315 192.593 56.237 191.132C56.576 190.435 56.8901 189.726 57.17 189.011C57.3439 188.631 57.4935 188.241 57.6178 187.842C57.6661 187.716 57.6696 187.578 57.6277 187.451C57.5857 187.323 57.5009 187.214 57.3877 187.142C56.9834 186.884 56.6102 187.528 57.0114 187.783L57.0705 187.823L56.9025 187.602C56.9336 187.699 56.7906 187.944 56.7563 188.035C56.691 188.209 56.6226 188.383 56.5542 188.554C56.4298 188.865 56.2992 189.176 56.1623 189.487C55.8824 190.123 55.5818 190.745 55.2604 191.353C54.6114 192.581 53.8843 193.766 53.0834 194.901C53.0375 194.98 53.019 195.072 53.0308 195.163C53.0426 195.253 53.0841 195.338 53.1487 195.402C54.5514 196.988 56.2584 198.276 58.1683 199.19C59.1558 199.643 60.2031 199.952 61.2783 200.108C62.1615 200.232 63.3962 200.453 64.1022 199.772L63.7912 199.899L63.362 199.47L63.4366 199.268L64.1115 199.355C64.1613 199.542 64.1924 199.548 64.2017 199.377C64.2017 199.296 64.2359 199.215 64.2514 199.131C64.2888 198.963 64.323 198.798 64.3603 198.63C64.438 198.288 64.5189 197.943 64.606 197.604C64.777 196.917 64.9543 196.232 65.144 195.555C65.5172 194.208 65.9433 192.88 66.2667 191.512C66.3289 191.247 65.9371 191.051 65.8064 191.319L65.8189 191.322Z" fill="black"/>
<path d="M71.4449 174.219C71.7959 176.391 72.6618 178.448 73.9702 180.218C74.4118 180.812 74.9032 181.692 74.3496 182.199C74.1776 182.323 73.9955 182.432 73.8054 182.525C73.0279 183.014 73.0186 184.118 73.0652 185.035C73.1647 186.988 73.0279 189.181 71.6035 190.521C70.1791 191.862 68.0332 191.868 66.1423 191.516C60.9518 190.552 56.0286 186.876 54.7908 181.745C54.2093 179.341 54.4519 176.794 55.1547 174.427C55.6772 172.66 56.4827 170.925 57.8231 169.662C60.2427 167.386 64.0742 167.078 67.1531 168.3C69.2679 169.14 71.3018 171.936 71.4356 174.209" fill="white"/>
<path d="M55.034 181.692C54.6858 179.917 54.7035 178.089 55.0858 176.321C55.4682 174.552 56.2071 172.881 57.2576 171.408C58.2803 169.995 59.7238 168.942 61.3815 168.4C63.3127 167.828 65.3872 167.99 67.2065 168.854C68.2708 169.338 69.1935 170.086 69.8865 171.027C70.5796 171.968 71.0199 173.072 71.1655 174.231C71.2091 174.583 71.7378 174.611 71.7347 174.231C71.6973 169.448 66.485 166.715 62.1994 167.424C58.2404 168.08 55.5813 171.603 54.583 175.289C54.0028 177.426 53.9932 179.678 54.555 181.82C54.6359 182.131 55.0962 182 55.034 181.689V181.692Z" fill="black"/>
<path d="M70.8872 172.543C69.1079 174.842 66.9823 176.852 64.5864 178.499C64.3266 178.106 63.9523 177.804 63.5144 177.632C63.0764 177.46 62.5961 177.427 62.1388 177.538C61.6885 177.674 61.3041 177.971 61.0591 178.373C60.8141 178.774 60.7257 179.252 60.8108 179.715C61.0348 180.648 61.9522 181.192 62.7888 181.646C61.1281 184.479 58.9542 186.973 56.7958 189.449C56.3858 189.964 55.9101 190.423 55.3808 190.814C52.6409 192.655 47.724 191.937 46.3151 188.721C45.7864 187.518 45.6931 185.938 46.5733 184.871C46.9029 184.467 47.4254 184.05 47.2699 183.552C47.1942 183.379 47.0889 183.22 46.9589 183.083C46.7267 182.799 46.5648 182.464 46.4864 182.106C46.408 181.748 46.4153 181.376 46.5078 181.021C46.6002 180.666 46.7752 180.338 47.0184 180.063C47.2616 179.789 47.5662 179.575 47.9075 179.441C48.5108 179.201 49.2759 179.167 49.6273 178.623C49.765 178.317 49.8693 177.997 49.9383 177.668C50.2493 176.804 51.2383 176.424 52.1153 176.091C54.8891 175.078 57.5996 173.899 60.2324 172.562" fill="black"/>
<path d="M70.7177 172.375C68.9023 174.608 66.7811 176.573 64.4168 178.213L64.8709 178.331C63.9037 176.944 61.7951 176.645 60.7905 178.166C60.5717 178.491 60.4484 178.871 60.4346 179.262C60.4209 179.653 60.5173 180.041 60.7128 180.38C61.1295 181.105 61.9008 181.553 62.613 181.935L62.4855 181.459C61.5428 183.023 60.4845 184.514 59.3195 185.919C58.7473 186.622 58.1595 187.309 57.5686 187.994C56.9777 188.678 56.4428 189.343 55.8208 189.956C54.104 191.635 51.2055 191.822 49.0814 190.858C48.036 190.42 47.1858 189.616 46.6898 188.597C46.3766 187.923 46.254 187.177 46.3353 186.439C46.3743 186.089 46.4799 185.75 46.6463 185.44C46.8693 185.121 47.1113 184.816 47.3709 184.526C47.5789 184.279 47.6895 183.965 47.6819 183.643C47.6539 183.232 47.3491 182.99 47.1408 182.669C46.9293 182.344 46.8193 181.964 46.8248 181.576C46.8304 181.188 46.9512 180.811 47.1719 180.492C47.6321 179.845 48.307 179.768 48.9974 179.516C49.2856 179.425 49.5493 179.269 49.7687 179.062C50.0163 178.761 50.1804 178.401 50.2445 178.017C50.4622 177.23 51.1775 176.869 51.8991 176.595C52.8321 176.238 53.7651 175.902 54.6981 175.526C56.6449 174.736 58.5576 173.865 60.436 172.913C60.9056 172.674 60.492 171.98 60.0224 172.204C58.2092 173.137 56.3619 173.971 54.4804 174.736C53.594 175.096 52.6952 175.429 51.7995 175.768C51.1124 175.976 50.4859 176.347 49.974 176.85C49.738 177.124 49.5687 177.449 49.4795 177.799C49.3551 178.253 49.2649 178.558 48.7984 178.732C48.0955 178.999 47.4144 179.093 46.8515 179.646C46.5751 179.917 46.3595 180.243 46.219 180.603C46.0785 180.964 46.0164 181.35 46.0367 181.736C46.0613 182.131 46.1672 182.516 46.3477 182.868C46.5032 183.179 47.0039 183.543 46.8546 183.895C46.7054 184.246 46.3695 184.473 46.1642 184.756C45.9206 185.097 45.7443 185.481 45.6448 185.888C45.4729 186.641 45.4965 187.426 45.7133 188.168C46.0687 189.407 46.8768 190.467 47.9773 191.138C49.0625 191.79 50.2971 192.153 51.5627 192.191C52.8284 192.229 54.0825 191.941 55.205 191.355C55.9546 190.887 56.6166 190.291 57.1612 189.595C57.8796 188.765 58.5949 187.938 59.2946 187.092C60.7035 185.435 61.9756 183.667 63.0982 181.805C63.143 181.725 63.1551 181.63 63.1319 181.542C63.1087 181.453 63.052 181.377 62.9738 181.329C62.0252 180.819 60.6382 179.957 61.2788 178.682C61.9195 177.407 63.5709 177.612 64.3048 178.654C64.3502 178.73 64.4234 178.785 64.5088 178.808C64.5942 178.83 64.685 178.819 64.762 178.775C67.1973 177.097 69.3389 175.028 71.1002 172.652C71.2588 172.434 70.898 172.154 70.727 172.363L70.7177 172.375Z" fill="black"/>
<path d="M71.1993 174.218C71.3865 175.885 71.8945 177.5 72.6952 178.973C73.0902 179.686 73.65 180.311 74.02 181.032C74.1569 181.306 74.331 181.698 74.0791 181.965C73.9037 182.083 73.7197 182.186 73.5287 182.276C73.3962 182.37 73.2779 182.482 73.1772 182.609C72.3282 183.676 72.7512 185.333 72.6952 186.583C72.633 188.027 72.2691 189.6 71.0531 190.515C69.6567 191.566 67.7814 191.426 66.1424 191.255C65.8314 191.224 65.763 191.737 66.0678 191.815C67.5824 192.209 69.3022 192.241 70.7328 191.575C72.1634 190.909 73.0124 189.494 73.2954 187.964C73.427 187.197 73.4812 186.419 73.4571 185.641C73.4416 184.938 73.3234 184.183 73.5442 183.501C73.5975 183.338 73.6841 183.187 73.7987 183.058C73.9133 182.93 74.0532 182.827 74.2098 182.755C74.3898 182.676 74.5489 182.556 74.6747 182.405C74.8004 182.254 74.8893 182.076 74.9344 181.884C75.0837 181.122 74.5425 180.413 74.1289 179.832C72.9274 178.129 72.0938 176.195 71.6813 174.153C71.6254 173.882 71.1557 173.938 71.1931 174.218H71.1993Z" fill="black"/>
<path d="M70.7718 178.04L70.6661 178.096C70.6133 178.128 70.5634 178.164 70.5168 178.205C70.4367 178.271 70.3711 178.352 70.324 178.444C70.2968 178.498 70.276 178.554 70.2618 178.612C70.2503 178.657 70.2451 178.703 70.2462 178.749C70.2482 178.795 70.2534 178.841 70.2618 178.886C70.2882 179.007 70.3525 179.116 70.4453 179.197L70.523 179.253C70.5635 179.281 70.6108 179.297 70.6599 179.3C70.7416 179.309 70.8243 179.293 70.8962 179.253C70.923 179.238 70.9481 179.221 70.9709 179.2C70.9974 179.184 71.0215 179.164 71.0424 179.141C71.1032 179.072 71.1498 178.992 71.1792 178.905C71.2004 178.845 71.2109 178.782 71.2103 178.718C71.2164 178.672 71.2164 178.625 71.2103 178.578C71.2121 178.562 71.2121 178.545 71.2103 178.528C71.1922 178.463 71.158 178.403 71.1108 178.354L71.03 178.295C70.9784 178.264 70.9199 178.246 70.8597 178.243C70.7995 178.239 70.7394 178.251 70.6848 178.276C70.6382 178.295 70.5959 178.322 70.5606 178.358C70.5252 178.393 70.4976 178.435 70.4795 178.482C70.4565 178.537 70.4462 178.597 70.4494 178.656C70.4526 178.716 70.4693 178.775 70.4982 178.827L70.4577 178.734C70.4658 178.754 70.4711 178.774 70.4733 178.796V178.693C70.4747 178.714 70.4747 178.735 70.4733 178.755L70.4888 178.653C70.4855 178.673 70.4803 178.693 70.4733 178.712L70.5106 178.622C70.5022 178.641 70.4918 178.66 70.4795 178.678L70.5386 178.6C70.5265 178.617 70.5118 178.631 70.495 178.643L70.5697 178.587H70.9429H70.9273L71.0051 178.643C70.9876 178.632 70.9728 178.617 70.9615 178.6L71.0175 178.675C71.0054 178.658 70.995 178.64 70.9864 178.622L71.0237 178.709C71.0087 178.67 70.9982 178.629 70.9926 178.587V178.681C70.9895 178.648 70.9895 178.614 70.9926 178.581V178.671C70.9997 178.634 71.0101 178.598 71.0237 178.563L70.9926 178.64C71.04 178.542 71.0973 178.45 71.1637 178.364L71.1886 178.304C71.1977 178.272 71.1977 178.237 71.1886 178.205C71.1834 178.164 71.1681 178.124 71.144 178.09C71.1199 178.056 71.0878 178.029 71.0505 178.011C71.0133 177.992 70.972 177.983 70.9304 177.985C70.8888 177.986 70.8483 177.997 70.8123 178.018L70.7718 178.04Z" fill="black"/>
<path d="M62.8371 179.14C62.8744 179.14 62.8371 179.14 62.8184 179.14H62.8589H62.8402H62.8713C62.8993 179.14 62.8247 179.115 62.8713 179.14L62.8993 179.155C62.9071 179.165 62.9166 179.173 62.9273 179.18L62.9491 179.205C62.9708 179.223 62.918 179.155 62.9491 179.205L62.9864 179.264C62.9846 179.274 62.9846 179.285 62.9864 179.295C62.9739 179.264 62.9739 179.258 62.9864 179.276C62.988 179.281 62.988 179.287 62.9864 179.292C62.9961 179.316 63.0044 179.341 63.0113 179.367C63.0113 179.416 63.033 179.463 63.0424 179.513C63.0517 179.562 63.0424 179.538 63.0424 179.547C63.0424 179.556 63.0424 179.482 63.0424 179.547C63.0439 179.571 63.0439 179.595 63.0424 179.618V179.699C63.0424 179.699 63.0424 179.721 63.0424 179.734C63.0424 179.746 63.0424 179.674 63.0424 179.734C63.0438 179.755 63.0438 179.777 63.0424 179.799C63.0424 179.799 63.0206 179.855 63.0424 179.818C63.0641 179.78 63.0424 179.817 63.0424 179.833L63.4093 179.737C63.4436 179.765 63.456 179.774 63.4404 179.758C63.4249 179.743 63.4404 179.758 63.4622 179.79C63.4622 179.842 63.4622 179.855 63.4622 179.833V179.814C63.4622 179.814 63.4436 179.895 63.4622 179.845C63.4809 179.796 63.4622 179.87 63.4622 179.87L63.4373 179.905C63.4684 179.87 63.3782 179.942 63.4187 179.905C63.483 179.867 63.5298 179.806 63.5488 179.733C63.5677 179.661 63.5573 179.585 63.5198 179.52C63.5012 179.489 63.4765 179.461 63.4471 179.438C63.4178 179.416 63.3843 179.4 63.3486 179.39C63.2766 179.371 63.2 179.382 63.1357 179.419C63.0707 179.463 63.0174 179.522 62.9802 179.59C62.9445 179.661 62.9253 179.739 62.9242 179.818C62.9262 179.895 62.9467 179.97 62.9841 180.038C63.0214 180.106 63.0745 180.163 63.1388 180.206C63.2004 180.242 63.2734 180.251 63.342 180.233C63.4106 180.215 63.4695 180.171 63.5058 180.11C63.5758 179.961 63.6069 179.798 63.5959 179.634C63.5869 179.487 63.5587 179.342 63.512 179.202C63.4543 179.035 63.3455 178.89 63.201 178.788C63.1338 178.739 63.0566 178.705 62.9748 178.69C62.893 178.674 62.8088 178.677 62.7283 178.698C62.6704 178.719 62.6225 178.761 62.5941 178.815C62.5657 178.87 62.5589 178.933 62.5749 178.993C62.5909 179.052 62.6287 179.104 62.6807 179.136C62.7327 179.169 62.7952 179.182 62.8558 179.171L62.8371 179.14Z" fill="black"/>
<path d="M69.1385 175.918H69.1696L69.0016 175.846C69.1509 176.002 69.3904 175.93 69.5739 175.902L70.003 175.837C70.314 175.793 70.5971 175.762 70.8894 175.697C70.9737 175.673 71.0451 175.617 71.0882 175.541C71.1313 175.464 71.1425 175.374 71.1195 175.29C71.0942 175.206 71.0379 175.135 70.9622 175.092C70.8864 175.049 70.797 175.036 70.7121 175.056C70.426 175.1 70.1399 175.175 69.8538 175.24L69.4339 175.33C69.2753 175.364 69.0389 175.389 68.9643 175.557L69.1074 175.448H69.0763C69.022 175.464 68.9753 175.499 68.9445 175.546C68.9137 175.594 68.9009 175.65 68.9083 175.706C68.9158 175.762 68.9433 175.813 68.9856 175.851C69.0279 175.888 69.0822 175.908 69.1385 175.909V175.918Z" fill="black"/>
<path d="M68.1486 183.772C68.0531 184.13 68.0547 184.507 68.1531 184.865C68.2514 185.222 68.4431 185.547 68.7084 185.806C68.7631 185.851 68.8328 185.875 68.9038 185.872C68.9749 185.868 69.0422 185.839 69.0927 185.789C69.1431 185.739 69.1731 185.672 69.1769 185.601C69.1806 185.53 69.1577 185.46 69.1127 185.405C69.0567 185.353 69.0038 185.298 68.9541 185.24L68.9354 185.215L68.9168 185.19L68.8515 185.091C68.811 185.025 68.7768 184.957 68.7426 184.889C68.7367 184.872 68.7294 184.857 68.7209 184.842C68.7364 184.876 68.7022 184.798 68.7209 184.842L68.6804 184.73C68.6587 184.662 68.6431 184.59 68.6276 184.522V184.456C68.6276 184.49 68.6276 184.41 68.6276 184.456V184.351C68.6229 184.275 68.6229 184.199 68.6276 184.123C68.6276 184.105 68.6276 184.086 68.6276 184.068V184.043C68.6276 184.005 68.6431 183.965 68.6493 183.924C68.6635 183.861 68.6529 183.795 68.6196 183.74C68.5863 183.684 68.5329 183.643 68.4705 183.626C68.4081 183.609 68.3415 183.617 68.2844 183.647C68.2274 183.678 68.1843 183.729 68.1642 183.791L68.1486 183.772Z" fill="black"/>
<path d="M71.8483 172.946C71.9665 173.257 71.5684 173.472 71.2605 173.547C62.0736 175.789 55.3249 177.257 45.9607 178.585C45.5502 178.641 44.9779 178.585 44.9375 178.168C44.9394 178.068 44.9639 177.97 45.0091 177.881C45.0544 177.792 45.1192 177.715 45.1987 177.655C45.7896 177.098 46.6293 176.918 47.4224 176.744C49.957 176.184 49.9415 175.957 52.3797 175.067C52.6988 174.967 53 174.817 53.2723 174.623C53.9627 174.075 54.0405 171.08 54.2582 170.225C54.9113 167.678 56.4849 166.561 58.8299 165.37C60.6399 164.437 62.6987 163.859 64.7389 163.971C66.7324 164.08 68.2314 165.103 69.7677 166.285C70.6495 167.022 71.2467 168.044 71.4565 169.174C71.6608 170.295 71.7349 171.435 71.6773 172.573C71.697 172.8 71.6447 173.027 71.528 173.223" fill="white"/>
<path d="M56.8457 176.772C56.7756 176.646 56.6988 176.523 56.6156 176.405C55.8635 175.344 54.8276 174.518 53.6268 174.02C53.5643 174.254 53.4422 174.468 53.2723 174.642C52.9996 174.834 52.6984 174.982 52.3797 175.08C49.9415 175.97 49.957 176.197 47.4224 176.756C46.6293 176.93 45.7896 177.111 45.1987 177.668C45.1192 177.728 45.0544 177.805 45.0091 177.894C44.9639 177.983 44.9394 178.081 44.9375 178.181C44.9779 178.594 45.5595 178.653 45.9607 178.597C49.929 178.022 53.4278 177.422 56.8457 176.772Z" fill="#7B1FA2"/>
<path d="M71.6234 173.008C71.6701 173.288 70.2115 173.472 70 173.518C69.3562 173.661 68.7156 173.829 68.0718 173.969C66.8693 174.251 65.6636 174.53 64.4549 174.806C62.1576 175.324 59.8541 175.811 57.5445 176.267C55.2348 176.724 52.9064 177.138 50.5594 177.511C49.2926 177.719 48.0268 177.914 46.7621 178.096C46.4511 178.14 46.1401 178.205 45.8291 178.227C45.7351 178.238 45.6401 178.238 45.5461 178.227C45.4061 178.205 45.3128 178.202 45.3377 178.065C45.3781 177.857 45.7576 177.673 45.9255 177.583C46.187 177.45 46.4623 177.345 46.7465 177.272C47.6795 177.011 48.6685 176.852 49.6015 176.532C50.3417 176.28 51.0539 175.953 51.7785 175.673C52.556 175.362 53.517 175.188 53.8809 174.352C54.1436 173.639 54.3048 172.892 54.3598 172.134C54.4118 171.452 54.5158 170.776 54.6708 170.11C54.9044 169.252 55.337 168.461 55.9335 167.802C56.5561 167.162 57.2749 166.624 58.0638 166.207C59.0722 165.622 60.1424 165.15 61.2547 164.801C62.4444 164.423 63.6947 164.273 64.94 164.359C66.0538 164.487 67.1205 164.88 68.05 165.507C68.983 166.092 69.9627 166.735 70.5194 167.706C71.1414 168.775 71.2907 170.019 71.3218 171.232V172.125C71.3649 172.432 71.3307 172.745 71.2222 173.036C71.1909 173.117 71.1892 173.206 71.2175 173.288C71.2457 173.371 71.3022 173.44 71.3767 173.484C71.4513 173.529 71.5392 173.545 71.6248 173.531C71.7103 173.517 71.7881 173.472 71.8442 173.406C72.1552 172.899 72.0557 172.162 72.0526 171.606C72.0569 170.904 72.0049 170.203 71.8971 169.509C71.7378 168.323 71.2128 167.215 70.395 166.34C69.9571 165.934 69.4847 165.567 68.983 165.243C68.4984 164.89 67.9856 164.578 67.4498 164.31C66.3462 163.782 65.1292 163.536 63.9075 163.594C61.4195 163.684 58.9844 164.68 56.9256 166.032C55.3706 167.056 54.1514 168.57 53.8498 170.452C53.7129 171.279 53.6632 172.122 53.517 172.94C53.465 173.316 53.3701 173.686 53.234 174.041C53.0505 174.461 52.612 174.582 52.217 174.734C51.3338 175.045 50.4754 175.446 49.5922 175.767C48.6001 176.124 47.5645 176.292 46.5506 176.572C45.854 176.762 43.9258 177.577 44.7468 178.597C45.0298 178.945 45.5492 178.986 45.9628 178.936C46.6626 178.858 47.3623 178.737 48.059 178.625C50.7087 178.229 53.3511 177.783 55.9863 177.288C58.5054 176.807 61.0152 176.281 63.5157 175.711C64.8177 175.416 66.1198 175.113 67.4218 174.8L69.4589 174.311C70.1397 174.174 70.8101 173.989 71.4648 173.758C71.838 173.605 72.205 173.31 72.0868 172.865C72.0703 172.805 72.0307 172.755 71.9768 172.724C71.9228 172.693 71.8589 172.685 71.7991 172.702C71.7393 172.718 71.6885 172.758 71.6579 172.812C71.6273 172.866 71.6194 172.93 71.6359 172.99L71.6234 173.008Z" fill="black"/>
<path d="M54.5765 193.09C53.4797 193.505 52.4283 194.031 51.4385 194.66C51.2569 194.756 51.1067 194.901 51.0063 195.08C50.8694 195.391 51.0436 195.74 51.2146 196.013C52.0702 197.45 53.0197 198.829 54.0572 200.14C54.7911 201.073 55.6495 202.006 56.8033 202.261C56.9697 202.307 57.1445 202.312 57.3133 202.277C57.4963 202.215 57.6647 202.117 57.8078 201.988L60.3363 199.985C60.3708 199.944 60.4154 199.913 60.4656 199.894C60.5157 199.875 60.5699 199.87 60.6227 199.878C60.6756 199.887 60.7254 199.909 60.7673 199.942C60.8091 199.976 60.8417 200.019 60.8619 200.069C61.2537 200.672 61.6207 201.297 61.9566 201.935C62.0872 202.177 62.2365 202.448 62.5008 202.522C62.9798 202.659 63.3405 202.093 63.5147 201.627L64.1367 199.991C64.1678 199.91 64.2082 199.82 64.2891 199.795C64.3699 199.77 64.4788 199.845 64.5503 199.913C65.112 200.446 65.739 200.906 66.4163 201.282C66.6962 201.437 67.0943 201.555 67.2933 201.306C67.3604 201.205 67.4001 201.089 67.4084 200.967C67.6205 199.767 67.5824 198.536 67.2964 197.351C67.0032 196.158 66.2871 195.113 65.2812 194.408C64.5966 196.125 63.7544 197.774 62.7652 199.335L57.3382 195.569C56.766 195.167 56.1906 194.769 55.6464 194.325C55.267 194.043 54.9103 193.746 54.5765 193.435" fill="black"/>
<path d="M54.5 192.852C53.8528 193.064 53.221 193.321 52.6091 193.62C52.0493 193.9 51.3433 194.195 50.8924 194.643C50.4414 195.091 50.5814 195.666 50.8644 196.154C51.2096 196.776 51.6077 197.377 52.0026 197.968C52.7277 199.095 53.5376 200.166 54.4253 201.171C55.1126 201.914 56.4002 203.012 57.5104 202.617C57.7566 202.507 57.9834 202.358 58.1822 202.175L59.1463 201.413L59.9922 200.748C60.1322 200.636 60.2721 200.524 60.4152 200.415C60.4836 200.359 60.6547 200.319 60.5645 200.272C60.4743 200.225 60.6795 200.53 60.6733 200.521C61.0341 201.096 61.3451 201.7 61.6872 202.284C61.9453 202.726 62.3745 203.065 62.9063 202.906C63.4381 202.748 63.6807 202.241 63.8611 201.796C63.9855 201.485 64.0974 201.174 64.2125 200.863C64.2747 200.704 64.3338 200.552 64.3929 200.387C64.4333 200.303 64.4666 200.216 64.4924 200.126L64.256 200.21L64.3556 200.303C64.5754 200.545 64.8289 200.755 65.1082 200.925C65.3782 201.131 65.6596 201.322 65.951 201.497C66.3646 201.746 66.9306 202.032 67.394 201.724C67.511 201.63 67.6059 201.511 67.672 201.377C67.7381 201.242 67.7738 201.094 67.7766 200.944C67.8351 200.547 67.8735 200.147 67.8916 199.746C67.9344 198.958 67.8643 198.167 67.6833 197.398C67.3783 196.056 66.5873 194.874 65.4627 194.08C65.4094 194.05 65.3499 194.032 65.2887 194.028C65.2276 194.024 65.1663 194.034 65.1095 194.057C65.0527 194.08 65.0019 194.116 64.9607 194.161C64.9196 194.207 64.8892 194.261 64.8718 194.319C64.1891 196 63.3564 197.615 62.3838 199.146L62.9374 199L58.7731 196.108C57.4327 195.175 56.055 194.282 54.8732 193.147C54.4906 192.78 53.9091 193.362 54.2916 193.729C55.489 194.876 56.8791 195.781 58.2351 196.724L62.5269 199.7C62.6205 199.752 62.7309 199.767 62.8348 199.739C62.9387 199.712 63.0279 199.645 63.0836 199.554C64.0832 197.961 64.9367 196.281 65.6338 194.534L65.0429 194.774C65.8936 195.372 66.5164 196.242 66.8094 197.24C66.9993 197.844 67.104 198.472 67.1204 199.106C67.1204 199.398 67.1141 199.69 67.1017 199.983C67.112 200.31 67.0764 200.636 66.9959 200.953C66.9431 201.087 66.9742 201.084 66.8249 201.065C66.7217 201.04 66.6237 200.997 66.5357 200.938C66.0317 200.655 65.5585 200.32 65.1237 199.939C64.955 199.749 64.7539 199.59 64.5297 199.47C63.9668 199.267 63.7802 199.855 63.6278 200.256C63.4668 200.801 63.2587 201.331 63.0058 201.839C62.9312 201.967 62.7881 202.213 62.6077 202.178C62.4274 202.144 62.2719 201.724 62.1941 201.578C61.9049 201.05 61.6032 200.53 61.2611 200.023C60.9781 199.591 60.6111 199.348 60.1353 199.684C59.6595 200.02 59.1587 200.459 58.6767 200.844L57.9552 201.417C57.7423 201.64 57.4876 201.82 57.2057 201.945C56.7361 202.06 56.0954 201.634 55.7378 201.385C54.8359 200.726 54.1517 199.737 53.4954 198.845C53.1005 198.307 52.7179 197.756 52.351 197.199C52.1675 196.919 51.9871 196.636 51.8129 196.353C51.607 196.09 51.4424 195.796 51.3247 195.483C51.2282 195.081 51.729 194.861 52.0151 194.699C52.3012 194.537 52.5811 194.363 52.8672 194.208C53.4643 193.897 54.0708 193.586 54.6928 193.318C54.9509 193.209 54.7674 192.774 54.5031 192.864L54.5 192.852Z" fill="black"/>
<path d="M48.5086 195.902C39.8993 199.52 32.1283 204.874 25.6812 211.63C25.224 212.109 24.7482 212.653 24.6953 213.315C24.6963 213.813 24.8271 214.302 25.0747 214.733C26.8527 218.516 29.2257 221.99 32.1033 225.021C33.083 226.051 34.2523 227.089 35.6736 227.145C36.8741 227.195 37.975 226.523 38.9795 225.867C43.2765 223.057 47.4217 220.022 51.3978 216.774C51.8716 216.443 52.2589 216.004 52.5267 215.492C52.7506 214.964 52.6573 214.248 52.1659 213.953" fill="#FFCE52"/>
<path d="M48.4325 195.628C44.0657 197.383 39.9087 199.62 36.0392 202.299C32.1657 204.947 28.5809 207.995 25.3439 211.392C24.5415 212.241 24.019 213.171 24.4544 214.35C24.9101 215.477 25.4562 216.565 26.0872 217.603C27.2705 219.685 28.6392 221.655 30.1768 223.49C30.9263 224.426 31.7444 225.304 32.6244 226.118C33.4361 226.84 34.3784 227.44 35.4794 227.549C36.6767 227.667 37.8025 227.098 38.7822 226.482C39.8769 225.795 40.9436 225.061 42.0073 224.33C44.1801 222.835 46.3136 221.28 48.4076 219.665C49.4308 218.875 50.4478 218.073 51.4492 217.258C52.236 216.617 53.1442 215.868 53.0322 214.742C53.0149 214.515 52.9453 214.295 52.8287 214.099C52.7122 213.903 52.5519 213.737 52.3604 213.613C51.9282 213.324 51.5425 214.008 51.9561 214.303C52.2982 214.546 52.2671 215.062 52.1116 215.401C51.8815 215.896 51.3963 216.247 50.9827 216.583C50.029 217.363 49.0638 218.13 48.0873 218.884C46.1633 220.375 44.2008 221.814 42.2001 223.201C41.1904 223.904 40.1692 224.595 39.1367 225.276C38.2442 225.863 37.2987 226.551 36.2133 226.712C35.1279 226.874 34.111 226.324 33.2993 225.624C32.4806 224.88 31.7186 224.077 31.0196 223.22C29.5696 221.522 28.2699 219.701 27.1352 217.777C26.5589 216.801 26.026 215.801 25.5367 214.779C25.3034 214.291 25.0018 213.744 25.12 213.187C25.2257 212.683 25.6207 212.279 25.9597 211.921C28.971 208.739 32.2912 205.863 35.8712 203.338C39.8885 200.523 44.1754 198.114 48.6689 196.147C48.9581 196.017 48.7497 195.507 48.4481 195.628H48.4325Z" fill="#7B1FA2"/>
<path d="M40.5439 277.415C40.5357 277.749 40.5841 278.082 40.6869 278.401C40.7755 278.723 40.8974 279.036 41.0508 279.334C41.3448 279.938 41.7698 280.469 42.2948 280.889C42.556 281.088 42.8453 280.671 42.6338 280.447C42.2108 280.029 41.8495 279.552 41.5608 279.032C41.4368 278.776 41.3328 278.511 41.2498 278.239C41.1534 277.928 41.1192 277.617 41.029 277.34C41.0115 277.287 40.976 277.242 40.9287 277.212C40.8815 277.183 40.8253 277.171 40.77 277.178C40.7147 277.185 40.6637 277.212 40.6258 277.253C40.5879 277.294 40.5655 277.347 40.5625 277.402L40.5439 277.415Z" fill="black"/>
<path d="M43.5487 276.647C43.6754 277.394 43.884 278.124 44.1707 278.824C44.4071 279.39 44.6777 280.143 45.3152 280.357C45.381 280.373 45.4503 280.365 45.5108 280.335C45.5712 280.304 45.6189 280.253 45.6454 280.191C45.6719 280.129 45.6754 280.059 45.6554 279.995C45.6354 279.93 45.5931 279.874 45.536 279.838C45.0384 279.561 44.8301 278.967 44.6248 278.467C44.3712 277.839 44.1633 277.193 44.0028 276.535C43.9282 276.24 43.4959 276.367 43.5519 276.66L43.5487 276.647Z" fill="black"/>
<path d="M46.3657 276.139C46.4992 276.345 46.6108 276.565 46.6984 276.795L47.0281 277.479C47.2582 277.949 47.4822 278.412 47.7247 278.888C47.7668 278.957 47.8341 279.007 47.9125 279.028C47.991 279.048 48.0742 279.037 48.1446 278.997C48.213 278.955 48.2625 278.888 48.2828 278.81C48.3031 278.733 48.2926 278.65 48.2534 278.58C48.014 278.095 47.7558 277.616 47.5039 277.137L47.1152 276.418C47.0079 276.189 46.8628 275.978 46.686 275.796C46.4621 275.585 46.1697 275.899 46.3563 276.129L46.3657 276.139Z" fill="black"/>
<path d="M36.5867 227.423C38.2723 226.49 39.9051 225.458 41.5254 224.413C43.1457 223.368 44.7785 222.392 46.237 221.185C46.4983 220.967 46.1624 220.563 45.8794 220.718C44.2466 221.686 42.7227 222.861 41.1429 223.906C39.563 224.951 37.9396 225.971 36.3504 227.016C36.2967 227.047 36.2578 227.099 36.242 227.159C36.2263 227.219 36.235 227.283 36.2664 227.336C36.2977 227.39 36.3491 227.429 36.4092 227.445C36.4692 227.46 36.5331 227.452 36.5867 227.42V227.423Z" fill="black"/>
<path d="M77.1487 212.251C78.203 214.599 78.1813 217.252 77.7956 219.749C77.5997 221.024 77.3136 222.284 77.0306 223.54C76.7196 224.874 76.3402 226.218 76.1629 227.583C76.1162 227.95 76.6823 227.991 76.7849 227.667C77.2265 226.302 77.4504 224.837 77.7614 223.437C78.0538 222.116 78.343 220.794 78.5203 219.454C78.8561 216.938 78.7286 214.316 77.5593 212.021C77.4193 211.744 77.0243 211.986 77.1487 212.26V212.251Z" fill="black"/>
<path d="M77.2031 229.668C81.355 232.635 86.2906 234.697 91.4065 235.083C96.028 235.431 100.618 234.212 104.649 231.973C108.655 229.706 112.128 226.606 114.834 222.882C118.031 218.553 120.171 213.552 123.153 209.099C123.866 208.032 124.615 206.997 125.722 206.3C126.829 205.603 127.915 205.168 128.851 204.306C129.32 203.861 129.764 203.388 130.179 202.891C130.583 202.465 130.936 201.992 131.23 201.483C131.687 200.581 131.541 199.421 130.512 199.01C130.322 198.932 130.114 198.907 129.912 198.94C129.709 198.972 129.52 199.06 129.364 199.194C129.013 199.467 129.504 199.952 129.852 199.682C130.201 199.411 130.695 199.906 130.785 200.223C130.947 200.783 130.518 201.392 130.191 201.803C129.474 202.787 128.623 203.666 127.663 204.415C126.708 205.093 125.582 205.488 124.668 206.228C123.754 206.969 123.088 207.967 122.447 208.937C119.648 213.176 117.571 217.854 114.601 221.999C112.062 225.557 108.825 228.56 105.087 230.825C101.386 233.04 97.16 234.389 92.8247 234.368C87.9451 234.346 83.2117 232.617 79.0443 230.16C78.5218 229.849 77.9993 229.538 77.4893 229.227C77.1783 229.037 76.9388 229.494 77.2156 229.693L77.2031 229.668Z" fill="black"/>
<path d="M86.3702 212.953C87.7596 214.444 89.313 215.773 91.001 216.915C91.791 217.444 92.7053 218.159 93.7036 218.159C94.6366 218.159 95.5696 217.562 96.3751 217.155C99.8166 215.373 103.081 213.268 106.125 210.869C112.283 206.136 117.881 200.7 124.225 196.206C126.045 194.918 127.991 193.637 130.227 193.251C132.691 192.828 135.101 193.798 137.346 194.688C137.732 194.84 137.89 194.225 137.517 194.066C135.558 193.264 133.515 192.458 131.363 192.489C129.403 192.517 127.565 193.301 125.911 194.299C124.237 195.347 122.624 196.489 121.081 197.72C119.579 198.877 118.111 200.074 116.659 201.29C110.75 206.232 105.043 211.519 98.3375 215.379C97.4045 215.918 96.4549 216.426 95.4888 216.903C94.9725 217.155 94.4282 217.484 93.8436 217.525C93.206 217.59 92.6244 217.214 92.102 216.903C90.1341 215.691 88.3202 214.246 86.6999 212.598C86.4884 212.384 86.165 212.71 86.3702 212.931V212.953Z" fill="black"/>
<path d="M131.86 195.906C132.209 196.271 132.507 196.681 132.747 197.125C132.859 197.31 132.947 197.508 133.008 197.716C133.012 197.747 133.012 197.778 133.008 197.809V197.865V197.89V197.94V197.961C133.067 197.933 133.008 197.946 133.008 197.961C132.944 197.981 132.89 198.025 132.857 198.084C132.825 198.143 132.816 198.212 132.834 198.277C132.852 198.342 132.895 198.397 132.953 198.431C133.011 198.465 133.08 198.475 133.145 198.459C133.27 198.424 133.38 198.347 133.456 198.241C133.532 198.136 133.57 198.008 133.565 197.878C133.547 197.602 133.463 197.335 133.319 197.1C133.024 196.542 132.647 196.031 132.199 195.585C132.154 195.548 132.096 195.529 132.038 195.532C131.979 195.534 131.923 195.559 131.882 195.6C131.84 195.642 131.816 195.698 131.813 195.756C131.81 195.815 131.829 195.873 131.867 195.918L131.86 195.906Z" fill="black"/>
<path d="M132.578 200.616C132.644 200.609 132.705 200.578 132.75 200.528C132.794 200.478 132.819 200.414 132.819 200.347C132.819 200.28 132.794 200.216 132.75 200.166C132.705 200.117 132.644 200.085 132.578 200.078C132.511 200.085 132.45 200.117 132.405 200.166C132.361 200.216 132.336 200.28 132.336 200.347C132.336 200.414 132.361 200.478 132.405 200.528C132.45 200.578 132.511 200.609 132.578 200.616Z" fill="black"/>
<path d="M144.543 179.777H276.255V185.96H144.543V179.777Z" fill="#7B1FA2"/>
<path d="M276.254 185.265H149.888C148.193 185.265 146.467 185.153 144.766 185.265C144.691 185.265 144.617 185.265 144.542 185.265L145.232 185.959V179.776L144.542 180.466H270.904C272.599 180.466 274.325 180.581 276.03 180.466H276.254L275.56 179.776V185.959C275.56 186.848 276.944 186.848 276.944 185.959V179.776C276.942 179.594 276.868 179.419 276.739 179.29C276.61 179.161 276.436 179.088 276.254 179.086H149.888C148.181 179.086 146.467 179.051 144.766 179.086H144.542C144.36 179.088 144.185 179.161 144.056 179.29C143.927 179.419 143.854 179.594 143.852 179.776V185.959C143.854 186.141 143.927 186.315 144.056 186.444C144.185 186.573 144.36 186.647 144.542 186.649H270.904C272.612 186.649 274.325 186.68 276.03 186.649H276.254C277.143 186.649 277.143 185.265 276.254 185.265Z" fill="#7B1FA2"/>
<path d="M144.543 250.004H276.255V256.187H144.543V250.004Z" fill="#7B1FA2"/>
<path d="M276.254 255.482H149.888C148.193 255.482 146.467 255.367 144.766 255.482H144.542L145.232 256.173V250.002L144.542 250.696H270.904C272.599 250.696 274.325 250.808 276.03 250.696H276.254L275.56 250.002V256.185C275.56 257.075 276.944 257.078 276.944 256.185V250.002C276.942 249.82 276.868 249.646 276.739 249.517C276.61 249.388 276.436 249.314 276.254 249.312H149.888C148.181 249.312 146.467 249.278 144.766 249.312H144.542C144.36 249.314 144.185 249.388 144.056 249.517C143.927 249.646 143.854 249.82 143.852 250.002V256.185C143.854 256.368 143.927 256.542 144.056 256.671C144.185 256.8 144.36 256.873 144.542 256.876H270.904C272.612 256.876 274.325 256.91 276.03 256.876H276.254C277.143 256.876 277.143 255.482 276.254 255.482Z" fill="#7B1FA2"/>
<path d="M144.543 320.234H276.255V326.417H144.543V320.234Z" fill="#7B1FA2"/>
<path d="M276.254 325.724H149.888C148.193 325.724 146.467 325.612 144.766 325.724C144.691 325.724 144.617 325.724 144.542 325.724L145.232 326.414V320.235L144.542 320.925H270.904C272.599 320.925 274.325 321.037 276.03 320.925H276.254L275.56 320.235V326.414C275.56 327.307 276.944 327.307 276.944 326.414V320.235C276.942 320.052 276.868 319.878 276.739 319.748C276.61 319.619 276.436 319.544 276.254 319.541H149.888C148.181 319.541 146.467 319.51 144.766 319.541H144.542C144.359 319.544 144.185 319.619 144.056 319.748C143.927 319.878 143.854 320.052 143.852 320.235V326.414C143.853 326.597 143.926 326.772 144.055 326.902C144.184 327.031 144.359 327.105 144.542 327.108H270.904C272.612 327.108 274.325 327.139 276.03 327.108H276.254C277.143 327.108 277.143 325.724 276.254 325.724Z" fill="#7B1FA2"/>
<path d="M144.543 390.461H276.255V396.644H144.543V390.461Z" fill="#7B1FA2"/>
<path d="M276.254 395.951H149.888C148.193 395.951 146.467 395.836 144.766 395.951H144.542L145.232 396.641V390.456L144.542 391.146H270.904C272.599 391.146 274.325 391.261 276.03 391.146H276.254L275.56 390.456V396.638C275.56 397.528 276.944 397.528 276.944 396.638V390.456C276.942 390.273 276.868 390.099 276.739 389.97C276.61 389.841 276.436 389.768 276.254 389.765H149.888C148.181 389.765 146.467 389.731 144.766 389.765H144.542C144.36 389.768 144.185 389.841 144.056 389.97C143.927 390.099 143.854 390.273 143.852 390.456V396.638C143.854 396.821 143.927 396.995 144.056 397.124C144.185 397.253 144.36 397.326 144.542 397.329H270.904C272.612 397.329 274.325 397.363 276.03 397.329H276.254C277.143 397.332 277.143 395.951 276.254 395.951Z" fill="#7B1FA2"/>
<path d="M296.225 396.64H273.074V142.46C273.074 141.777 273.208 141.1 273.469 140.468C273.731 139.836 274.114 139.262 274.597 138.779C275.08 138.295 275.654 137.912 276.285 137.65C276.917 137.389 277.594 137.254 278.277 137.254H291.028C292.408 137.256 293.73 137.805 294.704 138.781C295.679 139.757 296.226 141.081 296.225 142.46V396.64Z" fill="black"/>
<path d="M296.226 395.948H273.075L273.765 396.639V143.485C273.765 143.174 273.765 142.863 273.765 142.552C273.837 139.971 275.681 138.027 278.287 137.924C280.486 137.837 282.706 137.924 284.908 137.924C287.11 137.924 289.452 137.675 291.632 137.971C293.993 138.282 295.479 140.3 295.535 142.592V143.594V396.639C295.535 397.528 296.916 397.528 296.916 396.639V143.127C296.916 139.641 294.739 136.671 291.007 136.562C288.762 136.497 286.504 136.562 284.255 136.562C282.06 136.562 279.752 136.351 277.566 136.609C274.101 137.016 272.375 140.03 272.375 143.221V396.639C272.378 396.822 272.452 396.996 272.582 397.125C272.711 397.253 272.886 397.327 273.069 397.329H296.226C297.115 397.329 297.118 395.948 296.226 395.948Z" fill="black"/>
<path d="M281.922 152.977L284.651 150.247L287.38 152.977L284.651 155.706L281.922 152.977Z" fill="white"/>
<path d="M281.918 174.328L284.647 171.599L287.376 174.328L284.647 177.057L281.918 174.328Z" fill="white"/>
<path d="M281.922 195.68L284.651 192.951L287.38 195.68L284.651 198.409L281.922 195.68Z" fill="white"/>
<path d="M281.918 217.031L284.647 214.302L287.376 217.031L284.647 219.76L281.918 217.031Z" fill="white"/>
<path d="M281.918 238.379L284.647 235.65L287.376 238.379L284.647 241.108L281.918 238.379Z" fill="white"/>
<path d="M281.918 259.73L284.647 257.001L287.376 259.73L284.647 262.46L281.918 259.73Z" fill="white"/>
<path d="M281.922 281.082L284.651 278.353L287.38 281.082L284.651 283.811L281.922 281.082Z" fill="white"/>
<path d="M281.922 302.438L284.651 299.708L287.38 302.438L284.651 305.167L281.922 302.438Z" fill="white"/>
<path d="M281.918 323.785L284.647 321.056L287.376 323.785L284.647 326.514L281.918 323.785Z" fill="white"/>
<path d="M281.918 345.137L284.647 342.408L287.376 345.137L284.647 347.866L281.918 345.137Z" fill="white"/>
<path d="M281.918 366.488L284.647 363.759L287.376 366.488L284.647 369.217L281.918 366.488Z" fill="white"/>
<path d="M64.933 272.202C65.4102 276.459 65.3329 280.76 64.7029 284.997C64.65 285.348 65.1849 285.497 65.2378 285.146C65.8798 280.859 65.9394 276.505 65.4151 272.202C65.3778 271.891 64.8988 271.891 64.933 272.202Z" fill="#7B1FA2"/>
<path d="M4.84631 380.072C4.80565 380.111 4.7561 380.14 4.70193 380.156C4.64775 380.171 4.59058 380.174 4.53531 380.162C4.46025 380.142 4.38007 380.152 4.31242 380.19C4.24476 380.229 4.19517 380.293 4.17455 380.368C4.15393 380.443 4.16397 380.523 4.20246 380.59C4.24096 380.658 4.30475 380.708 4.37981 380.728C6.74316 381.649 9.20173 382.304 11.7101 382.681C12.227 382.717 12.7383 382.81 13.234 382.961C13.8995 383.232 13.6196 383.789 13.6258 384.355C13.6213 384.569 13.6772 384.78 13.7873 384.964C13.8973 385.147 14.0569 385.296 14.2478 385.393C14.7019 385.586 15.0378 385.281 15.3146 384.958C15.6828 384.527 16.163 384.207 16.702 384.032C17.241 383.858 17.8178 383.836 18.3686 383.969C18.4569 383.986 18.5483 383.969 18.6247 383.921C18.701 383.874 18.7567 383.8 18.7806 383.713C18.8046 383.626 18.795 383.534 18.7538 383.454C18.7126 383.374 18.6428 383.312 18.5583 383.282C17.621 383.051 16.6311 383.183 15.7873 383.652C15.374 383.896 15.0075 384.212 14.705 384.585C14.6459 384.653 14.593 384.753 14.4966 384.722C14.4002 384.69 14.3691 384.488 14.3598 384.411C14.3225 384.115 14.4438 383.81 14.4313 383.512C14.3909 382.489 13.3801 382.212 12.5373 382.1C11.2383 381.934 9.9489 381.7 8.67472 381.397C7.27706 381.059 5.89753 380.65 4.54153 380.172L4.46378 380.747C4.5921 380.745 4.71854 380.716 4.8352 380.662C4.95186 380.609 5.05622 380.532 5.14176 380.436C5.31592 380.249 5.08578 379.914 4.85564 380.066L4.84631 380.072Z" fill="#7B1FA2"/>
<path d="M86.0609 385.821C89.2891 386.167 92.3804 385.035 95.3909 384.061C95.9838 383.815 96.6155 383.676 97.2569 383.651C97.5034 383.645 97.7454 383.718 97.9473 383.859C98.1344 384.081 98.2817 384.333 98.3827 384.605C98.6222 385.013 99.1074 385.287 99.5117 384.898C99.8569 384.565 99.7729 384.039 100.183 383.732C101.06 383.078 102.298 383.11 102.933 382.117C103.169 381.738 102.578 381.399 102.336 381.769C101.832 382.534 100.7 382.593 99.9657 383.041C99.5918 383.259 99.3091 383.605 99.1696 384.015C99.1416 384.105 99.1385 384.273 99.0794 384.341C99.0203 384.409 99.0234 384.388 98.9519 384.273C98.8332 384.03 98.7003 383.794 98.5538 383.567C97.8509 382.705 96.5292 383.05 95.6335 383.34C94.1594 383.815 92.7008 384.341 91.2018 384.739C89.5282 385.228 87.7823 385.422 86.0423 385.311C85.7095 385.28 85.7313 385.787 86.0423 385.821H86.0609Z" fill="#7B1FA2"/>
</g>
<defs>
<clipPath id="clip0_2982_32367">
<rect width="304" height="398" fill="white"/>
</clipPath>
</defs>
</svg>
