<svg width="39" height="39" viewBox="0 0 39 39" fill="none" xmlns="http://www.w3.org/2000/svg">
<path d="M19.4601 0.00225819V4.63831C17.5077 4.60539 15.5694 4.97387 13.7653 5.72095C11.9611 6.46802 10.3297 7.57771 8.97217 8.98126L5.70312 5.70325C7.48522 3.86375 9.62528 2.40892 11.9913 1.42841C14.3574 0.447896 16.8992 -0.037491 19.4601 0.00225819Z" fill="#A54F94"/>
<path d="M8.9726 8.98401C7.57174 10.3419 6.46373 11.9723 5.71698 13.7747C4.97023 15.5771 4.60051 17.5133 4.63055 19.4641V19.472H0.00250246C-0.0393831 16.9096 0.444935 14.3658 1.42535 11.998C2.40577 9.63025 3.86152 7.4888 5.70258 5.70605L8.9726 8.98401Z" fill="#812D7F"/>
<path d="M8.98139 29.9507L5.70441 33.2287C3.86344 31.4476 2.40764 29.3075 1.42719 26.941C0.446736 24.5745 -0.0374559 22.0319 0.0044596 19.4707H4.63239C4.60157 21.4215 4.97104 23.358 5.71784 25.1605C6.46464 26.963 7.57296 28.5933 8.97443 29.9507H8.98139Z" fill="#FFC639"/>
<path d="M19.4601 34.3002V38.9282C16.8993 38.9681 14.3575 38.4829 11.9915 37.5026C9.6254 36.5222 7.4853 35.0675 5.70312 33.2282L8.9801 29.9502C10.3369 31.353 11.967 32.4627 13.7695 33.2109C15.572 33.9591 17.5087 34.3298 19.4601 34.3002Z" fill="#80B450"/>
<path d="M33.2279 33.2273C31.4434 35.0663 29.3014 36.5206 26.9338 37.5009C24.5662 38.4811 22.0231 38.9665 19.4609 38.9272V34.2913C21.4133 34.3241 23.3516 33.9556 25.1558 33.2085C26.9599 32.4614 28.5912 31.3517 29.9489 29.9482L33.2279 33.2273Z" fill="#F79237"/>
<path d="M38.9302 19.4707C38.9701 22.0317 38.485 24.5737 37.5046 26.9399C36.5243 29.3061 35.0695 31.4464 33.2301 33.2287L29.9512 29.9507C31.3548 28.5948 32.4648 26.9649 33.212 25.162C33.9593 23.3592 34.328 21.422 34.2952 19.4707H38.9302Z" fill="#DB003F"/>
<path d="M34.2933 19.4692V19.4612C34.3253 17.51 33.9562 15.573 33.209 13.7703C32.4618 11.9676 31.3522 10.3375 29.9492 8.98114L33.2283 5.70312C35.0684 7.48656 36.5236 9.62821 37.5039 11.9958C38.4843 14.3635 38.969 16.9069 38.9282 19.4692H34.2933Z" fill="#5CBCCB"/>
<path d="M33.2279 5.70318L29.9489 8.9812C28.5912 7.57769 26.9599 6.46801 25.1558 5.72094C23.3516 4.97387 21.4133 4.60539 19.4609 4.63824V0.00219408C22.0232 -0.0369738 24.5664 0.448638 26.934 1.42907C29.3016 2.40951 31.4435 3.86402 33.2279 5.70318Z" fill="#1090C4"/>
<path d="M34.2927 19.4609V19.4689C34.2911 23.4012 32.7277 27.172 29.9462 29.9517C27.1648 32.7315 23.3931 34.2927 19.4608 34.2919V34.2999C17.5093 34.3293 15.5725 33.9584 13.77 33.2101C11.9675 32.4617 10.3374 31.3518 8.98066 29.9489H8.97273C7.57126 28.5914 6.46294 26.9611 5.71614 25.1586C4.96934 23.3561 4.59987 21.4197 4.63069 19.4689V19.4609C4.63069 15.5275 6.19321 11.7551 8.97456 8.97375C11.7559 6.1924 15.5283 4.62988 19.4617 4.62988C23.3952 4.62988 27.1675 6.1924 29.9488 8.97375C32.7302 11.7551 34.2927 15.5275 34.2927 19.4609Z" fill="white"/>
<path opacity="0.377" d="M22.4585 20.9689L21.3816 21.1408L19.8861 30.2688L19.8655 30.3968L18.5616 22.217L18.3884 21.1415L9.25824 19.641L9.13449 19.6233L17.3129 18.3194L18.3905 18.1483L19.8839 9.0153L19.9016 8.89156L21.2112 17.07L21.3823 18.1476L30.5167 19.6452L22.4585 20.9689Z" fill="#CACACA"/>
<path style="mix-blend-mode:multiply" d="M21.2225 12.8626C22.364 13.123 22.6925 15.9507 21.9559 19.1779C21.2193 22.4051 19.692 24.8109 18.5551 24.5483C17.4182 24.2857 17.0852 21.4602 17.8217 18.2331C18.5583 15.0059 20.0811 12.6023 21.2225 12.8626Z" fill="url(#paint0_radial_1812_45197)"/>
<path d="M22.1222 23.6743C24.465 22.3207 25.3042 19.3886 23.9964 17.1252C22.6887 14.8618 19.7294 14.1242 17.3866 15.4778C15.0438 16.8314 14.2046 19.7636 15.5124 22.027C16.8201 24.2904 19.7794 25.0279 22.1222 23.6743Z" fill="white"/>
<path opacity="0.2" d="M17.3873 15.4774C18.4566 14.8596 18.5168 15.6333 18.5943 15.3078C18.6354 15.1409 18.8075 15.1569 19.0351 15.0532C19.0982 15.0086 19.1259 14.5907 19.4126 15.0868C18.2344 17.1615 17.3914 18.0551 17.4026 19.2798C17.4192 20.6318 17.9566 21.2602 19.1701 23.2246C17.8211 24.004 18.1737 23.6109 17.6657 23.2554C17.3622 23.0438 16.1692 23.1638 15.5959 22.1715C14.9457 21.0462 14.7692 19.7088 15.1052 18.4534C15.4411 17.198 16.262 16.1275 17.3873 15.4774Z" fill="#FA9839"/>
<g filter="url(#filter0_d_1812_45197)">
<path d="M21.5804 24.1277C20.636 24.4862 19.6041 24.5453 18.625 24.2967C17.6458 24.0482 16.767 23.5042 16.1079 22.7387L14.2854 22.7439L15.1955 21.1607C14.8679 20.2294 14.8282 19.221 15.0815 18.2667C15.3349 17.3125 15.8696 16.4566 16.616 15.8104L16.614 13.9733L18.2078 14.8899C19.1374 14.5644 20.1434 14.5255 21.0954 14.7782C22.0474 15.031 22.9015 15.5637 23.5472 16.3075L25.3836 16.3024L24.4677 17.8935C24.8036 18.8434 24.8396 19.8735 24.5709 20.8445C24.3022 21.8155 23.7417 22.6806 22.9654 23.3227L22.9702 24.9307L21.5804 24.1277ZM22.4184 22.7443C23.223 22.099 23.7541 21.1735 23.9051 20.1532C24.0562 19.1329 23.8161 18.0932 23.2329 17.2425C22.6497 16.3917 21.7666 15.7928 20.7605 15.5657C19.7544 15.3386 18.6997 15.5001 17.8076 16.0179C16.9156 16.5356 16.2521 17.3714 15.9503 18.3576C15.6484 19.3439 15.7304 20.4078 16.1798 21.3361C16.6293 22.2645 17.4129 22.9887 18.3738 23.3636C19.3346 23.7386 20.4017 23.7365 21.3611 23.3579L22.4184 22.7443Z" fill="#FA9839"/>
</g>
<g filter="url(#filter1_d_1812_45197)">
<path d="M16.1447 24.5344L11.4609 28.3867L14.944 23.4228L18.7424 18.6172L19.0045 20.2095L19.0799 20.1257L20.5808 20.516L16.1447 24.5344Z" fill="#2DA0CE"/>
</g>
<g filter="url(#filter2_d_1812_45197)">
<path d="M27.7932 10.74L24.3098 15.7049L20.6023 20.4818L20.4354 18.8952L18.6533 18.6584L23.1094 14.5923L27.7932 10.74Z" fill="#EA144E"/>
</g>
<path d="M21.0274 19.7745C21.2218 19.0484 20.7718 18.2971 20.0222 18.0964C19.2727 17.8957 18.5074 18.3215 18.313 19.0476C18.1186 19.7737 18.5686 20.525 19.3181 20.7257C20.0677 20.9265 20.8329 20.5006 21.0274 19.7745Z" fill="#404040"/>
<path d="M18.6573 18.8307C18.7385 18.7042 18.8459 18.5965 18.9722 18.515C19.0985 18.4335 19.2408 18.3799 19.3895 18.358C19.5551 18.3817 19.24 18.6576 19.1383 18.8902C19.0367 19.1228 18.924 19.3349 18.7857 19.3217C18.6474 19.3084 18.556 19.0624 18.6573 18.8307Z" fill="#E5E5E5"/>
<path d="M18.9276 19.7045C18.7723 20.0604 18.6496 19.9116 18.5962 19.7555C18.5841 19.713 18.5852 19.6678 18.5993 19.6259C18.6135 19.584 18.6401 19.5474 18.6755 19.521C18.7641 19.4454 19.0356 19.4559 18.9276 19.7045Z" fill="#E5E5E5"/>
<defs>
<filter id="filter0_d_1812_45197" x="8.26307" y="10.9626" width="23.1418" height="23.0012" filterUnits="userSpaceOnUse" color-interpolation-filters="sRGB">
<feFlood flood-opacity="0" result="BackgroundImageFix"/>
<feColorMatrix in="SourceAlpha" type="matrix" values="0 0 0 0 0 0 0 0 0 0 0 0 0 0 0 0 0 0 127 0" result="hardAlpha"/>
<feOffset dy="3.01105"/>
<feGaussianBlur stdDeviation="3.01105"/>
<feColorMatrix type="matrix" values="0 0 0 0 0 0 0 0 0 0 0 0 0 0 0 0 0 0 0.161 0"/>
<feBlend mode="normal" in2="BackgroundImageFix" result="effect1_dropShadow_1812_45197"/>
<feBlend mode="normal" in="SourceGraphic" in2="effect1_dropShadow_1812_45197" result="shape"/>
</filter>
<filter id="filter1_d_1812_45197" x="5.43478" y="15.6041" width="21.1715" height="21.8218" filterUnits="userSpaceOnUse" color-interpolation-filters="sRGB">
<feFlood flood-opacity="0" result="BackgroundImageFix"/>
<feColorMatrix in="SourceAlpha" type="matrix" values="0 0 0 0 0 0 0 0 0 0 0 0 0 0 0 0 0 0 127 0" result="hardAlpha"/>
<feOffset dy="3.01308"/>
<feGaussianBlur stdDeviation="3.01308"/>
<feColorMatrix type="matrix" values="0 0 0 0 0 0 0 0 0 0 0 0 0 0 0 0 0 0 0.161 0"/>
<feBlend mode="normal" in2="BackgroundImageFix" result="effect1_dropShadow_1812_45197"/>
<feBlend mode="normal" in="SourceGraphic" in2="effect1_dropShadow_1812_45197" result="shape"/>
</filter>
<filter id="filter2_d_1812_45197" x="12.6262" y="7.72715" width="21.1929" height="21.7935" filterUnits="userSpaceOnUse" color-interpolation-filters="sRGB">
<feFlood flood-opacity="0" result="BackgroundImageFix"/>
<feColorMatrix in="SourceAlpha" type="matrix" values="0 0 0 0 0 0 0 0 0 0 0 0 0 0 0 0 0 0 127 0" result="hardAlpha"/>
<feOffset dy="3.01308"/>
<feGaussianBlur stdDeviation="3.01308"/>
<feColorMatrix type="matrix" values="0 0 0 0 0 0 0 0 0 0 0 0 0 0 0 0 0 0 0.161 0"/>
<feBlend mode="normal" in2="BackgroundImageFix" result="effect1_dropShadow_1812_45197"/>
<feBlend mode="normal" in="SourceGraphic" in2="effect1_dropShadow_1812_45197" result="shape"/>
</filter>
<radialGradient id="paint0_radial_1812_45197" cx="0" cy="0" r="1" gradientUnits="userSpaceOnUse" gradientTransform="translate(13.3311 24.359) rotate(-64.8283) scale(6.93794 1.83093)">
<stop stop-color="#6B7680"/>
<stop offset="0.064" stop-color="#727C86"/>
<stop offset="0.159" stop-color="#868F97"/>
<stop offset="0.163" stop-color="#889199"/>
<stop offset="0.246" stop-color="#949CA3"/>
<stop offset="0.316" stop-color="#A2A9B0"/>
<stop offset="0.433" stop-color="#B3B9BE"/>
<stop offset="0.48" stop-color="#BCC1C6"/>
<stop offset="0.653" stop-color="#D0D4D7"/>
<stop offset="0.811" stop-color="#EBEDEE"/>
<stop offset="0.953" stop-color="white"/>
</radialGradient>
</defs>
</svg>
