<svg width="291" height="291" viewBox="0 0 291 291" fill="none" xmlns="http://www.w3.org/2000/svg">
<g clip-path="url(#clip0_2982_32276)">
<circle cx="145.5" cy="145.5" r="145.5" fill="#F3F3F3"/>
<path d="M216 148.503H166.129L183.052 108.539H232.923L216 148.503Z" fill="black"/>
<path d="M215.999 148.149H168.161C167.508 148.115 166.854 148.115 166.201 148.149C166.173 148.152 166.145 148.152 166.117 148.149L166.425 148.684L168.105 144.699L172.157 135.134L177.026 123.632L181.26 113.636L182.66 110.343L183.088 109.327C183.178 109.153 183.255 108.972 183.318 108.786C183.326 108.764 183.335 108.741 183.346 108.719L183.04 108.896H230.887C231.54 108.93 232.194 108.93 232.847 108.896C232.874 108.894 232.901 108.894 232.928 108.896L232.614 108.361L230.934 112.345L226.886 121.91L222.014 133.412L217.783 143.411C217.098 145.028 216.413 146.644 215.728 148.261L215.7 148.325C215.523 148.742 216.136 149.104 216.313 148.684L217.993 144.699L222.039 135.134L226.908 123.632L231.142 113.636C231.825 112.018 232.509 110.401 233.194 108.786L233.222 108.719C233.252 108.665 233.267 108.604 233.267 108.542C233.266 108.48 233.249 108.419 233.218 108.365C233.187 108.312 233.143 108.267 233.09 108.235C233.037 108.203 232.976 108.186 232.914 108.184H185.079C184.429 108.184 183.777 108.165 183.119 108.184H183.035C182.972 108.184 182.911 108.2 182.857 108.231C182.803 108.262 182.758 108.307 182.727 108.361L181.047 112.345L176.995 121.91L172.126 133.412L167.892 143.411C167.207 145.028 166.522 146.644 165.837 148.261L165.812 148.325C165.782 148.379 165.766 148.44 165.766 148.502C165.766 148.565 165.782 148.625 165.813 148.679C165.844 148.733 165.888 148.778 165.941 148.81C165.995 148.842 166.055 148.859 166.117 148.86H213.966C214.613 148.86 215.266 148.88 215.926 148.86H216.01C216.105 148.859 216.195 148.82 216.26 148.752C216.326 148.684 216.362 148.593 216.36 148.499C216.359 148.405 216.32 148.315 216.252 148.249C216.185 148.183 216.094 148.147 215.999 148.149Z" fill="black"/>
<path d="M213.359 148.503H163.488L180.409 108.539H230.279L213.359 148.503Z" fill="#FFCE52"/>
<path d="M213.359 148.149H165.518C164.865 148.115 164.211 148.115 163.558 148.149C163.53 148.152 163.502 148.152 163.474 148.149L163.799 148.681L165.479 144.696L169.528 135.132L174.4 123.629L178.639 113.636L180.039 110.343L180.467 109.327C180.558 109.153 180.634 108.972 180.697 108.786C180.705 108.764 180.714 108.741 180.725 108.719L180.417 108.896H228.244C228.897 108.93 229.551 108.93 230.204 108.896H230.288L229.971 108.361L228.291 112.345L224.24 121.91L219.371 133.412L215.137 143.411C214.454 145.028 213.77 146.644 213.085 148.261L213.057 148.325C212.88 148.742 213.491 149.104 213.67 148.684L215.35 144.699L219.399 135.134L224.279 123.632L228.513 113.636C229.198 112.018 229.883 110.401 230.568 108.786L230.596 108.719C230.626 108.665 230.641 108.604 230.64 108.542C230.64 108.48 230.623 108.419 230.592 108.365C230.561 108.312 230.517 108.267 230.464 108.235C230.41 108.203 230.35 108.186 230.288 108.184H182.441C181.792 108.184 181.139 108.165 180.481 108.184H180.397C180.335 108.184 180.274 108.2 180.22 108.231C180.167 108.262 180.122 108.307 180.092 108.361L178.412 112.345L174.363 121.91L169.491 133.412L165.261 143.411C164.574 145.028 163.889 146.644 163.205 148.261L163.177 148.325C163.148 148.38 163.132 148.441 163.133 148.503C163.133 148.565 163.15 148.626 163.181 148.679C163.212 148.733 163.256 148.778 163.309 148.81C163.363 148.841 163.423 148.859 163.485 148.86H211.321C211.97 148.86 212.623 148.88 213.281 148.86H213.359C213.453 148.86 213.544 148.823 213.61 148.756C213.677 148.689 213.715 148.599 213.715 148.504C213.715 148.41 213.677 148.32 213.61 148.253C213.544 148.186 213.453 148.149 213.359 148.149Z" fill="#60CC50"/>
<path d="M116.719 189.34C117.242 212.322 112.987 235.161 104.225 256.414C102.509 260.569 100.585 264.917 101.145 269.375C101.203 269.683 101.216 269.998 101.185 270.31C100.905 272.004 98.4071 271.836 96.8363 271.15C94.0205 269.915 91.2991 268.474 88.6939 266.841C87.4787 266.074 86.2467 265.225 85.5159 263.988C84.1719 261.703 85.5831 259.508 86.2999 256.954C88.5399 248.924 89.8587 240.073 90.2703 231.754C90.4551 227.997 90.3123 224.228 90.5503 220.473C91.054 212.526 93.2355 204.775 96.9511 197.731" fill="black"/>
<path d="M116.447 189.339C116.547 194.964 116.36 200.591 115.887 206.198C115.411 211.82 114.664 217.409 113.647 222.964C112.622 228.469 111.327 233.914 109.76 239.299C108.187 244.702 106.341 250.021 104.23 255.237C103.183 257.827 102.016 260.386 101.285 263.091C100.915 264.418 100.692 265.781 100.621 267.156C100.591 267.823 100.612 268.49 100.683 269.153C100.739 269.657 100.907 270.273 100.554 270.712C100.075 271.303 99.0364 271.242 98.3728 271.13C97.222 270.939 96.1608 270.362 95.1192 269.861C92.597 268.699 90.1768 267.326 87.884 265.759C86.8984 265.062 85.924 264.163 85.5516 262.973C85.1792 261.783 85.5516 260.52 85.9492 259.372C86.8142 256.788 87.5322 254.156 88.0996 251.49C89.298 245.965 90.1128 240.362 90.5384 234.724C90.7624 231.82 90.8184 228.917 90.8604 226.005C90.8435 223.116 90.9837 220.229 91.2804 217.356C91.9358 211.897 93.3945 206.565 95.6092 201.533C96.144 200.32 96.7096 199.105 97.3284 197.932C97.5944 197.422 96.8216 196.969 96.5528 197.478C93.9362 202.422 92.0652 207.726 91.0004 213.217C90.4657 216.001 90.1381 218.821 90.0204 221.654C89.8888 224.714 89.9532 227.78 89.8468 230.843C89.6467 236.644 89.0027 242.42 87.9204 248.122C87.3828 250.953 86.7388 253.764 85.9604 256.539C85.308 258.894 83.796 261.439 84.9664 263.872C85.5068 264.992 86.4784 265.832 87.4864 266.549C88.6232 267.35 89.8384 268.055 91.048 268.738C92.3192 269.459 93.6156 270.133 94.9372 270.76C95.9564 271.247 96.9952 271.802 98.1208 271.995C98.9776 272.14 99.9716 272.171 100.742 271.715C101.103 271.499 101.381 271.168 101.531 270.774C101.758 270.178 101.604 269.556 101.551 268.94C101.293 266.084 102.049 263.276 103.029 260.618C104.009 257.961 105.191 255.329 106.213 252.661C107.235 249.992 108.209 247.24 109.097 244.49C110.869 239.017 112.351 233.454 113.535 227.825C114.714 222.204 115.604 216.527 116.2 210.815C116.794 205.094 117.08 199.346 117.057 193.595C117.057 192.176 117.035 190.758 116.99 189.339C116.976 189.277 116.941 189.222 116.892 189.182C116.842 189.143 116.78 189.121 116.717 189.121C116.654 189.121 116.592 189.143 116.542 189.182C116.493 189.222 116.458 189.277 116.444 189.339H116.447Z" fill="black"/>
<path d="M116.447 189.339C116.547 194.964 116.36 200.591 115.887 206.198C115.411 211.82 114.664 217.409 113.647 222.964C112.622 228.469 111.327 233.914 109.76 239.299C108.187 244.702 106.341 250.021 104.23 255.237C103.183 257.827 102.016 260.386 101.285 263.091C100.915 264.418 100.692 265.781 100.621 267.156C100.591 267.823 100.612 268.49 100.683 269.153C100.739 269.657 100.907 270.273 100.554 270.712C100.075 271.303 99.0364 271.242 98.3728 271.13C97.222 270.939 96.1608 270.362 95.1192 269.861C92.597 268.699 90.1768 267.326 87.884 265.759C86.8984 265.062 85.924 264.163 85.5516 262.973C85.1792 261.783 85.5516 260.52 85.9492 259.372C86.8142 256.788 87.5322 254.156 88.0996 251.49C89.298 245.965 90.1128 240.362 90.5384 234.724C90.7624 231.82 90.8184 228.917 90.8604 226.005C90.8435 223.116 90.9837 220.229 91.2804 217.356C91.9358 211.897 93.3945 206.565 95.6092 201.533C96.144 200.32 96.7096 199.105 97.3284 197.932C97.5944 197.422 96.8216 196.969 96.5528 197.478C93.9362 202.422 92.0652 207.726 91.0004 213.217C90.4657 216.001 90.1381 218.821 90.0204 221.654C89.8888 224.714 89.9532 227.78 89.8468 230.843C89.6467 236.644 89.0027 242.42 87.9204 248.122C87.3828 250.953 86.7388 253.764 85.9604 256.539C85.308 258.894 83.796 261.439 84.9664 263.872C85.5068 264.992 86.4784 265.832 87.4864 266.549C88.6232 267.35 89.8384 268.055 91.048 268.738C92.3192 269.459 93.6156 270.133 94.9372 270.76C95.9564 271.247 96.9952 271.802 98.1208 271.995C98.9776 272.14 99.9716 272.171 100.742 271.715C101.103 271.499 101.381 271.168 101.531 270.774C101.758 270.178 101.604 269.556 101.551 268.94C101.293 266.084 102.049 263.276 103.029 260.618C104.009 257.961 105.191 255.329 106.213 252.661C107.235 249.992 108.209 247.24 109.097 244.49C110.869 239.017 112.351 233.454 113.535 227.825C114.714 222.204 115.604 216.527 116.2 210.815C116.794 205.094 117.08 199.346 117.057 193.595C117.057 192.176 117.035 190.758 116.99 189.339C116.976 189.277 116.941 189.222 116.892 189.182C116.842 189.143 116.78 189.121 116.717 189.121C116.654 189.121 116.592 189.143 116.542 189.182C116.493 189.222 116.458 189.277 116.444 189.339H116.447Z" fill="black"/>
<path d="M70.9219 263.859H69.2167V195.623H70.9219V263.859Z" fill="black" stroke="black" stroke-width="1.69" stroke-miterlimit="10"/>
<path d="M89.5033 272.504H50.6393C50.4637 272.503 50.2957 272.433 50.1718 272.309C50.048 272.184 49.9785 272.016 49.9785 271.84V268.223C49.9785 267.012 50.4596 265.85 51.316 264.993C52.1725 264.137 53.3341 263.656 54.5453 263.656H85.5973C86.8085 263.656 87.97 264.137 88.8265 264.993C89.6829 265.85 90.1641 267.012 90.1641 268.223V271.84C90.1641 272.016 90.0941 272.185 89.9697 272.31C89.8452 272.434 89.6765 272.504 89.5005 272.504H89.5033Z" fill="black" stroke="black" stroke-width="1.69" stroke-miterlimit="10"/>
<path d="M177.637 273H175.932V156.136H177.637V273Z" fill="black" stroke="black" stroke-width="1.69" stroke-miterlimit="10"/>
<path d="M129.797 273H128.092V156.136H129.797V273Z" fill="black" stroke="black" stroke-width="1.69" stroke-miterlimit="10"/>
<path d="M120.711 152.371H243.455V156.619H120.711V152.371Z" fill="black"/>
<path d="M120.712 157.328H238.474C240.065 157.328 241.658 157.356 243.234 157.328H243.441C243.629 157.325 243.808 157.249 243.941 157.117C244.074 156.984 244.15 156.805 244.153 156.617V152.369C244.15 152.182 244.074 152.002 243.941 151.87C243.808 151.737 243.629 151.661 243.441 151.658H125.693C124.105 151.658 122.509 151.627 120.933 151.658H120.723C120.535 151.661 120.356 151.737 120.223 151.87C120.09 152.002 120.015 152.182 120.012 152.369V156.617C120.012 157.53 121.434 157.533 121.434 156.617V152.369L120.723 153.081H238.474C240.053 153.081 241.669 153.179 243.234 153.081H243.441L242.73 152.369V156.617L243.441 155.906H125.693C124.105 155.906 122.509 155.875 120.933 155.906C120.863 155.906 120.793 155.906 120.723 155.906C119.796 155.906 119.796 157.328 120.712 157.328Z" fill="black"/>
<path d="M151.177 151.285C152.697 152.005 154.393 152.27 156.06 152.046C157.727 151.822 159.294 151.121 160.571 150.025C160.919 149.714 161.242 149.376 161.537 149.015C161.682 148.844 162.449 148.093 162.547 148.704C162.62 149.163 163.317 148.967 163.247 148.511C163.209 148.324 163.113 148.154 162.975 148.023C162.836 147.892 162.66 147.807 162.472 147.78C162.269 147.75 162.063 147.767 161.869 147.831C161.674 147.895 161.497 148.003 161.352 148.147C161.005 148.449 160.741 148.844 160.414 149.166C160.094 149.475 159.749 149.756 159.381 150.006C157.915 150.998 156.178 151.514 154.408 151.481C153.381 151.474 152.366 151.259 151.423 150.851C151.143 150.728 150.891 151.131 151.177 151.274V151.285Z" fill="black"/>
<path d="M164.997 145.82C164.062 144.656 162.706 143.906 161.223 143.734C161.144 143.735 161.069 143.767 161.014 143.822C160.958 143.878 160.927 143.953 160.926 144.031C160.928 144.109 160.96 144.183 161.015 144.239C161.07 144.294 161.145 144.326 161.223 144.328C162.556 144.489 163.781 145.142 164.658 146.159C164.865 146.397 165.185 146.058 164.997 145.82Z" fill="black"/>
<path d="M163.486 141.455C162.279 141.36 161.065 141.404 159.868 141.584C159.826 141.586 159.785 141.597 159.748 141.617C159.711 141.637 159.679 141.665 159.655 141.699C159.63 141.733 159.613 141.772 159.606 141.814C159.599 141.855 159.6 141.897 159.612 141.938C159.623 141.978 159.643 142.016 159.671 142.048C159.698 142.079 159.733 142.104 159.771 142.121C159.81 142.137 159.852 142.145 159.894 142.143C159.936 142.141 159.977 142.13 160.014 142.11C161.163 141.939 162.326 141.88 163.486 141.934C163.797 141.948 163.791 141.477 163.486 141.455Z" fill="black"/>
<path d="M161.391 138.856C160.49 138.882 159.598 139.045 158.745 139.337C158.679 139.359 158.623 139.404 158.588 139.465C158.553 139.525 158.542 139.597 158.558 139.665C158.579 139.731 158.625 139.786 158.686 139.82C158.746 139.855 158.817 139.865 158.885 139.85C159.69 139.554 160.535 139.381 161.391 139.337C161.699 139.32 161.702 138.844 161.391 138.856Z" fill="black"/>
<path d="M159.739 135.922C157.269 136.353 154.989 137.525 153.201 139.282C152.895 139.579 153.366 140.049 153.665 139.747C155.377 138.068 157.526 136.904 159.867 136.387C160.173 136.317 160.038 135.872 159.739 135.922Z" fill="black"/>
<path d="M152.742 136.641C151.737 137.3 150.9 138.184 150.295 139.222C149.712 140.222 149.219 141.462 149.211 142.647C149.211 143.027 149.83 143.137 149.894 142.739C149.964 142.193 150.068 141.651 150.205 141.118C150.362 140.589 150.575 140.078 150.841 139.595C151.379 138.618 152.111 137.76 152.991 137.075C153.237 136.884 153.013 136.464 152.742 136.646V136.641Z" fill="black"/>
<path d="M91.3163 150.02C91.1315 151.156 91.3782 152.321 92.0079 153.285C101.45 157.126 110.188 162.026 118.835 167.38C127.926 173.008 138.662 178.63 140.596 190.127C144.399 212.751 144.936 236.397 140.596 258.99C140.26 260.74 139.913 262.599 140.56 264.257C140.983 265.346 141.803 266.262 142.615 267.166C144.295 269.028 143.2 272.041 140.717 272.346C137.556 272.733 134.694 272.161 131.074 271.005C128.38 270.143 125.35 268.975 124.368 266.321C123.934 265.147 123.987 263.854 124.037 262.602C124.838 242.339 116.035 217.83 116.981 196.993C114.461 197.553 119.501 197.617 116.981 196.993C107.31 194.599 86.8867 190.065 77.9631 185.639C74.8831 184.113 71.8759 182.307 69.6191 179.722C65.6207 175.141 64.5063 168.76 63.9967 162.701C63.1875 153.114 69.1739 148.939 70.5767 139.422" fill="white"/>
<path d="M91.0369 149.941C90.8983 150.769 90.9656 151.618 91.2329 152.414C91.3334 152.786 91.5024 153.137 91.7313 153.447C92.0113 153.758 92.6077 153.881 92.9885 154.043C94.9485 154.883 96.9085 155.782 98.8321 156.709C102.64 158.535 106.359 160.537 110.032 162.628C113.538 164.625 116.959 166.747 120.392 168.853C123.103 170.513 125.827 172.159 128.414 174.005C133.558 177.673 138.237 182.335 139.821 188.64C140.314 190.6 140.558 192.633 140.855 194.627C141.185 196.848 141.482 199.079 141.745 201.319C142.262 205.703 142.646 210.102 142.896 214.515C143.399 223.3 143.305 232.108 142.616 240.88C142.263 245.28 141.741 249.66 141.051 254.02C140.712 256.151 140.244 258.265 139.931 260.399C139.651 262.297 139.765 264.109 140.891 265.719C141.79 267.015 143.324 268.045 142.952 269.821C142.821 270.449 142.477 271.013 141.977 271.417C141.297 271.951 140.449 272.005 139.617 272.052C137.669 272.124 135.722 271.902 133.841 271.394C131.994 270.965 130.19 270.37 128.451 269.616C126.983 268.941 125.536 267.992 124.844 266.472C124.038 264.702 124.441 262.513 124.458 260.625C124.47 256.876 124.261 253.128 123.831 249.403C122.974 241.549 121.479 233.785 120.137 226.009C118.796 218.233 117.545 210.396 117.323 202.489C117.273 200.654 117.287 198.82 117.365 196.987C117.364 196.931 117.35 196.876 117.325 196.826C117.299 196.776 117.263 196.732 117.218 196.698C117.173 196.664 117.122 196.641 117.067 196.63C117.012 196.619 116.955 196.62 116.901 196.634C116.621 196.701 116.117 196.771 115.957 197.068C115.797 197.365 116.01 197.628 116.282 197.715C116.674 197.855 117.503 197.903 117.867 197.662C118.802 197.037 116.962 196.601 116.66 196.528C115.375 196.21 114.088 195.898 112.799 195.59C106.118 193.98 99.4341 192.367 92.8261 190.477C86.6241 188.705 80.2457 186.837 74.7213 183.41C71.0813 181.15 68.2814 178.09 66.6993 174.077C65.2181 170.342 64.6049 166.237 64.3529 162.239C64.1233 158.616 65.0137 155.219 66.4697 151.932C67.8557 148.805 69.4545 145.772 70.3449 142.451C70.6028 141.482 70.8066 140.498 70.9553 139.506C71.0253 139.03 70.3001 138.825 70.2273 139.304C69.7009 142.779 68.4157 145.971 66.9373 149.135C65.6045 151.977 64.269 154.841 63.7902 157.972C63.2302 161.536 63.7593 165.283 64.4341 168.799C65.1313 172.439 66.3605 176.079 68.6341 179.067C72.5541 184.202 79.0753 186.815 85.0141 188.836C91.3001 190.975 97.7485 192.644 104.191 194.249C107.143 194.985 110.099 195.693 113.056 196.407C114.274 196.687 115.495 196.993 116.713 197.295C116.928 197.389 117.155 197.454 117.388 197.488C117.402 197.488 117.43 197.516 117.438 197.513C117.447 197.511 117.533 197.071 117.483 197.035C117.483 197.035 117.447 197.063 117.399 197.035C117.154 197.004 116.905 197.004 116.66 197.035C116.626 197.035 116.539 196.993 116.514 197.007C116.489 197.021 116.455 197.466 116.528 197.494C116.72 197.457 116.907 197.402 117.088 197.329L116.623 196.973C116.282 204.833 117.251 212.692 118.474 220.44C119.757 228.532 121.383 236.565 122.517 244.679C123.077 248.599 123.495 252.519 123.665 256.47C123.747 258.335 123.769 260.2 123.707 262.07C123.646 263.941 123.5 265.833 124.547 267.46C126.339 270.26 130.285 271.249 133.286 272.044C135.143 272.568 137.063 272.838 138.993 272.845C140.479 272.828 142.022 272.721 143.027 271.492C143.421 271.008 143.681 270.43 143.782 269.815C143.883 269.199 143.822 268.568 143.604 267.984C143.324 267.233 142.75 266.701 142.241 266.097C141.56 265.293 140.958 264.417 140.74 263.367C140.297 261.239 141.053 258.929 141.426 256.84C141.818 254.632 142.166 252.416 142.47 250.193C143.667 241.316 144.211 232.364 144.097 223.408C143.979 214.45 143.299 205.507 142.061 196.634C141.538 192.826 141.185 188.853 139.662 185.289C138.378 182.408 136.544 179.806 134.263 177.628C129.61 173.044 123.752 169.858 118.228 166.467C110.805 161.914 103.183 157.647 95.1669 154.225C94.7227 154.039 94.2775 153.852 93.8313 153.665C93.3777 153.478 92.7365 153.341 92.3389 153.058C91.5633 152.512 91.4989 150.913 91.6137 150.084C91.6641 149.72 91.1069 149.555 91.0537 149.93L91.0369 149.941Z" fill="black"/>
<path d="M80.008 98.7858C80.7381 97.4313 81.3507 96.0168 81.8392 94.5578C82.4274 92.9264 82.8834 91.2503 83.2028 89.5458C83.3593 88.7382 83.4436 87.9183 83.4548 87.0958C83.4548 86.5358 82.5644 86.5358 82.5756 87.0958C82.6064 89.0558 82.1444 91.0382 81.6236 92.917C81.1227 94.847 80.4187 96.7185 79.5236 98.5002C79.3556 98.8222 79.8316 99.1022 80.008 98.7802V98.7858Z" fill="black"/>
<path d="M77.0907 99.2218L78.3311 95.9206C78.4162 95.6183 78.5772 95.3426 78.7987 95.1198C79.1151 94.8538 79.5659 94.8398 79.9803 94.8398C84.8743 94.8764 89.6519 96.3357 93.7311 99.0398C94.4339 99.5102 95.1955 100.227 94.9883 101.045L98.2111 102.058C99.4571 102.45 101.711 104.259 102.671 105.138C103.752 106.132 103.307 106.188 103.791 107.574C104.351 109.209 104.928 110.859 105.138 112.575C105.435 115 105.007 117.453 104.494 119.838C103.457 124.653 102.076 129.387 100.361 134.003C99.6055 136.036 98.7739 138.063 97.5475 139.85C96.6067 141.219 95.1759 146.948 93.9887 148.11C92.3087 149.765 92.2275 149.619 89.8895 149.958C82.3547 151.055 81.0163 150.031 79.7675 149.958C75.7999 149.725 76.7995 146.559 73.1231 145.041C70.4799 143.952 67.9207 142.521 65.9999 140.39C64.5075 138.747 63.4519 136.75 62.5783 134.715C61.9813 133.428 61.5657 132.064 61.3435 130.663C61.0971 128.739 61.4471 126.791 61.8671 124.895C62.7351 121 63.9111 117.164 64.4151 113.205C64.6223 111.575 64.7175 109.918 65.2159 108.355C66.0111 105.855 67.8171 103.741 70.0123 102.302C72.2075 100.863 74.7723 100.062 77.3735 99.6866" fill="black"/>
<path d="M77.3689 99.2961L78.2453 97.0869C78.3881 96.7285 78.5253 96.3701 78.6709 96.0117C78.7941 95.7121 78.9229 95.4069 79.2533 95.2949C79.5498 95.2217 79.8572 95.2027 80.1605 95.2389C80.5245 95.2389 80.8913 95.2669 81.2553 95.2921C81.9637 95.3369 82.6721 95.4125 83.3749 95.5245C86.1603 95.964 88.8527 96.8659 91.3409 98.1929C92.0381 98.5625 92.7213 98.9657 93.3793 99.3997C93.8469 99.7105 94.6477 100.254 94.4993 100.914C94.4685 101.041 94.487 101.174 94.551 101.287C94.615 101.399 94.7197 101.484 94.8437 101.522L97.1005 102.233C97.649 102.377 98.1825 102.573 98.6937 102.818C99.6622 103.363 100.575 104.002 101.418 104.725C101.998 105.204 102.84 105.775 102.992 106.475C103.081 106.936 103.197 107.391 103.339 107.839C103.585 108.553 103.832 109.267 104.047 109.992C104.512 111.485 104.739 113.043 104.719 114.606C104.654 116.17 104.446 117.724 104.098 119.249C103.462 122.295 102.675 125.311 101.76 128.284C100.866 131.188 99.9257 134.136 98.6405 136.894C98.3281 137.566 97.9804 138.22 97.5989 138.854C97.3637 139.238 97.0893 139.602 96.8849 140.002C96.5247 140.763 96.2115 141.545 95.9469 142.343C95.6081 143.292 95.2861 144.247 94.9305 145.191C94.6738 145.962 94.3339 146.703 93.9169 147.4C93.8602 147.501 93.7915 147.595 93.7125 147.68C93.5417 147.859 93.3513 148.024 93.1525 148.19C92.8714 148.458 92.5615 148.695 92.2285 148.895C92.1209 148.963 92.0039 149.015 91.8813 149.049C91.7128 149.103 91.5406 149.144 91.3661 149.172C90.9125 149.254 90.4421 149.293 89.9661 149.349C87.7261 149.629 85.4861 149.909 83.2125 149.811C82.8849 149.811 82.5601 149.769 82.2353 149.732L82.0421 149.707C82.1877 149.727 82.0561 149.707 81.9889 149.707L81.6165 149.643L81.4653 149.62L81.3001 149.598L81.0005 149.55L80.4993 149.464C80.2729 149.41 80.0391 149.395 79.8077 149.419H80.1241C79.5025 149.335 78.8753 149.332 78.2873 149.077C77.7768 148.835 77.335 148.47 77.0021 148.013C76.5793 147.453 76.2209 146.874 75.7701 146.333C75.2461 145.711 74.6048 145.198 73.8829 144.824C72.9253 144.331 71.9061 143.984 70.9513 143.472C69.979 142.968 69.0507 142.384 68.1765 141.724C66.4124 140.327 64.9784 138.557 63.9765 136.542C62.9069 134.489 61.8765 132.199 61.7673 129.855C61.6497 127.335 62.3749 124.832 62.9741 122.416C63.5817 119.957 64.2285 117.504 64.6541 115.007C65.0573 112.663 65.0405 110.171 65.9113 107.931C66.6393 106.064 68.0561 104.426 69.6325 103.21C71.4245 101.83 73.5917 100.97 75.7925 100.492C76.3525 100.366 76.9125 100.262 77.4893 100.178C77.6192 100.141 77.7295 100.055 77.796 99.9376C77.8626 99.8202 77.8802 99.6812 77.8449 99.5509C77.8064 99.422 77.7198 99.3129 77.603 99.2462C77.4862 99.1795 77.3482 99.1602 77.2177 99.1925C72.2533 99.9261 67.1685 102.328 65.0685 107.161C64.561 108.415 64.2357 109.735 64.1025 111.081C63.9233 112.501 63.7805 113.915 63.5229 115.323C62.9965 118.193 62.2125 121.004 61.5629 123.844C60.9133 126.683 60.3589 129.564 61.1849 132.437C61.5769 133.727 62.0761 134.982 62.6773 136.189C63.2347 137.38 63.9051 138.514 64.6793 139.577C66.2453 141.622 68.256 143.284 70.5593 144.438C71.1193 144.74 71.7185 145.017 72.3149 145.278C72.8391 145.483 73.3465 145.73 73.8325 146.014C74.506 146.473 75.0778 147.066 75.5125 147.756C75.8976 148.405 76.3685 148.999 76.9125 149.522C77.6547 150.116 78.5599 150.471 79.5081 150.539C79.6329 150.56 79.7594 150.571 79.8861 150.57C80.0569 150.57 79.7713 150.57 79.7209 150.514C79.789 150.557 79.8669 150.583 79.9477 150.589C80.0849 150.626 80.2277 150.656 80.3649 150.69C80.7556 150.803 81.1531 150.891 81.5549 150.953L81.7201 150.976L81.8937 150.998L82.2969 151.04C82.6021 151.068 82.9101 151.085 83.2181 151.096C84.0351 151.125 84.8531 151.107 85.6681 151.043C86.8889 150.95 88.1069 150.83 89.3081 150.665C89.9017 150.584 90.4953 150.477 91.0861 150.385C91.4353 150.336 91.7799 150.258 92.1165 150.152C92.8669 149.895 93.4437 149.368 93.9981 148.817C94.4909 148.317 94.8885 147.732 95.1713 147.089C95.9413 145.446 96.4705 143.701 97.1033 142.004C97.3082 141.376 97.5765 140.77 97.9041 140.196C98.6135 139.097 99.2423 137.949 99.7857 136.76C100.91 134.128 101.882 131.432 102.695 128.688C103.546 125.931 104.281 123.14 104.898 120.316C105.523 117.451 106.018 114.525 105.478 111.605C105.168 110.196 104.762 108.811 104.263 107.458C104.011 106.716 104.011 105.926 103.498 105.299C102.908 104.574 102.098 103.986 101.354 103.42C100.574 102.775 99.7208 102.224 98.8113 101.78C98.2787 101.561 97.7336 101.374 97.1789 101.22L95.1153 100.57L95.4597 101.178C95.7929 99.5565 94.0065 98.5933 92.8417 97.9073C91.4781 97.1059 90.0407 96.4374 88.5493 95.9109C87.0224 95.3645 85.4461 94.9679 83.8425 94.7265C83.0641 94.6051 82.281 94.5211 81.4933 94.4745C80.7486 94.3847 79.9952 94.395 79.2533 94.5053C78.3741 94.6929 78.1333 95.4489 77.8533 96.2077C77.5061 97.1839 77.1598 98.163 76.8145 99.1449C76.6885 99.4977 77.2373 99.6349 77.3745 99.2961H77.3689Z" fill="black"/>
<path d="M100.972 72.7485C101.305 73.6984 101.437 74.7071 101.361 75.7109C101.325 76.7581 101.235 77.8053 101.204 78.8553C101.145 79.944 101.196 81.0359 101.355 82.1145C101.526 83.0757 101.843 84.0049 102.296 84.8697C102.438 85.0728 102.557 85.2917 102.649 85.522C102.697 85.746 102.509 85.9113 102.347 86.0233C101.981 86.2189 101.674 86.509 101.459 86.8633C101.126 87.5549 101.243 88.4929 101.221 89.2433C101.173 90.8113 101.123 92.5445 100.361 93.9585C100.175 94.3401 99.9112 94.6784 99.5861 94.9514C99.261 95.2244 98.8822 95.4261 98.4741 95.5433C97.4969 95.8009 96.4357 95.6133 95.4669 95.4117C94.9349 95.3025 94.7081 96.1145 95.2429 96.2265C97.0041 96.5933 99.0173 96.7865 100.384 95.3865C101.596 94.1293 101.896 92.2729 102.013 90.6013C102.072 89.7613 102.075 88.8989 102.103 88.0477C102.103 87.6221 102.12 87.2217 102.481 86.9277C102.842 86.6337 103.276 86.4461 103.433 85.9393C103.607 85.3793 103.327 85.0097 103.08 84.5393C102.826 84.0681 102.614 83.5752 102.447 83.0665C102.134 82.0026 101.974 80.8995 101.971 79.7904C101.941 78.522 102.022 77.2705 102.019 75.9881C102.019 74.8121 101.918 73.6221 101.425 72.5413C101.311 72.2921 100.865 72.4712 100.977 72.7288L100.972 72.7485Z" fill="black"/>
<path d="M100.01 81.4375C100.006 81.4383 100.001 81.4402 99.997 81.4431C99.993 81.446 99.9898 81.4498 99.9876 81.4541C99.9854 81.4585 99.9843 81.4634 99.9844 81.4683C99.9844 81.4732 99.9857 81.478 99.9879 81.4823C99.991 81.4883 99.996 81.4929 100.002 81.4955C100.008 81.4981 100.015 81.4984 100.022 81.4963C100.041 81.4963 100.044 81.4431 100.022 81.4375" fill="black"/>
<path d="M99.8022 81.1457L99.889 81.1093L99.7994 81.1457C99.7721 81.1637 99.7459 81.1833 99.721 81.2044L99.6622 81.2828L99.623 81.3753L99.609 81.4817L99.623 81.5909C99.6338 81.6425 99.6591 81.6901 99.6958 81.7281C99.7125 81.7588 99.7378 81.7841 99.7686 81.8009C99.8065 81.8376 99.8541 81.8628 99.9058 81.8737H100.015C100.128 81.8713 100.236 81.8263 100.317 81.7477C100.317 81.7477 100.379 81.6665 100.382 81.6637C100.39 81.6474 100.396 81.6306 100.401 81.6133C100.41 81.5969 100.417 81.58 100.424 81.5628L100.438 81.4537C100.437 81.415 100.433 81.3765 100.424 81.3389L100.382 81.2409L100.317 81.1569C100.29 81.1312 100.26 81.1086 100.228 81.0896C100.13 81.0366 100.017 81.0216 99.9086 81.0477C99.8559 81.058 99.8073 81.0833 99.7686 81.1205C99.7235 81.1497 99.6868 81.1902 99.6622 81.2381L99.6202 81.3361C99.6006 81.4085 99.6006 81.4848 99.6202 81.5573L99.6622 81.6553C99.6983 81.7165 99.7494 81.7675 99.8106 81.8037L99.7266 81.7393L99.6622 81.6553L99.6202 81.5544L99.6062 81.4453L99.6202 81.3361L99.6622 81.2381L99.7266 81.1541L99.8078 81.0896L99.903 81.0505L100.009 81.0365C99.955 81.0332 99.9008 81.0448 99.8526 81.0701C99.819 81.0805 99.7883 81.0987 99.763 81.1233C99.7186 81.1522 99.6821 81.1916 99.6566 81.2381L99.721 81.1569L99.8022 81.0953L99.8946 81.0561L99.9982 81.0421L100.099 81.0561L100.189 81.0925L100.261 81.1485L100.317 81.2212C100.266 81.1429 100.19 81.0838 100.102 81.0533H100.004C99.9397 81.0531 99.8767 81.0705 99.8218 81.1037L99.8022 81.1457Z" fill="black"/>
<path d="M101.767 79.2587C101.476 78.7823 101.009 78.4387 100.468 78.3011C100.172 78.2363 99.8657 78.2287 99.5665 78.2787C99.4016 78.2911 99.2413 78.3388 99.0964 78.4185C98.9515 78.4982 98.8253 78.6081 98.7265 78.7407C98.6937 78.7969 98.6762 78.8607 98.6758 78.9257C98.6753 78.9908 98.692 79.0549 98.724 79.1115C98.756 79.1682 98.8023 79.2154 98.8582 79.2486C98.9142 79.2818 98.9779 79.2997 99.0429 79.3007C99.1391 79.301 99.2343 79.2819 99.3229 79.2447C99.3453 79.2447 99.3761 79.2195 99.3369 79.2447L99.4293 79.2111C99.5329 79.1775 99.6337 79.1411 99.7373 79.1159L99.8185 79.0991C99.8437 79.0991 99.9081 79.0851 99.8465 79.0991C99.9004 79.0916 99.9546 79.087 100.009 79.0851C100.062 79.0823 100.115 79.0823 100.169 79.0851H100.25C100.194 79.0851 100.25 79.0851 100.281 79.0851C100.469 79.115 100.65 79.1785 100.815 79.2727C100.989 79.3696 101.142 79.5011 101.263 79.6591C101.32 79.7124 101.394 79.7438 101.472 79.7476C101.549 79.7514 101.626 79.7274 101.688 79.6799C101.749 79.6324 101.792 79.5645 101.808 79.4883C101.824 79.4121 101.813 79.3327 101.776 79.2643L101.767 79.2587Z" fill="black"/>
<path d="M99.7601 89.0414C99.7345 89.0196 99.7102 88.9962 99.6873 88.9714L99.6061 88.9043C99.5613 88.8735 99.6425 88.9351 99.6061 88.9043L99.4521 88.7727C99.3529 88.6794 99.2594 88.5803 99.1721 88.4759C99.1497 88.4535 99.1329 88.4254 99.1105 88.403C99.1805 88.4758 99.1105 88.403 99.0937 88.3778C99.0769 88.3526 99.0181 88.2658 98.9845 88.2098C98.9127 88.092 98.8491 87.9695 98.7941 87.843C98.7497 87.7667 98.6774 87.7105 98.5925 87.6862C98.5179 87.6679 98.4395 87.6738 98.3685 87.703C98.2923 87.7348 98.2303 87.7934 98.1942 87.8676C98.1582 87.9418 98.1504 88.0267 98.1725 88.1062C98.294 88.4154 98.4704 88.7 98.6933 88.9462C98.8032 89.065 98.9252 89.172 99.0573 89.2654C99.1119 89.3087 99.1689 89.3489 99.2281 89.3859C99.3071 89.4316 99.3906 89.4692 99.4773 89.4978C99.5358 89.5138 99.5979 89.5102 99.6543 89.4878C99.7106 89.4653 99.7582 89.4252 99.7897 89.3734C99.8213 89.3216 99.8352 89.261 99.8294 89.2006C99.8235 89.1402 99.7982 89.0834 99.7573 89.0386L99.7601 89.0414Z" fill="black"/>
<path d="M94.9798 95.4963C94.7435 95.9176 94.5403 96.3566 94.3722 96.8095C94.1286 97.3695 93.8794 97.9295 93.6414 98.5035C93.1796 99.5061 92.7757 100.535 92.4318 101.583C92.2974 102.048 92.9666 102.202 93.1402 101.777C93.5518 100.757 93.9522 99.7327 94.3666 98.7135C94.5906 98.1535 94.8034 97.5935 95.0106 97.0475C95.2074 96.5942 95.3475 96.1183 95.4278 95.6307C95.453 95.3787 95.0946 95.3227 94.9798 95.5075V95.4963Z" fill="black"/>
<path d="M91.5171 81.6447L91.5815 81.6895L91.5619 81.6755L91.5927 81.7007C91.63 81.7314 91.6646 81.7651 91.6963 81.8015L91.7439 81.8547C91.7507 81.8654 91.7582 81.8757 91.7663 81.8855C91.7943 81.9275 91.8195 81.9667 91.8447 82.0115L91.8755 82.0731C91.8823 82.0846 91.8879 82.0968 91.8923 82.1095C91.8923 82.1095 91.8671 82.0479 91.8923 82.0843C91.9175 82.1207 91.9231 82.1767 91.9371 82.2243C91.9511 82.2719 91.9567 82.3195 91.9651 82.3671L91.9819 82.4427C91.9819 82.4427 91.9819 82.4623 91.9819 82.4735C91.9567 82.3671 91.9819 82.4987 91.9819 82.5183C92.0026 82.5705 92.0384 82.6153 92.0849 82.6469C92.1313 82.6785 92.1862 82.6953 92.2423 82.6953C92.2985 82.6953 92.3534 82.6785 92.3998 82.6469C92.4462 82.6153 92.4821 82.5705 92.5027 82.5183C92.5427 82.2418 92.481 81.9603 92.3291 81.7259C92.2018 81.5052 92.0207 81.3202 91.8027 81.1883C91.7721 81.1598 91.7356 81.1386 91.6957 81.1261C91.6558 81.1136 91.6137 81.1102 91.5723 81.1161C91.531 81.122 91.4915 81.1371 91.4567 81.1603C91.4219 81.1835 91.3928 81.2142 91.3714 81.2501C91.3501 81.286 91.337 81.3262 91.3332 81.3678C91.3294 81.4094 91.3349 81.4513 91.3495 81.4905C91.364 81.5297 91.3871 81.5651 91.417 81.5942C91.447 81.6233 91.4831 81.6453 91.5227 81.6587L91.5171 81.6447Z" fill="black"/>
<path d="M90.2476 175.935C89.9676 169.439 88.4108 163.033 87.134 156.685C84.7596 144.88 85.1208 132.18 79.5208 121.24C73.4728 109.455 60.8644 104.286 48.0432 104.868C13.1244 106.442 20.8132 154.773 26.1584 176.943C29.1404 189.305 35.8464 198.526 48.8384 200.743C68.4384 204.075 88.6264 206.497 108.098 202.485C112.113 201.645 116.587 200.136 118.178 196.358C119.74 192.668 117.699 188.238 114.524 185.797C111.348 183.355 107.302 182.406 103.399 181.488C99.496 180.569 93.3192 178.511 90.2392 175.944" fill="#FFCE52"/>
<path d="M90.4932 175.934C90.2132 168.402 88.1608 161.158 86.9512 153.76C85.8312 146.998 85.3944 140.136 84.0196 133.416C82.7372 127.152 80.5896 120.888 76.4988 115.879C72.9792 111.564 68.2164 108.423 62.9944 106.561C57.7441 104.729 52.1646 104.035 46.6256 104.522C42.6888 104.853 38.7856 105.852 35.3304 107.815C32.2895 109.571 29.6805 111.986 27.6948 114.882C25.6424 117.839 24.2144 121.208 23.2148 124.657C22.1666 128.433 21.5098 132.306 21.2548 136.216C20.9739 140.343 20.9673 144.485 21.2352 148.614C21.476 152.694 21.9324 156.756 22.5316 160.797C23.0804 164.487 23.7468 168.156 24.5308 171.804C25.4044 175.908 26.3144 180.03 27.9216 183.922C29.7976 188.466 32.55 192.697 36.4168 195.794C38.3668 197.349 40.5372 198.605 42.8568 199.521C45.6568 200.641 48.5604 201.122 51.5088 201.61C58.9988 202.839 66.5252 203.897 74.0936 204.491C81.6088 205.076 89.1744 205.199 96.6896 204.541C100.431 204.219 104.151 203.688 107.834 202.951C110.544 202.391 113.361 201.657 115.637 200.028C117.914 198.398 119.302 195.942 119.115 193.14C118.924 190.284 117.328 187.584 115.158 185.767C112.666 183.684 109.514 182.6 106.414 181.791C103.55 181.044 100.685 180.414 97.8964 179.411C95.3316 178.49 92.6436 177.395 90.5212 175.648C90.1236 175.32 89.5496 175.889 89.9612 176.208C92.064 177.941 94.6568 179.056 97.1908 179.999C99.876 180.999 102.626 181.679 105.4 182.36C108.542 183.141 111.784 184.115 114.36 186.154C116.564 187.895 118.255 190.614 118.314 193.476C118.451 199.946 110.72 201.596 105.773 202.492C98.4928 203.808 91.0756 204.247 83.6836 204.11C76.242 203.926 68.8176 203.305 61.4488 202.251C57.7388 201.747 54.04 201.167 50.3468 200.548C47.5832 200.086 44.8784 199.498 42.3052 198.359C37.9054 196.38 34.1792 193.16 31.584 189.094C28.9324 185.003 27.4008 180.383 26.2948 175.67C25.5201 172.363 24.8294 169.037 24.2228 165.694C23.5368 161.88 22.974 158.042 22.5736 154.189C22.1416 150.158 21.9248 146.107 21.924 142.054C21.9062 138.107 22.2134 134.165 22.8424 130.268C23.4528 126.668 24.3992 123.089 25.9224 119.76C27.2988 116.641 29.2802 113.826 31.752 111.478C34.3694 109.091 37.5102 107.351 40.922 106.398C45.4804 105.085 50.3888 104.959 55.0732 105.558C60.5136 106.239 65.8476 108.106 70.3416 111.282C75.1604 114.684 78.5736 119.474 80.724 124.934C83.1908 131.206 84.1148 137.924 84.9604 144.571C85.3804 147.872 85.7864 151.176 86.3604 154.455C86.9876 158.03 87.8416 161.564 88.5388 165.126C89.2814 168.691 89.7671 172.305 89.992 175.939C90.0088 176.256 90.4988 176.258 90.4876 175.939L90.4932 175.934Z" fill="black"/>
<path d="M239.336 273H237.631V156.136H239.336V273Z" fill="black" stroke="black" stroke-width="1.69" stroke-miterlimit="10"/>
<path d="M191.496 273H189.791V156.136H191.496V273Z" fill="black" stroke="black" stroke-width="1.69" stroke-miterlimit="10"/>
<path d="M132.312 189.742C131.867 191.375 130.897 192.817 129.552 193.844C129.286 194.048 129.552 194.505 129.818 194.297C131.266 193.188 132.306 191.63 132.777 189.868C132.793 189.806 132.784 189.741 132.752 189.686C132.721 189.631 132.668 189.591 132.607 189.575C132.546 189.558 132.481 189.566 132.425 189.598C132.37 189.629 132.33 189.681 132.312 189.742Z" fill="#60CC50"/>
<path d="M129.423 188.59C128.829 190.141 127.795 191.484 126.447 192.454C126.189 192.638 126.447 193.07 126.696 192.882C128.145 191.839 129.255 190.392 129.885 188.721C129.994 188.441 129.53 188.307 129.423 188.592V188.59Z" fill="#60CC50"/>
<path d="M95.6225 159.462C95.9033 160.384 95.948 161.362 95.7523 162.307C95.5566 163.251 95.1268 164.131 94.5025 164.866C94.2421 165.162 94.6733 165.599 94.9365 165.3C96.3365 163.718 96.8825 161.324 96.1041 159.327C95.9865 159.028 95.5189 159.14 95.6113 159.462H95.6225Z" fill="#60CC50"/>
<path d="M100.992 103.574C106.754 106.399 110.408 119.839 111.651 128.519C111.755 129.233 111.867 130.003 112.368 130.524C112.799 130.969 113.435 131.14 114.048 131.291L142.799 138.524C144.792 139.025 147.197 139.98 147.363 142.029C148.74 141.453 150.37 142.475 151.003 143.835C151.635 145.196 151.512 146.764 151.386 148.257C151.283 149.491 151.126 150.844 150.233 151.706C149.339 152.569 147.469 152.387 147.242 151.166C147.035 153.479 144.059 154.246 141.74 154.338C131.799 154.787 121.838 154.263 111.999 152.773C109.512 152.395 106.959 151.933 104.825 150.609C102.423 149.125 100.768 146.708 99.2754 144.311C93.6436 135.237 89.334 125.406 86.4766 115.116" fill="black"/>
<path d="M100.87 103.783C102.092 104.477 103.144 105.434 103.95 106.583C104.984 108.005 105.857 109.537 106.554 111.15C108.209 114.821 109.34 118.735 110.217 122.661C110.626 124.498 110.97 126.348 111.25 128.211C111.401 129.23 111.496 130.364 112.392 131.027C112.865 131.335 113.393 131.547 113.946 131.655L115.976 132.159C121.509 133.559 127.044 134.959 132.58 136.359L140.84 138.442C141.977 138.687 143.099 138.997 144.2 139.371C145.04 139.691 145.948 140.144 146.496 140.886C146.747 141.219 146.902 141.614 146.944 142.029C146.967 142.255 147.182 142.51 147.443 142.409C148.344 142.054 149.285 142.409 149.963 143.07C150.744 143.837 151.013 144.929 151.06 145.996C151.107 147.13 151.034 148.266 150.842 149.384C150.696 150.241 150.383 151.344 149.498 151.711C148.837 151.991 147.782 151.885 147.602 151.061C147.499 150.597 146.872 150.753 146.827 151.165C146.622 153.125 144.114 153.71 142.512 153.884C141.176 154.027 139.818 154.024 138.48 154.055C136.962 154.09 135.445 154.104 133.927 154.097C127.879 154.057 121.838 153.66 115.836 152.907C114.375 152.722 112.91 152.52 111.454 152.288C110.126 152.097 108.816 151.801 107.534 151.403C106.293 151.011 105.131 150.404 104.102 149.608C103.123 148.813 102.25 147.897 101.503 146.881C99.8903 144.745 98.5491 142.381 97.2387 140.052C95.8705 137.625 94.5955 135.153 93.4139 132.635C91.0366 127.565 89.0448 122.324 87.4555 116.955C87.2688 116.301 87.0822 115.648 86.8955 114.995C86.862 114.895 86.7916 114.812 86.6986 114.762C86.6057 114.713 86.4974 114.701 86.396 114.729C86.2945 114.757 86.2076 114.823 86.1532 114.913C86.0987 115.003 86.0808 115.11 86.1031 115.213C87.6537 120.769 89.6269 126.198 92.0055 131.453C93.1871 134.066 94.4667 136.632 95.8443 139.15C97.1642 141.63 98.6118 144.039 100.182 146.369C101.654 148.502 103.432 150.457 105.824 151.554C108.411 152.739 111.312 153.063 114.103 153.444C120.267 154.287 126.477 154.755 132.698 154.844C135.778 154.886 138.872 154.883 141.938 154.693C143.766 154.578 146.138 154.133 147.185 152.453C147.431 152.049 147.58 151.594 147.619 151.123L146.844 151.227C147.059 152.209 148.084 152.666 149.016 152.582C150.201 152.47 150.976 151.616 151.357 150.538C151.555 149.922 151.678 149.285 151.724 148.639C151.791 147.951 151.85 147.256 151.858 146.565C151.875 145.209 151.657 143.79 150.758 142.726C149.918 141.737 148.518 141.113 147.247 141.606L147.745 141.984C147.549 139.962 145.623 138.943 143.881 138.38C142.672 137.988 141.414 137.728 140.182 137.417L135.982 136.361C130.382 134.952 124.776 133.552 119.163 132.161L114.963 131.114C114.338 131 113.726 130.823 113.137 130.585C112.883 130.455 112.663 130.267 112.494 130.036C112.326 129.806 112.213 129.539 112.166 129.258C111.939 128.331 111.86 127.354 111.698 126.413C111.536 125.472 111.351 124.515 111.152 123.568C110.312 119.578 109.217 115.599 107.61 111.845C106.914 110.166 106.059 108.558 105.056 107.043C104.216 105.811 103.234 104.621 101.976 103.795C101.708 103.617 101.427 103.458 101.136 103.319C100.856 103.187 100.607 103.599 100.89 103.741L100.87 103.783Z" fill="black"/>
<path d="M91.7388 83.9983C91.3359 83.8407 90.9777 83.5868 90.6956 83.2588C90.4135 82.9308 90.216 82.5387 90.1204 82.1167C90.0372 81.6925 90.0882 81.2529 90.2663 80.859C90.4444 80.465 90.7409 80.1364 91.1144 79.9187C91.4991 79.7241 91.9429 79.6812 92.3578 79.7984C92.7727 79.9156 93.1284 80.1844 93.3544 80.5515C93.9788 78.4067 96.384 77.4435 98.1564 76.0715C99.46 75.0661 100.491 73.7502 101.155 72.2439C101.318 72.3936 101.44 72.5819 101.511 72.7914C101.581 73.0009 101.597 73.2248 101.558 73.4423C102.09 72.5435 102.426 71.3759 101.897 70.4771C101.323 69.5055 100.055 69.2899 98.9768 68.9595C97.672 68.5619 96.4708 67.8675 95.1604 67.4839C93.0352 66.8623 90.7644 67.1003 88.6868 67.7975C87.9526 68.0867 87.1971 68.3189 86.4272 68.4919C81.7792 69.2787 78.6852 71.9639 77.7472 76.6959C77.1368 79.7759 78.4472 82.4555 79.9172 85.0959L82.0088 88.8423C82.1193 89.1429 82.3363 89.3925 82.6186 89.5437C82.9009 89.6949 83.2289 89.7373 83.5404 89.6627L86.3208 89.5955C86.8635 89.6484 87.4102 89.5501 87.9005 89.3114C88.3907 89.0727 88.8053 88.703 89.0984 88.2431L91.3384 85.6811C91.604 85.4185 91.8111 85.1027 91.946 84.7543C92.0552 84.3959 92.0356 84.1943 91.7276 83.9983" fill="black"/>
<path d="M91.8588 83.7998C90.806 83.3042 90.0332 82.0778 90.5904 80.9326C90.6968 80.6946 90.8646 80.4892 91.0768 80.3377C91.2889 80.1861 91.5375 80.0938 91.7972 80.0702C92.0498 80.0506 92.3029 80.1014 92.5283 80.2171C92.7537 80.3328 92.9426 80.5087 93.074 80.7254C93.1081 80.7796 93.1571 80.823 93.2152 80.8503C93.2732 80.8776 93.3378 80.8877 93.4014 80.8795C93.465 80.8712 93.5249 80.845 93.5741 80.8038C93.6232 80.7626 93.6595 80.7082 93.6788 80.647C94.222 78.8802 96.0252 77.9562 97.4616 77.007C99.2059 75.9003 100.597 74.3176 101.471 72.4458L100.911 72.5186C101.024 72.6248 101.111 72.7562 101.164 72.9021C101.217 73.0481 101.235 73.2045 101.216 73.3586C101.158 73.7394 101.656 74.0194 101.88 73.6386C102.367 72.7986 102.74 71.757 102.44 70.791C102.16 69.909 101.424 69.391 100.598 69.0774C99.654 68.7162 98.674 68.5174 97.7388 68.1114C96.6832 67.6634 95.6444 67.1762 94.5132 66.9522C92.178 66.4902 89.9296 66.983 87.726 67.753C86.7796 68.0834 85.794 68.2066 84.8336 68.4782C84.0494 68.6975 83.2895 68.9959 82.5656 69.3686C79.6088 70.9058 77.7384 73.8822 77.2988 77.1554C77.0188 79.303 77.632 81.3806 78.5504 83.3154C79.0432 84.3458 79.6116 85.3342 80.1688 86.331L81.0788 87.9634C81.3276 88.4715 81.6082 88.9634 81.9188 89.4362C82.5824 90.3322 83.8788 90.0522 84.856 90.0298C85.92 90.0046 87.2108 90.1614 88.1712 89.6098C88.5968 89.3414 88.9752 89.0046 89.2912 88.613C89.6944 88.1594 90.092 87.703 90.4896 87.2466C90.8872 86.7902 91.2932 86.3422 91.688 85.883C92.0314 85.5444 92.2671 85.1119 92.3656 84.6398C92.3908 84.4581 92.3591 84.2731 92.2749 84.1101C92.1906 83.9471 92.058 83.8143 91.8952 83.7298C91.5844 83.531 91.2092 84.0098 91.4976 84.245C91.6376 84.3654 91.6572 84.3962 91.6068 84.5726C91.5394 84.7891 91.4311 84.9907 91.2876 85.1662C90.9432 85.6114 90.5428 86.023 90.1676 86.4486L89.1792 87.5686C88.8553 87.9778 88.4985 88.3599 88.1124 88.711C87.3116 89.3746 86.1748 89.2262 85.2032 89.2486L83.6716 89.285C83.1536 89.299 82.7308 89.3186 82.434 88.8342C81.874 87.9158 81.3756 86.9414 80.8464 86.0006C80.348 85.1074 79.8384 84.2198 79.3792 83.3042C78.5392 81.599 77.87 79.7538 77.9792 77.819C78.1444 74.8762 79.7516 71.9782 82.2576 70.413C83.5068 69.6599 84.8872 69.1498 86.326 68.9094C87.3452 68.7218 88.286 68.3158 89.2744 68.0246C90.274 67.7208 91.3099 67.5522 92.3544 67.5234C93.5257 67.4975 94.6912 67.6972 95.7872 68.1114C96.8568 68.5118 97.8732 69.041 98.9708 69.3686C99.78 69.6122 100.78 69.7662 101.379 70.4214C102.124 71.239 101.726 72.4374 101.244 73.2802L101.908 73.5602C101.956 73.2806 101.936 72.9936 101.849 72.7235C101.762 72.4534 101.611 72.2083 101.41 72.009C101.371 71.9713 101.324 71.9429 101.272 71.9258C101.221 71.9088 101.166 71.9036 101.112 71.9106C101.058 71.9176 101.007 71.9366 100.961 71.9662C100.916 71.9959 100.878 72.0354 100.85 72.0818C100.404 73.1046 99.7842 74.0424 99.0184 74.8538C98.3191 75.5527 97.5411 76.1682 96.7 76.6878C95.2188 77.6594 93.5836 78.6786 93.0376 80.4734L93.6424 80.395C92.85 79.023 90.8564 79.177 90.0948 80.4818C89.2212 81.9798 90.1816 83.6542 91.6712 84.2366C91.9204 84.3318 92.0968 83.9174 91.856 83.8026L91.8588 83.7998Z" fill="black"/>
<path d="M89.2474 126.001C91.3754 130.002 93.3858 134.068 95.3374 138.159C95.8974 139.315 96.3818 140.514 96.9894 141.642C97.1714 141.981 97.7678 141.746 97.625 141.362C97.219 140.306 96.6898 139.287 96.2054 138.265C95.721 137.243 95.2366 136.23 94.7298 135.222C93.7134 133.186 92.655 131.173 91.5742 129.168C90.9544 128.016 90.3254 126.871 89.687 125.732C89.5274 125.452 89.0934 125.699 89.2474 125.99V126.001Z" fill="#60CC50"/>
<path d="M78.9825 99.5337C81.0246 99.6588 83.0667 99.7745 85.1089 99.8809L88.1693 100.04C88.6229 100.066 89.0737 100.082 89.5245 100.133C89.7683 100.159 90.0105 100.199 90.2497 100.253C90.4933 100.309 90.7313 100.416 90.9777 100.449C91.0462 100.465 91.118 100.456 91.1805 100.424C91.243 100.391 91.2922 100.338 91.3196 100.274C91.3469 100.209 91.3507 100.137 91.3301 100.07C91.3096 100.002 91.2661 99.9445 91.2073 99.9061C90.7988 99.6855 90.3465 99.5584 89.8829 99.5337C89.4069 99.4693 88.9281 99.4413 88.4493 99.4189L85.3161 99.2761C83.2049 99.1772 81.0937 99.0838 78.9825 98.9961C78.6437 98.9961 78.6493 99.5001 78.9825 99.5225V99.5337Z" fill="#60CC50"/>
<path d="M93.3266 100.461L93.4218 100.287C93.4413 100.255 93.4528 100.218 93.4554 100.181C93.4652 100.144 93.4652 100.105 93.4554 100.069C93.4479 100.032 93.4305 99.998 93.405 99.9706C93.3844 99.94 93.3565 99.915 93.3238 99.8978L93.2566 99.8698C93.2072 99.8559 93.1549 99.8559 93.1054 99.8698L93.0354 99.8978C92.9937 99.9221 92.959 99.9568 92.9346 99.9986L92.8534 100.181C92.8324 100.211 92.8207 100.247 92.8198 100.284C92.8101 100.32 92.8101 100.358 92.8198 100.393C92.8282 100.428 92.8445 100.461 92.8674 100.489C92.8872 100.518 92.9142 100.542 92.9458 100.559L93.013 100.587C93.0616 100.6 93.1129 100.6 93.1614 100.587L93.2258 100.559C93.2672 100.535 93.3019 100.501 93.3266 100.461Z" fill="#60CC50"/>
<path d="M112.322 131.434C112.198 132.872 112.279 134.32 112.563 135.735C112.627 136.065 113.137 135.925 113.07 135.595C112.792 134.226 112.71 132.825 112.826 131.434C112.854 131.109 112.35 131.112 112.322 131.434Z" fill="#60CC50"/>
<path d="M114.955 132.225L114.941 135.397C114.96 135.453 114.995 135.502 115.043 135.536C115.091 135.571 115.148 135.59 115.207 135.59C115.266 135.59 115.324 135.571 115.372 135.536C115.419 135.502 115.455 135.453 115.473 135.397L115.459 132.225C115.459 132.158 115.433 132.094 115.386 132.046C115.338 131.999 115.274 131.973 115.207 131.973C115.141 131.973 115.076 131.999 115.029 132.046C114.982 132.094 114.955 132.158 114.955 132.225Z" fill="#60CC50"/>
<path d="M121.114 154.184C124.715 154.368 128.327 154.349 131.931 154.245C133.734 154.193 135.535 154.114 137.335 154.01C138.934 153.96 140.529 153.828 142.114 153.615C143.551 153.386 145.119 152.882 146.051 151.694C146.286 151.392 145.894 150.964 145.617 151.26C144.682 152.257 143.47 152.705 142.145 152.94C140.599 153.157 139.041 153.289 137.48 153.335C134.017 153.542 130.55 153.646 127.084 153.682C125.096 153.705 123.108 153.682 121.12 153.682C121.058 153.689 121.001 153.718 120.959 153.764C120.918 153.811 120.895 153.871 120.895 153.933C120.895 153.995 120.918 154.055 120.959 154.101C121.001 154.148 121.058 154.177 121.12 154.184H121.114Z" fill="#60CC50"/>
<path d="M135.028 259.332C131.357 258.942 127.645 259.249 124.089 260.239C124.089 261.032 124.072 261.821 124.041 262.603C123.991 263.854 123.937 265.148 124.371 266.321C125.354 268.975 128.384 270.143 131.077 271.005C134.698 272.162 137.559 272.733 140.721 272.347C143.204 272.041 144.291 269.029 142.619 267.167C141.807 266.262 140.987 265.344 140.564 264.257C140.116 263.107 140.149 261.858 140.323 260.617C138.622 259.959 136.842 259.527 135.028 259.332Z" fill="black"/>
<path d="M135.027 258.622C131.291 258.239 127.516 258.557 123.897 259.56C123.748 259.604 123.617 259.694 123.524 259.817C123.43 259.941 123.378 260.091 123.376 260.246C123.376 261.036 123.359 261.823 123.329 262.609C123.281 263.384 123.287 264.162 123.348 264.936C123.464 266.281 124.022 267.549 124.936 268.543C126.638 270.379 129.22 271.189 131.541 271.903C134.285 272.743 137.141 273.364 140.028 273.132C141.209 273.039 142.324 272.779 143.139 271.849C143.491 271.452 143.759 270.988 143.926 270.485C144.094 269.981 144.157 269.449 144.113 268.921C144.059 268.291 143.848 267.684 143.5 267.157C143.08 266.538 142.511 266.037 142.058 265.429C141.567 264.818 141.216 264.109 141.027 263.349C140.873 262.51 140.865 261.65 141.005 260.809C141.048 260.628 141.02 260.437 140.928 260.275C140.836 260.113 140.687 259.992 140.509 259.935C138.745 259.267 136.903 258.828 135.027 258.628C134.839 258.628 134.658 258.704 134.525 258.837C134.392 258.97 134.317 259.151 134.316 259.339C134.32 259.526 134.397 259.704 134.529 259.836C134.662 259.968 134.84 260.044 135.027 260.047C136.775 260.247 138.491 260.671 140.131 261.307L139.636 260.434C139.431 261.932 139.403 263.433 140.039 264.838C140.339 265.461 140.715 266.044 141.159 266.574C141.529 267.036 142.013 267.47 142.318 267.946C142.53 268.276 142.659 268.652 142.694 269.042C142.729 269.433 142.668 269.826 142.517 270.187C142.367 270.549 142.131 270.869 141.829 271.12C141.528 271.37 141.17 271.544 140.787 271.625C139.605 271.869 138.281 271.796 137.088 271.679C135.761 271.532 134.45 271.271 133.168 270.9C131.919 270.556 130.673 270.172 129.463 269.705C128.462 269.345 127.519 268.841 126.663 268.209C125.658 267.468 124.985 266.362 124.787 265.129C124.699 264.36 124.682 263.584 124.737 262.811C124.771 261.963 124.788 261.113 124.79 260.26L124.269 260.946C127.767 259.982 131.414 259.682 135.021 260.061C135.209 260.061 135.389 259.986 135.523 259.853C135.656 259.721 135.731 259.541 135.733 259.353C135.734 259.163 135.661 258.98 135.529 258.843C135.397 258.707 135.217 258.627 135.027 258.622Z" fill="black"/>
<path d="M139.442 263.2C139.806 263.172 140.173 263.158 140.539 263.149C140.906 263.141 141.281 263.177 141.643 263.149C141.722 263.149 141.798 263.118 141.854 263.062C141.911 263.005 141.942 262.929 141.942 262.85C141.942 262.77 141.911 262.694 141.854 262.638C141.798 262.582 141.722 262.55 141.643 262.55C141.269 262.524 140.894 262.532 140.523 262.575C140.139 262.603 139.755 262.645 139.375 262.699C139.315 262.715 139.264 262.752 139.23 262.804C139.196 262.855 139.182 262.917 139.19 262.979C139.197 263.041 139.227 263.098 139.274 263.14C139.321 263.182 139.382 263.205 139.445 263.205L139.442 263.2Z" fill="black"/>
<path d="M140.088 264.926C140.448 264.994 140.814 265.023 141.18 265.012C141.549 265.012 141.915 264.96 142.269 264.856C142.343 264.845 142.411 264.806 142.456 264.747C142.502 264.687 142.521 264.612 142.511 264.538C142.501 264.463 142.462 264.396 142.403 264.351C142.343 264.305 142.268 264.285 142.194 264.296C141.849 264.338 141.524 264.41 141.18 264.43C140.839 264.452 140.496 264.452 140.155 264.43C139.875 264.405 139.802 264.881 140.088 264.931V264.926Z" fill="black"/>
<path d="M86.5666 149.143C86.8046 156.367 87.9078 163.569 89.4562 170.619C89.8902 172.602 90.2962 174.618 90.9094 176.555C90.9263 176.617 90.9552 176.674 90.9943 176.724C91.0334 176.775 91.082 176.817 91.1374 176.848C91.1928 176.88 91.2538 176.9 91.3171 176.908C91.3803 176.915 91.4444 176.911 91.5058 176.894C91.5672 176.877 91.6247 176.848 91.6749 176.809C91.7252 176.77 91.7673 176.721 91.7987 176.666C91.8302 176.611 91.8504 176.549 91.8583 176.486C91.8662 176.423 91.8615 176.359 91.8446 176.298C91.447 174.531 90.9486 172.789 90.5426 171.025C90.145 169.304 89.7791 167.577 89.445 165.845C88.7674 162.326 88.2354 158.784 87.779 155.23C87.5186 153.206 87.2946 151.173 87.0762 149.143C87.0426 148.824 86.5554 148.81 86.5666 149.143Z" fill="black"/>
<path d="M213.621 151.815H157.641L161.729 148.895H215.788V149.648C215.788 150.223 215.56 150.774 215.153 151.18C214.747 151.587 214.196 151.815 213.621 151.815Z" fill="black"/>
<path d="M213.619 151.458H159.909C159.19 151.458 158.434 151.391 157.717 151.458H157.639L157.818 152.121L160.313 150.338L161.69 149.355C161.743 149.321 161.792 149.282 161.839 149.24C161.965 149.114 161.799 149.316 161.724 149.24H161.757C161.983 149.265 162.21 149.265 162.435 149.24H213.177C214 149.24 214.857 149.305 215.68 149.24H215.786L215.431 148.885C215.476 149.354 215.437 149.829 215.316 150.285C215.182 150.626 214.949 150.92 214.646 151.128C214.344 151.336 213.986 151.449 213.619 151.452C213.525 151.452 213.434 151.49 213.368 151.556C213.301 151.623 213.263 151.714 213.263 151.808C213.263 151.902 213.301 151.993 213.368 152.059C213.434 152.126 213.525 152.163 213.619 152.163C214.08 152.16 214.531 152.032 214.925 151.794C215.319 151.555 215.642 151.215 215.859 150.808C216.173 150.198 216.139 149.554 216.139 148.887C216.138 148.794 216.1 148.704 216.033 148.638C215.967 148.571 215.877 148.533 215.783 148.532H161.939C161.703 148.523 161.471 148.603 161.29 148.756L158.21 150.951L157.44 151.511C157.375 151.552 157.325 151.613 157.298 151.684C157.27 151.755 157.266 151.834 157.286 151.908C157.306 151.981 157.349 152.047 157.409 152.094C157.469 152.142 157.543 152.169 157.619 152.172H211.334C212.065 152.172 212.796 152.191 213.527 152.172H213.619C213.714 152.172 213.805 152.134 213.871 152.067C213.938 152 213.976 151.91 213.976 151.815C213.976 151.72 213.938 151.629 213.871 151.562C213.805 151.495 213.714 151.458 213.619 151.458Z" fill="black"/>
<path d="M179.461 149.801H176.555C176.408 149.801 176.289 149.92 176.289 150.067V150.436C176.289 150.583 176.408 150.702 176.555 150.702H179.461C179.608 150.702 179.727 150.583 179.727 150.436V150.067C179.727 149.92 179.608 149.801 179.461 149.801Z" fill="#60CC50"/>
<path d="M184.286 149.801H181.379C181.232 149.801 181.113 149.92 181.113 150.067V150.436C181.113 150.583 181.232 150.702 181.379 150.702H184.286C184.433 150.702 184.552 150.583 184.552 150.436V150.067C184.552 149.92 184.433 149.801 184.286 149.801Z" fill="#60CC50"/>
<path d="M189.114 149.801H186.207C186.061 149.801 185.941 149.92 185.941 150.067V150.436C185.941 150.583 186.061 150.702 186.207 150.702H189.114C189.261 150.702 189.38 150.583 189.38 150.436V150.067C189.38 149.92 189.261 149.801 189.114 149.801Z" fill="#60CC50"/>
<path d="M229.954 253.771C227.832 249.944 225.712 246.077 224.371 241.911C223.03 237.744 222.498 233.214 223.607 228.98C223.962 227.619 224.968 226.018 226.337 226.343C226.826 226.5 227.258 226.799 227.577 227.202C228.713 228.456 229.487 229.995 229.817 231.654L228.742 226.855C228.507 225.808 228.294 224.615 228.893 223.733C229.492 222.851 231.24 222.893 231.36 223.951C229.313 218.69 228.28 212.981 228.818 207.364C228.913 206.387 229.114 205.312 229.901 204.724C230.688 204.136 232.158 204.595 232.077 205.564C232.245 203.559 231.326 201.585 231.427 199.535C231.648 195.117 231.954 190.427 233.368 186.21C234.563 182.64 237.831 177.919 242.025 177.81C247.247 177.687 250.182 184.81 251.173 188.918C253.553 198.788 252.116 209.215 249.353 218.987C249.986 218.066 250.336 216.965 251.064 216.12C251.792 215.274 253.136 214.767 254.018 215.451C254.659 215.952 254.785 216.851 254.796 217.674C254.86 222.599 252.492 227.194 250.184 231.545C250.565 230.587 250.977 229.585 251.775 228.938C252.573 228.291 253.883 228.146 254.575 228.91C255.048 229.437 255.098 230.215 255.056 230.921C254.957 232.586 254.499 234.209 253.712 235.681C254.051 234.86 255.465 235.289 255.672 236.154C255.88 237.019 255.342 237.867 254.832 238.598C255.595 236.477 256.818 234.551 258.414 232.959C258.646 232.68 258.962 232.483 259.315 232.399C260.127 232.287 260.645 233.239 260.819 234.048C261.919 239.147 259.419 244.321 256.479 248.628C254.667 251.274 252.66 253.783 250.655 256.286C249.949 257.168 249.081 258.131 247.95 258.125" fill="#60CC50"/>
<path d="M230.161 253.646C227.793 249.32 225.415 244.929 224.175 240.124C223.532 237.723 223.259 235.238 223.366 232.755C223.426 231.562 223.604 230.379 223.898 229.221C224.119 228.364 224.517 227.37 225.298 226.878C226.418 226.166 227.42 227.502 227.988 228.325C228.7 229.359 229.194 230.527 229.439 231.758L230.164 231.559L229.439 228.306C229.223 227.345 228.915 226.346 228.879 225.368C228.848 224.652 229.008 223.784 229.783 223.548C230.254 223.406 230.903 223.49 230.982 224.055L231.718 223.851C230.583 220.956 229.79 217.939 229.355 214.86C229.149 213.333 229.048 211.794 229.052 210.254C229.052 209.49 229.089 208.722 229.148 207.958C229.171 207.293 229.28 206.634 229.472 205.998C229.666 205.438 230.061 204.878 230.705 204.856C231.139 204.856 231.682 205.066 231.662 205.567C231.642 206.068 232.429 206.076 232.466 205.567C232.569 204.147 232.186 202.767 231.959 201.386C231.721 199.953 231.875 198.505 231.959 197.066C232.152 194.137 232.452 191.203 233.171 188.352C233.69 186.113 234.642 183.997 235.971 182.122C237.209 180.428 238.92 178.844 241.028 178.387C245.08 177.511 247.801 181.518 249.232 184.698C251.231 189.145 251.845 194.218 251.884 199.04C251.934 205.026 250.943 210.976 249.439 216.753C249.254 217.461 249.061 218.153 248.862 218.867C248.706 219.427 249.459 219.707 249.761 219.245C250.506 218.125 250.881 216.554 252.136 215.885C252.626 215.622 253.281 215.501 253.74 215.885C254.199 216.268 254.269 217.005 254.3 217.565C254.39 220.667 253.41 223.725 252.155 226.525C251.427 228.154 250.599 229.736 249.761 231.313L250.649 231.688C250.996 230.82 251.385 229.795 252.189 229.246C252.799 228.829 253.819 228.686 254.3 229.364C254.527 229.764 254.624 230.225 254.58 230.683C254.565 231.247 254.501 231.809 254.39 232.363C254.174 233.437 253.806 234.474 253.295 235.443L254.135 235.93C254.328 235.524 254.93 235.804 255.123 236.092C255.585 236.778 254.793 237.82 254.421 238.36L255.3 238.73C255.701 237.625 256.231 236.572 256.879 235.591C257.22 235.079 257.594 234.59 257.999 234.127C258.34 233.729 258.73 233.192 259.197 232.94C260.138 232.43 260.44 234.379 260.519 234.9C260.686 236.108 260.673 237.335 260.48 238.54C259.696 243.549 256.585 247.892 253.572 251.82C252.668 253.002 251.741 254.161 250.808 255.32C250.103 256.199 249.243 257.574 247.978 257.608C247.337 257.608 247.334 258.621 247.978 258.607C249.243 258.574 250.167 257.689 250.921 256.762C251.859 255.608 252.777 254.435 253.687 253.259C255.462 250.963 257.215 248.622 258.651 246.097C260.007 243.714 261.098 241.13 261.451 238.397C261.64 237.04 261.615 235.661 261.378 234.312C261.208 233.343 260.743 231.99 259.575 231.898C258.872 231.842 258.354 232.324 257.895 232.794C257.382 233.326 256.906 233.893 256.47 234.491C255.584 235.711 254.876 237.052 254.367 238.472C254.171 239.016 254.955 239.265 255.247 238.845C255.919 237.876 256.747 236.325 255.714 235.308C255.067 234.664 253.754 234.468 253.301 235.44C253.021 236 253.838 236.482 254.141 235.927C254.808 234.672 255.251 233.311 255.451 231.904C255.608 230.756 255.753 229.272 254.779 228.426C253.958 227.712 252.699 227.799 251.811 228.339C250.708 229.008 250.19 230.274 249.733 231.419C249.529 231.932 250.366 232.276 250.621 231.794C252.301 228.653 253.981 225.444 254.799 221.961C255.185 220.334 255.482 218.511 255.238 216.84C255.207 216.49 255.107 216.15 254.942 215.839C254.778 215.529 254.553 215.255 254.281 215.034C253.988 214.834 253.653 214.707 253.302 214.662C252.951 214.617 252.595 214.656 252.262 214.776C250.405 215.367 249.918 217.296 248.947 218.744L249.845 219.122C251.525 213.146 252.712 206.984 252.852 200.762C252.932 197.695 252.717 194.627 252.211 191.6C251.863 189.396 251.274 187.236 250.456 185.16C249.056 181.744 246.561 177.55 242.417 177.376C240.16 177.281 238.113 178.496 236.585 180.078C235.027 181.709 233.832 183.651 233.079 185.776C232.082 188.54 231.645 191.505 231.371 194.417C231.228 195.929 231.139 197.444 231.06 198.959C231.013 199.672 231.034 200.388 231.122 201.098C231.225 201.868 231.402 202.627 231.536 203.391C231.677 204.107 231.729 204.838 231.69 205.567H232.494C232.539 204.388 231.141 203.82 230.156 204.167C228.778 204.632 228.529 206.351 228.417 207.591C228.125 211.158 228.393 214.748 229.212 218.231C229.668 220.214 230.268 222.161 231.01 224.055C231.043 224.145 231.109 224.219 231.195 224.262C231.28 224.306 231.379 224.316 231.471 224.29C231.564 224.264 231.643 224.205 231.694 224.124C231.745 224.042 231.764 223.945 231.746 223.851C231.626 223.075 230.847 222.686 230.119 222.731C229.707 222.745 229.31 222.887 228.982 223.138C228.655 223.389 228.414 223.736 228.294 224.131C227.919 225.251 228.294 226.472 228.532 227.566L229.47 231.747C229.576 232.22 230.29 232.027 230.195 231.548C229.956 230.362 229.498 229.232 228.842 228.216C228.282 227.348 227.485 226.203 226.404 225.976C225.449 225.774 224.637 226.351 224.102 227.096C223.45 227.998 223.195 229.101 223.002 230.176C222.041 235.496 223.396 240.883 225.522 245.747C226.754 248.547 228.246 251.226 229.741 253.895C229.901 254.175 230.341 253.926 230.181 253.637L230.161 253.646Z" fill="black"/>
<path d="M222.562 249.629H258.257V265.13C258.257 266.163 258.053 267.187 257.658 268.142C257.262 269.097 256.682 269.964 255.952 270.695C255.221 271.426 254.353 272.006 253.398 272.401C252.443 272.797 251.42 273 250.386 273H230.442C228.354 273 226.352 272.171 224.876 270.695C223.4 269.219 222.571 267.217 222.571 265.13V249.629H222.562Z" fill="white"/>
<path d="M222.562 249.629H258.257V265.13C258.257 266.163 258.053 267.187 257.658 268.142C257.262 269.097 256.682 269.964 255.952 270.695C255.221 271.426 254.353 272.006 253.398 272.401C252.443 272.797 251.42 273 250.386 273H230.442C228.354 273 226.352 272.171 224.876 270.695C223.4 269.219 222.571 267.217 222.571 265.13V249.629H222.562Z" stroke="black" stroke-miterlimit="10"/>
<path d="M242.358 190.592C240.678 193.496 240.583 196.974 241.003 200.219C241.488 203.957 242.588 207.608 242.546 211.402C242.504 215.196 241.6 219.01 241.793 222.848C241.98 226.612 242.988 230.319 242.633 234.104C242.272 237.943 240.748 242.084 242.325 245.836C242.493 246.24 243.165 246.08 242.994 245.652C241.74 242.292 242.767 238.761 243.226 235.353C243.466 233.543 243.491 231.712 243.302 229.896C243.114 228.031 242.787 226.18 242.594 224.316C242.416 222.439 242.416 220.55 242.594 218.674C242.756 216.789 243.014 214.91 243.128 213.02C243.241 211.164 243.158 209.301 242.882 207.462C242.602 205.614 242.199 203.792 241.871 201.955C241.216 198.281 240.911 194.23 242.829 190.861C242.845 190.803 242.841 190.741 242.819 190.684C242.796 190.628 242.756 190.58 242.704 190.549C242.653 190.517 242.592 190.503 242.532 190.509C242.471 190.515 242.414 190.54 242.37 190.581L242.358 190.592Z" fill="white"/>
<path d="M232.913 230.943C233.958 231.137 234.98 231.435 235.965 231.833C236.926 232.3 237.792 232.941 238.519 233.723C239.233 234.399 239.896 235.126 240.504 235.899C241.083 236.674 241.483 237.568 241.674 238.517C241.747 238.864 242.332 238.797 242.299 238.433C242.111 236.364 240.42 234.684 239.006 233.323C238.215 232.507 237.281 231.843 236.251 231.363C235.215 230.958 234.141 230.662 233.045 230.478C232.734 230.417 232.599 230.887 232.913 230.957V230.943Z" fill="white"/>
<path d="M247.379 223.108C245.306 223.956 243.552 225.434 242.365 227.333C242.155 227.669 242.687 227.98 242.894 227.644C244.011 225.848 245.642 224.429 247.575 223.57C247.833 223.455 247.645 223.01 247.379 223.108Z" fill="white"/>
<path d="M239.663 210.194C240.288 210.474 240.879 210.823 241.424 211.236C241.956 211.656 242.447 212.125 242.892 212.636C242.945 212.672 243.01 212.688 243.074 212.681C243.138 212.675 243.198 212.647 243.244 212.601C243.289 212.556 243.318 212.496 243.325 212.432C243.332 212.368 243.316 212.304 243.281 212.25C242.832 211.701 242.312 211.216 241.735 210.805C241.169 210.389 240.556 210.039 239.91 209.763C239.853 209.734 239.787 209.727 239.726 209.743C239.664 209.76 239.611 209.799 239.576 209.853C239.544 209.909 239.535 209.975 239.551 210.037C239.567 210.1 239.608 210.153 239.663 210.186V210.194Z" fill="white"/>
<path d="M132.108 7.00013C132.093 9.47055 131.368 11.8845 130.019 13.9542C128.67 16.024 126.754 17.6621 124.5 18.6733C123.173 19.2669 121.737 19.5889 120.376 20.1013C118.952 20.6342 117.566 21.2628 116.226 21.9829C114.971 22.6613 113.768 23.4335 112.628 24.2929C112.172 24.6373 111.604 24.9733 111.436 25.5557C111.372 25.7929 111.37 26.0423 111.43 26.2804C111.49 26.5185 111.609 26.7374 111.777 26.9165C112.217 27.3841 112.788 27.3449 113.362 27.3449H151.932H155.936C156.151 27.3541 156.364 27.3154 156.562 27.2316C156.76 27.1478 156.936 27.0211 157.078 26.8605C157.241 26.6744 157.352 26.4493 157.401 26.2073C157.45 25.9654 157.435 25.7148 157.358 25.4801C157.16 24.9201 156.56 24.5645 156.101 24.2201C153.705 22.4477 151.064 21.0329 148.261 20.0201C146.926 19.5245 145.517 19.2081 144.218 18.6201C143.097 18.1136 142.053 17.4498 141.118 16.6489C139.248 15.0212 137.887 12.8881 137.198 10.5057C136.87 9.36611 136.701 8.18626 136.697 7.00013C136.697 6.90582 136.66 6.81537 136.593 6.74868C136.526 6.682 136.436 6.64453 136.342 6.64453C136.247 6.64453 136.157 6.682 136.09 6.74868C136.024 6.81537 135.986 6.90582 135.986 7.00013C136.001 9.42921 136.667 11.8098 137.915 13.8942C139.162 15.9787 140.945 17.6908 143.078 18.8525C144.249 19.4853 145.484 19.8465 146.741 20.2525C148.192 20.7226 149.609 21.2914 150.983 21.9549C152.293 22.5851 153.553 23.3123 154.754 24.1305C155.34 24.5139 155.901 24.9329 156.434 25.3849C156.518 25.4494 156.585 25.5316 156.633 25.6257C156.68 25.7197 156.706 25.8231 156.708 25.9284C156.71 26.0336 156.689 26.138 156.645 26.2339C156.602 26.3298 156.537 26.4147 156.457 26.4825C156.177 26.7065 155.676 26.6337 155.337 26.6337H117.066C115.686 26.6337 114.303 26.6337 112.922 26.6337C112.805 26.6461 112.687 26.6327 112.576 26.5944C112.465 26.5562 112.363 26.4941 112.278 26.4125C111.914 26.0121 112.147 25.5725 112.502 25.2925C113.062 24.8529 113.622 24.4525 114.202 24.0465C116.692 22.3918 119.404 21.0993 122.258 20.2077C123.505 19.8572 124.714 19.3825 125.867 18.7909C127.975 17.6272 129.731 15.9194 130.954 13.8455C132.177 11.7717 132.821 9.40769 132.819 7.00013C132.819 6.90582 132.782 6.81537 132.715 6.74868C132.648 6.682 132.558 6.64453 132.464 6.64453C132.369 6.64453 132.279 6.682 132.212 6.74868C132.146 6.81537 132.108 6.90582 132.108 7.00013Z" fill="black"/>
<path d="M111.785 28.2795C105.549 29.7831 99.3106 31.2895 93.1926 33.2187C87.3854 35.0499 81.6734 37.2507 76.303 40.1291C71.4348 42.6919 66.9269 45.8873 62.8966 49.6323C60.9059 51.5092 59.0775 53.5512 57.431 55.7363C55.8658 57.8195 53.9086 60.4263 54.3958 63.1983C54.8046 65.5279 57.1062 66.7991 59.3294 66.7487C61.8886 66.6899 63.9326 64.9315 65.3606 62.9491C65.7423 62.4127 66.0956 61.8566 66.419 61.2831C66.4604 61.2089 66.4768 61.1233 66.4657 61.0391C66.4546 60.9549 66.4166 60.8764 66.3574 60.8155C63.1934 58.0603 58.6322 59.8467 55.3702 61.4511C51.5538 63.3293 47.8913 65.5051 44.4166 67.9583C37.5238 72.824 31.4066 78.7042 26.2726 85.3995C23.3558 89.2024 20.781 93.2558 18.5782 97.5123C18.3486 97.9603 19.0234 98.3523 19.2558 97.9071C26.8967 83.198 38.8037 71.1407 53.4158 63.3159C55.4234 62.2435 57.4786 61.1459 59.685 60.5495C61.7402 59.9895 64.109 59.8719 65.8142 61.3559L65.7554 60.8883C64.557 62.9911 62.863 65.2535 60.3766 65.8415C58.3018 66.3343 55.7062 65.4747 55.1714 63.2095C54.8494 61.8543 55.3618 60.4319 55.989 59.2447C56.6389 58.0807 57.3804 56.9702 58.2066 55.9239C59.7961 53.8368 61.5559 51.8851 63.4678 50.0887C67.3192 46.5015 71.6172 43.426 76.2554 40.9383C81.329 38.1663 86.7162 36.0159 92.2154 34.2183C97.9806 32.3311 103.858 30.8219 109.741 29.3547L111.944 28.7947C112.006 28.7679 112.056 28.7198 112.085 28.6591C112.114 28.5984 112.121 28.5292 112.103 28.4643C112.085 28.3993 112.045 28.3429 111.989 28.3053C111.933 28.2678 111.865 28.2517 111.799 28.2599L111.785 28.2795Z" fill="#FFA352"/>
<path d="M156.996 28.8012C162.324 30.3185 167.48 32.3828 172.382 34.9612C177.072 37.4336 181.653 40.3232 185.66 43.812C189.487 47.144 192.786 51.2432 194.119 56.2216C194.858 58.9785 194.997 61.8621 194.527 64.6776C194.147 66.9176 193.181 69.6252 190.624 70.0788C190.067 70.1932 189.487 70.1267 188.97 69.8891C188.453 69.6514 188.025 69.2548 187.749 68.7572C187.226 67.8041 186.971 66.727 187.012 65.6408C187.06 63.5632 188.057 61.5752 189.504 60.1136C191.003 58.5787 193.038 57.6853 195.183 57.6216C197.47 57.6028 199.703 58.3172 201.555 59.66C205.786 62.6224 207.329 67.8724 206.892 72.8368C206.778 74.1305 206.54 75.4104 206.181 76.6588C205.896 77.6892 205.284 78.5991 204.437 79.2516C204.109 79.5221 203.696 79.6671 203.272 79.6604C203.042 79.619 202.827 79.5178 202.648 79.3669C202.47 79.216 202.334 79.0207 202.255 78.8008C201.869 77.7951 201.796 76.6956 202.048 75.648C202.301 74.5939 202.767 73.6028 203.417 72.7359C204.068 71.869 204.889 71.1448 205.831 70.608C207.892 69.404 210.378 69.2948 212.646 69.9164C217.781 71.3164 221.027 75.7964 223.113 80.4304C223.647 81.6148 224.123 82.8272 224.571 84.048C224.745 84.5212 225.512 84.328 225.336 83.838C223.437 78.6804 220.912 73.2736 215.933 70.44C213.64 69.1352 210.972 68.4632 208.343 68.8804C207.172 69.0841 206.055 69.5206 205.056 70.1642C204.058 70.8077 203.199 71.6451 202.53 72.6268C201.253 74.4804 200.595 77.1376 201.6 79.2404C201.807 79.7114 202.188 80.0839 202.664 80.2798C203.14 80.4756 203.673 80.4794 204.151 80.2904C205.184 79.8816 205.979 78.9324 206.483 77.9692C207.08 76.8352 207.309 75.48 207.5 74.2256C207.716 72.8367 207.787 71.4291 207.71 70.0256C207.545 67.3152 206.78 64.5852 205.24 62.3284C202.558 58.3888 197.28 55.7036 192.545 57.3192C188.384 58.7388 185.201 63.5436 186.589 67.934C186.967 69.1296 187.681 70.2468 188.911 70.6808C190.017 71.07 191.302 70.818 192.29 70.2272C194.639 68.8272 195.219 65.6996 195.44 63.1992C195.703 60.1731 195.292 57.1264 194.236 54.2784C193.278 51.7815 191.905 49.4642 190.176 47.424C186.657 43.1876 182.023 39.9088 177.352 37.064C172.294 33.9818 166.909 31.4698 161.297 29.574C159.919 29.1092 158.532 28.6817 157.133 28.2916C157.067 28.2767 156.998 28.2879 156.94 28.3226C156.882 28.3574 156.84 28.4131 156.822 28.4783C156.804 28.5434 156.812 28.613 156.844 28.6726C156.876 28.7322 156.929 28.7772 156.993 28.7984L156.996 28.8012Z" fill="#FFA352"/>
</g>
<defs>
<clipPath id="clip0_2982_32276">
<rect width="291" height="291" fill="white"/>
</clipPath>
</defs>
</svg>
